<?xml version="1.0" encoding="UTF-8" standalone="no"?>
<!DOCTYPE svg PUBLIC "-//W3C//DTD SVG 1.1//EN"
 "http://www.w3.org/Graphics/SVG/1.1/DTD/svg11.dtd">
<!-- Generated by graphviz version 12.2.1 (20241206.2353)
 -->
<!-- Title: DependencyGraph Pages: 1 -->
<svg width="2188pt" height="674pt"
 viewBox="0.00 0.00 2188.29 674.25" xmlns="http://www.w3.org/2000/svg" xmlns:xlink="http://www.w3.org/1999/xlink">
<g id="graph0" class="graph" transform="scale(1 1) rotate(0) translate(4 670.25)">
<title>DependencyGraph</title>
<polygon fill="white" stroke="none" points="-4,4 -4,-670.25 2184.29,-670.25 2184.29,4 -4,4"/>
<g id="clust1" class="cluster">
<title>cluster_0</title>
<path fill="#d63031" fill-opacity="0.188235" stroke="#d63031" stroke-width="2" d="M1310,-440.75C1310,-440.75 1396,-440.75 1396,-440.75 1402,-440.75 1408,-446.75 1408,-452.75 1408,-452.75 1408,-646.25 1408,-646.25 1408,-652.25 1402,-658.25 1396,-658.25 1396,-658.25 1310,-658.25 1310,-658.25 1304,-658.25 1298,-652.25 1298,-646.25 1298,-646.25 1298,-452.75 1298,-452.75 1298,-446.75 1304,-440.75 1310,-440.75"/>
<text text-anchor="middle" x="1353" y="-642.85" font-family="Helvetica,sans-Serif" font-weight="bold" font-size="12.00">Main Application</text>
</g>
<g id="clust2" class="cluster">
<title>cluster_1</title>
<path fill="#00b894" fill-opacity="0.188235" stroke="#00b894" stroke-width="2" d="M1420,-8C1420,-8 1574,-8 1574,-8 1580,-8 1586,-14 1586,-20 1586,-20 1586,-356.75 1586,-356.75 1586,-362.75 1580,-368.75 1574,-368.75 1574,-368.75 1420,-368.75 1420,-368.75 1414,-368.75 1408,-362.75 1408,-356.75 1408,-356.75 1408,-20 1408,-20 1408,-14 1414,-8 1420,-8"/>
<text text-anchor="middle" x="1497" y="-353.35" font-family="Helvetica,sans-Serif" font-weight="bold" font-size="12.00">Core Foundation</text>
</g>
<g id="clust3" class="cluster">
<title>cluster_2</title>
<path fill="#fdcb6e" fill-opacity="0.188235" stroke="#fdcb6e" stroke-width="2" d="M626,-224C626,-224 1212,-224 1212,-224 1218,-224 1224,-230 1224,-236 1224,-236 1224,-501.5 1224,-501.5 1224,-507.5 1218,-513.5 1212,-513.5 1212,-513.5 626,-513.5 626,-513.5 620,-513.5 614,-507.5 614,-501.5 614,-501.5 614,-236 614,-236 614,-230 620,-224 626,-224"/>
<text text-anchor="middle" x="919" y="-498.1" font-family="Helvetica,sans-Serif" font-weight="bold" font-size="12.00">UI Features</text>
</g>
<g id="clust4" class="cluster">
<title>cluster_3</title>
<path fill="#00b894" fill-opacity="0.188235" stroke="#00b894" stroke-width="2" d="M68,-152C68,-152 146,-152 146,-152 152,-152 158,-158 158,-164 158,-164 158,-646.25 158,-646.25 158,-652.25 152,-658.25 146,-658.25 146,-658.25 68,-658.25 68,-658.25 62,-658.25 56,-652.25 56,-646.25 56,-646.25 56,-164 56,-164 56,-158 62,-152 68,-152"/>
<text text-anchor="middle" x="107" y="-642.85" font-family="Helvetica,sans-Serif" font-weight="bold" font-size="12.00">Infrastructure</text>
</g>
<!-- AirAsFramework -->
<g id="node1" class="node">
<title>AirAsFramework</title>
<polygon fill="#ff6b6b" stroke="#d63031" stroke-width="2" points="1394.38,-629.5 1305.62,-629.5 1305.62,-593.5 1394.38,-593.5 1394.38,-629.5"/>
<text text-anchor="middle" x="1350" y="-607.62" font-family="Helvetica,sans-Serif" font-size="10.00">AirAsFramework</text>
</g>
<!-- UICreateWallet -->
<g id="node2" class="node">
<title>UICreateWallet</title>
<polygon fill="#ff6b6b" stroke="#d63031" stroke-width="2" points="1400.38,-484.75 1317.62,-484.75 1317.62,-448.75 1400.38,-448.75 1400.38,-484.75"/>
<text text-anchor="middle" x="1359" y="-462.88" font-family="Helvetica,sans-Serif" font-size="10.00">UICreateWallet</text>
</g>
<!-- AirAsFramework&#45;&gt;UICreateWallet -->
<g id="edge37" class="edge">
<title>AirAsFramework&#45;&gt;UICreateWallet</title>
<path fill="none" stroke="blue" stroke-width="1.5" d="M1360.2,-593C1365.46,-582.97 1371.31,-569.94 1374,-557.5 1378.37,-537.27 1374.34,-514.25 1369.36,-496.58"/>
<polygon fill="blue" stroke="blue" stroke-width="1.5" points="1372.76,-495.72 1366.44,-487.21 1366.08,-497.8 1372.76,-495.72"/>
</g>
<!-- UIHome -->
<g id="node3" class="node">
<title>UIHome</title>
<polygon fill="#ff6b6b" stroke="#d63031" stroke-width="2" points="1360,-557.5 1306,-557.5 1306,-521.5 1360,-521.5 1360,-557.5"/>
<text text-anchor="middle" x="1333" y="-535.62" font-family="Helvetica,sans-Serif" font-size="10.00">UIHome</text>
</g>
<!-- AirAsFramework&#45;&gt;UIHome -->
<g id="edge26" class="edge">
<title>AirAsFramework&#45;&gt;UIHome</title>
<path fill="none" stroke="blue" stroke-width="1.5" d="M1345.8,-593.2C1344.05,-585.99 1341.97,-577.43 1340,-569.32"/>
<polygon fill="blue" stroke="blue" stroke-width="1.5" points="1343.45,-568.7 1337.69,-559.81 1336.65,-570.35 1343.45,-568.7"/>
</g>
<!-- UIComponents -->
<g id="node5" class="node">
<title>UIComponents</title>
<polygon fill="#4ecdc4" stroke="#00b894" stroke-width="2" points="1498,-196 1416,-196 1416,-160 1498,-160 1498,-196"/>
<text text-anchor="middle" x="1457" y="-174.12" font-family="Helvetica,sans-Serif" font-size="10.00">UIComponents</text>
</g>
<!-- AirAsFramework&#45;&gt;UIComponents -->
<g id="edge29" class="edge">
<title>AirAsFramework&#45;&gt;UIComponents</title>
<path fill="none" stroke="gray" d="M1394.67,-610.9C1552.07,-611.85 2074.1,-610.93 2124,-557.5 2216.59,-458.35 2028.08,-235.94 2010,-224 1968.85,-196.81 1639.56,-184.32 1509.54,-180.42"/>
<polygon fill="gray" stroke="gray" points="1509.94,-176.93 1499.84,-180.13 1509.73,-183.92 1509.94,-176.93"/>
</g>
<!-- UIPasscode -->
<g id="node6" class="node">
<title>UIPasscode</title>
<polygon fill="#4ecdc4" stroke="#00b894" stroke-width="2" points="1534,-340 1464,-340 1464,-304 1534,-304 1534,-340"/>
<text text-anchor="middle" x="1499" y="-318.12" font-family="Helvetica,sans-Serif" font-size="10.00">UIPasscode</text>
</g>
<!-- AirAsFramework&#45;&gt;UIPasscode -->
<g id="edge20" class="edge">
<title>AirAsFramework&#45;&gt;UIPasscode</title>
<path fill="none" stroke="gray" d="M1337.54,-593.2C1315.67,-560.52 1275.72,-488.69 1309,-440.75 1329.29,-411.52 1352.95,-430.12 1384,-412.75 1416.64,-394.49 1449.88,-367.44 1472.18,-347.81"/>
<polygon fill="gray" stroke="gray" points="1474.48,-350.44 1479.61,-341.17 1469.82,-345.22 1474.48,-350.44"/>
</g>
<!-- WalletContext -->
<g id="node7" class="node">
<title>WalletContext</title>
<polygon fill="#4ecdc4" stroke="#00b894" stroke-width="2" points="1493.75,-52 1416.25,-52 1416.25,-16 1493.75,-16 1493.75,-52"/>
<text text-anchor="middle" x="1455" y="-30.12" font-family="Helvetica,sans-Serif" font-size="10.00">WalletContext</text>
</g>
<!-- AirAsFramework&#45;&gt;WalletContext -->
<g id="edge28" class="edge">
<title>AirAsFramework&#45;&gt;WalletContext</title>
<path fill="none" stroke="gray" d="M1394.61,-610.78C1556.3,-611.36 2105.17,-609.45 2162,-557.5 2191.8,-530.26 2176,-508.12 2176,-467.75 2176,-467.75 2176,-467.75 2176,-177 2176,-159.54 2145.79,-115.56 2084,-88 1980.78,-41.96 1635.52,-35.7 1505.29,-35.01"/>
<polygon fill="gray" stroke="gray" points="1505.63,-31.51 1495.61,-34.97 1505.6,-38.51 1505.63,-31.51"/>
</g>
<!-- WalletCore -->
<g id="node8" class="node">
<title>WalletCore</title>
<polygon fill="#4ecdc4" stroke="#00b894" stroke-width="2" points="1480,-124 1416,-124 1416,-88 1480,-88 1480,-124"/>
<text text-anchor="middle" x="1448" y="-102.12" font-family="Helvetica,sans-Serif" font-size="10.00">WalletCore</text>
</g>
<!-- AirAsFramework&#45;&gt;WalletCore -->
<g id="edge31" class="edge">
<title>AirAsFramework&#45;&gt;WalletCore</title>
<path fill="none" stroke="gray" d="M1305.28,-609.91C1147.58,-607.51 623.53,-596.63 560,-557.5 406.01,-462.66 401.27,-282.96 526,-152 556.62,-119.85 1225.36,-109.64 1404.3,-107.48"/>
<polygon fill="gray" stroke="gray" points="1404.13,-110.98 1414.09,-107.36 1404.05,-103.98 1404.13,-110.98"/>
</g>
<!-- UIActivityList -->
<g id="node9" class="node">
<title>UIActivityList</title>
<polygon fill="#ffe66d" stroke="#fdcb6e" points="760.62,-340 685.38,-340 685.38,-304 760.62,-304 760.62,-340"/>
<text text-anchor="middle" x="723" y="-318.12" font-family="Helvetica,sans-Serif" font-size="10.00">UIActivityList</text>
</g>
<!-- AirAsFramework&#45;&gt;UIActivityList -->
<g id="edge24" class="edge">
<title>AirAsFramework&#45;&gt;UIActivityList</title>
<path fill="none" stroke="blue" stroke-width="1.5" d="M1305.13,-608.14C1150.76,-599.54 648.58,-567.6 603,-513.5 563.8,-466.98 563.47,-427.51 597,-376.75 613.9,-351.17 645.73,-337.72 673.17,-330.67"/>
<polygon fill="blue" stroke="blue" stroke-width="1.5" points="673.83,-334.11 682.79,-328.46 672.26,-327.29 673.83,-334.11"/>
</g>
<!-- UIAgent -->
<g id="node10" class="node">
<title>UIAgent</title>
<polygon fill="#ffe66d" stroke="#fdcb6e" points="676,-268 622,-268 622,-232 676,-232 676,-268"/>
<text text-anchor="middle" x="649" y="-246.12" font-family="Helvetica,sans-Serif" font-size="10.00">UIAgent</text>
</g>
<!-- AirAsFramework&#45;&gt;UIAgent -->
<g id="edge22" class="edge">
<title>AirAsFramework&#45;&gt;UIAgent</title>
<path fill="none" stroke="blue" stroke-width="1.5" d="M1305.16,-609.46C1153.72,-605.66 667.32,-590.94 606,-557.5 506.86,-503.44 535.66,-403.53 589,-304 594.65,-293.45 603.29,-284.01 612.26,-276.11"/>
<polygon fill="blue" stroke="blue" stroke-width="1.5" points="614.34,-278.94 619.87,-269.9 609.91,-273.52 614.34,-278.94"/>
</g>
<!-- UIAssets -->
<g id="node11" class="node">
<title>UIAssets</title>
<polygon fill="#ffe66d" stroke="#fdcb6e" points="751.62,-412.75 694.38,-412.75 694.38,-376.75 751.62,-376.75 751.62,-412.75"/>
<text text-anchor="middle" x="723" y="-390.88" font-family="Helvetica,sans-Serif" font-size="10.00">UIAssets</text>
</g>
<!-- AirAsFramework&#45;&gt;UIAssets -->
<g id="edge21" class="edge">
<title>AirAsFramework&#45;&gt;UIAssets</title>
<path fill="none" stroke="blue" stroke-width="1.5" d="M1305.3,-608.49C1225.1,-603.15 1053.63,-583.73 930,-513.5 887.06,-489.1 888.56,-465.81 846,-440.75 820.15,-425.53 788.28,-414.05 763.46,-406.49"/>
<polygon fill="blue" stroke="blue" stroke-width="1.5" points="764.66,-403.19 754.08,-403.74 762.69,-409.91 764.66,-403.19"/>
</g>
<!-- UIBrowser -->
<g id="node12" class="node">
<title>UIBrowser</title>
<polygon fill="#ffe66d" stroke="#fdcb6e" points="684.25,-484.75 621.75,-484.75 621.75,-448.75 684.25,-448.75 684.25,-484.75"/>
<text text-anchor="middle" x="653" y="-462.88" font-family="Helvetica,sans-Serif" font-size="10.00">UIBrowser</text>
</g>
<!-- AirAsFramework&#45;&gt;UIBrowser -->
<g id="edge19" class="edge">
<title>AirAsFramework&#45;&gt;UIBrowser</title>
<path fill="none" stroke="blue" stroke-width="1.5" d="M1305.43,-608.58C1193.03,-603.35 900.37,-587.21 808,-557.5 762.45,-542.85 715.67,-513.39 685.58,-492.22"/>
<polygon fill="blue" stroke="blue" stroke-width="1.5" points="687.68,-489.41 677.51,-486.43 683.6,-495.1 687.68,-489.41"/>
</g>
<!-- UIDapp -->
<g id="node13" class="node">
<title>UIDapp</title>
<polygon fill="#ffe66d" stroke="#fdcb6e" points="676,-412.75 622,-412.75 622,-376.75 676,-376.75 676,-412.75"/>
<text text-anchor="middle" x="649" y="-390.88" font-family="Helvetica,sans-Serif" font-size="10.00">UIDapp</text>
</g>
<!-- AirAsFramework&#45;&gt;UIDapp -->
<g id="edge23" class="edge">
<title>AirAsFramework&#45;&gt;UIDapp</title>
<path fill="none" stroke="blue" stroke-width="1.5" d="M1305.41,-611.04C1217.68,-610.1 1019.28,-597.97 882,-513.5 842.72,-489.33 847.88,-463.92 808,-440.75 770.61,-419.02 722.12,-407.28 688.57,-401.3"/>
<polygon fill="blue" stroke="blue" stroke-width="1.5" points="689.18,-397.85 678.74,-399.65 688.02,-404.76 689.18,-397.85"/>
</g>
<!-- UIEarn -->
<g id="node14" class="node">
<title>UIEarn</title>
<polygon fill="#ffe66d" stroke="#fdcb6e" points="896,-412.75 842,-412.75 842,-376.75 896,-376.75 896,-412.75"/>
<text text-anchor="middle" x="869" y="-390.88" font-family="Helvetica,sans-Serif" font-size="10.00">UIEarn</text>
</g>
<!-- AirAsFramework&#45;&gt;UIEarn -->
<g id="edge30" class="edge">
<title>AirAsFramework&#45;&gt;UIEarn</title>
<path fill="none" stroke="blue" stroke-width="1.5" d="M1305.18,-602.51C1261.98,-594.04 1195.22,-578.91 1140,-557.5 1047.71,-521.72 950.72,-455.89 901.63,-420.24"/>
<polygon fill="blue" stroke="blue" stroke-width="1.5" points="903.86,-417.54 893.73,-414.45 899.73,-423.19 903.86,-417.54"/>
</g>
<!-- UIInAppBrowser -->
<g id="node15" class="node">
<title>UIInAppBrowser</title>
<polygon fill="#ffe66d" stroke="#fdcb6e" points="790,-484.75 702,-484.75 702,-448.75 790,-448.75 790,-484.75"/>
<text text-anchor="middle" x="746" y="-462.88" font-family="Helvetica,sans-Serif" font-size="10.00">UIInAppBrowser</text>
</g>
<!-- AirAsFramework&#45;&gt;UIInAppBrowser -->
<g id="edge27" class="edge">
<title>AirAsFramework&#45;&gt;UIInAppBrowser</title>
<path fill="none" stroke="blue" stroke-width="1.5" d="M1305.43,-609.31C1198.03,-605.9 927.81,-593.85 846,-557.5 814.2,-543.37 785.51,-515.24 767.1,-494.22"/>
<polygon fill="blue" stroke="blue" stroke-width="1.5" points="770,-492.23 760.86,-486.87 764.66,-496.76 770,-492.23"/>
</g>
<!-- UIQRScan -->
<g id="node16" class="node">
<title>UIQRScan</title>
<polygon fill="#ffe66d" stroke="#fdcb6e" points="758,-268 694,-268 694,-232 758,-232 758,-268"/>
<text text-anchor="middle" x="726" y="-246.12" font-family="Helvetica,sans-Serif" font-size="10.00">UIQRScan</text>
</g>
<!-- AirAsFramework&#45;&gt;UIQRScan -->
<g id="edge34" class="edge">
<title>AirAsFramework&#45;&gt;UIQRScan</title>
<path fill="none" stroke="blue" stroke-width="1.5" d="M1305.2,-609.31C1154.5,-605.05 671.85,-589.04 610,-557.5 509.5,-506.25 522.44,-388.67 597,-304 623.77,-273.6 645.27,-283.3 682.83,-270.56"/>
<polygon fill="blue" stroke="blue" stroke-width="1.5" points="683.67,-273.98 691.74,-267.13 681.15,-267.45 683.67,-273.98"/>
</g>
<!-- UIReceive -->
<g id="node17" class="node">
<title>UIReceive</title>
<polygon fill="#ffe66d" stroke="#fdcb6e" points="838.25,-268 775.75,-268 775.75,-232 838.25,-232 838.25,-268"/>
<text text-anchor="middle" x="807" y="-246.12" font-family="Helvetica,sans-Serif" font-size="10.00">UIReceive</text>
</g>
<!-- AirAsFramework&#45;&gt;UIReceive -->
<g id="edge25" class="edge">
<title>AirAsFramework&#45;&gt;UIReceive</title>
<path fill="none" stroke="blue" stroke-width="1.5" d="M1305.39,-610.5C1202.57,-609.69 941.42,-602.9 729,-557.5 670.99,-545.1 638.76,-560.82 603,-513.5 566.32,-464.96 572.57,-432.46 597,-376.75 632.2,-296.49 683.24,-303.33 764.29,-271.1"/>
<polygon fill="blue" stroke="blue" stroke-width="1.5" points="765.39,-274.44 773.29,-267.38 762.72,-267.97 765.39,-274.44"/>
</g>
<!-- UISend -->
<g id="node18" class="node">
<title>UISend</title>
<polygon fill="#ffe66d" stroke="#fdcb6e" points="968,-412.75 914,-412.75 914,-376.75 968,-376.75 968,-412.75"/>
<text text-anchor="middle" x="941" y="-390.88" font-family="Helvetica,sans-Serif" font-size="10.00">UISend</text>
</g>
<!-- AirAsFramework&#45;&gt;UISend -->
<g id="edge35" class="edge">
<title>AirAsFramework&#45;&gt;UISend</title>
<path fill="none" stroke="blue" stroke-width="1.5" d="M1305.43,-598.18C1274.08,-588.8 1231.55,-574.6 1196,-557.5 1111.71,-516.95 1021.06,-454.36 973.85,-420.15"/>
<polygon fill="blue" stroke="blue" stroke-width="1.5" points="976.15,-417.49 966.01,-414.43 972.03,-423.15 976.15,-417.49"/>
</g>
<!-- UISettings -->
<g id="node19" class="node">
<title>UISettings</title>
<polygon fill="#ffe66d" stroke="#fdcb6e" points="1216.25,-412.75 1153.75,-412.75 1153.75,-376.75 1216.25,-376.75 1216.25,-412.75"/>
<text text-anchor="middle" x="1185" y="-390.88" font-family="Helvetica,sans-Serif" font-size="10.00">UISettings</text>
</g>
<!-- AirAsFramework&#45;&gt;UISettings -->
<g id="edge33" class="edge">
<title>AirAsFramework&#45;&gt;UISettings</title>
<path fill="none" stroke="blue" stroke-width="1.5" d="M1308.81,-593.14C1276.26,-577.24 1232.38,-550.53 1208,-513.5 1190.54,-486.98 1185.72,-450.3 1184.68,-424.95"/>
<polygon fill="blue" stroke="blue" stroke-width="1.5" points="1188.18,-425.04 1184.47,-415.12 1181.18,-425.19 1188.18,-425.04"/>
</g>
<!-- UISwap -->
<g id="node20" class="node">
<title>UISwap</title>
<polygon fill="#ffe66d" stroke="#fdcb6e" points="1136,-412.75 1082,-412.75 1082,-376.75 1136,-376.75 1136,-412.75"/>
<text text-anchor="middle" x="1109" y="-390.88" font-family="Helvetica,sans-Serif" font-size="10.00">UISwap</text>
</g>
<!-- AirAsFramework&#45;&gt;UISwap -->
<g id="edge32" class="edge">
<title>AirAsFramework&#45;&gt;UISwap</title>
<path fill="none" stroke="blue" stroke-width="1.5" d="M1305.35,-594.86C1283.68,-585.96 1258.07,-573.39 1238,-557.5 1189.34,-518.97 1147.6,-458.76 1125.6,-423.69"/>
<polygon fill="blue" stroke="blue" stroke-width="1.5" points="1128.59,-421.86 1120.36,-415.18 1122.63,-425.53 1128.59,-421.86"/>
</g>
<!-- UIToken -->
<g id="node21" class="node">
<title>UIToken</title>
<polygon fill="#ffe66d" stroke="#fdcb6e" points="824,-412.75 770,-412.75 770,-376.75 824,-376.75 824,-412.75"/>
<text text-anchor="middle" x="797" y="-390.88" font-family="Helvetica,sans-Serif" font-size="10.00">UIToken</text>
</g>
<!-- AirAsFramework&#45;&gt;UIToken -->
<g id="edge38" class="edge">
<title>AirAsFramework&#45;&gt;UIToken</title>
<path fill="none" stroke="blue" stroke-width="1.5" d="M1305.24,-601.02C1260.38,-591.23 1189.47,-574.94 1129,-557.5 1070.39,-540.59 1053.95,-539.99 999,-513.5 945.19,-487.56 937.83,-470.43 886,-440.75 869.52,-431.31 850.82,-421.7 834.83,-413.8"/>
<polygon fill="blue" stroke="blue" stroke-width="1.5" points="836.82,-410.87 826.3,-409.62 833.74,-417.16 836.82,-410.87"/>
</g>
<!-- UITransaction -->
<g id="node22" class="node">
<title>UITransaction</title>
<polygon fill="#ffe66d" stroke="#fdcb6e" points="1063.75,-412.75 986.25,-412.75 986.25,-376.75 1063.75,-376.75 1063.75,-412.75"/>
<text text-anchor="middle" x="1025" y="-390.88" font-family="Helvetica,sans-Serif" font-size="10.00">UITransaction</text>
</g>
<!-- AirAsFramework&#45;&gt;UITransaction -->
<g id="edge36" class="edge">
<title>AirAsFramework&#45;&gt;UITransaction</title>
<path fill="none" stroke="blue" stroke-width="1.5" d="M1305.27,-597.88C1258.71,-583.15 1185.4,-555.34 1133,-513.5 1098.75,-486.15 1065.63,-447.7 1045.3,-422.27"/>
<polygon fill="blue" stroke="blue" stroke-width="1.5" points="1048.25,-420.36 1039.31,-414.67 1042.75,-424.69 1048.25,-420.36"/>
</g>
<!-- Ledger -->
<g id="node4" class="node">
<title>Ledger</title>
<polygon fill="#4ecdc4" stroke="#00b894" stroke-width="2" points="1518,-268 1464,-268 1464,-232 1518,-232 1518,-268"/>
<text text-anchor="middle" x="1491" y="-246.12" font-family="Helvetica,sans-Serif" font-size="10.00">Ledger</text>
</g>
<!-- UICreateWallet&#45;&gt;Ledger -->
<g id="edge58" class="edge">
<title>UICreateWallet&#45;&gt;Ledger</title>
<path fill="none" stroke="gray" d="M1400.84,-465.85C1484.35,-465.06 1667.09,-458.06 1706,-412.75 1766.12,-342.75 1605.45,-284.47 1528.93,-261.5"/>
<polygon fill="gray" stroke="gray" points="1530.32,-258.26 1519.73,-258.8 1528.34,-264.98 1530.32,-258.26"/>
</g>
<!-- UICreateWallet&#45;&gt;UIComponents -->
<g id="edge62" class="edge">
<title>UICreateWallet&#45;&gt;UIComponents</title>
<path fill="none" stroke="gray" d="M1400.86,-466.56C1491.19,-467.32 1699.83,-463.42 1744,-412.75 1782.15,-368.99 1818.29,-329.21 1706,-224 1678.22,-197.97 1573.89,-186.56 1509.42,-181.9"/>
<polygon fill="gray" stroke="gray" points="1509.99,-178.43 1499.78,-181.24 1509.51,-185.42 1509.99,-178.43"/>
</g>
<!-- UICreateWallet&#45;&gt;UIPasscode -->
<g id="edge60" class="edge">
<title>UICreateWallet&#45;&gt;UIPasscode</title>
<path fill="none" stroke="gray" d="M1400.68,-455.71C1424.97,-447.83 1454.39,-434.46 1473,-412.75 1487.62,-395.7 1494.03,-370.83 1496.84,-351.6"/>
<polygon fill="gray" stroke="gray" points="1500.31,-352.03 1498.01,-341.69 1493.36,-351.21 1500.31,-352.03"/>
</g>
<!-- UICreateWallet&#45;&gt;WalletContext -->
<g id="edge61" class="edge">
<title>UICreateWallet&#45;&gt;WalletContext</title>
<path fill="none" stroke="gray" d="M1400.78,-464.67C1536.51,-460.83 1959.28,-446.29 2010,-412.75 2070.61,-372.67 2068.61,-338.55 2086,-268 2112.2,-161.75 2018.91,-130.34 1918,-88 1844.46,-57.14 1609.59,-42.38 1505.49,-37.22"/>
<polygon fill="gray" stroke="gray" points="1505.72,-33.73 1495.57,-36.74 1505.39,-40.72 1505.72,-33.73"/>
</g>
<!-- UICreateWallet&#45;&gt;WalletCore -->
<g id="edge63" class="edge">
<title>UICreateWallet&#45;&gt;WalletCore</title>
<path fill="none" stroke="gray" d="M1400.63,-465.07C1531.8,-462.53 1930.33,-451.66 1972,-412.75 2001.51,-385.2 1986,-363.37 1986,-323 1986,-323 1986,-323 1986,-249 1986,-180.46 1922.85,-178.8 1837,-152 1716.05,-114.25 1565.03,-107.61 1491.83,-106.8"/>
<polygon fill="gray" stroke="gray" points="1491.89,-103.3 1481.86,-106.72 1491.83,-110.3 1491.89,-103.3"/>
</g>
<!-- UICreateWallet&#45;&gt;UISettings -->
<g id="edge59" class="edge">
<title>UICreateWallet&#45;&gt;UISettings</title>
<path fill="none" stroke="blue" stroke-width="1.5" d="M1329.35,-448.34C1324.3,-445.65 1319.06,-443.02 1314,-440.75 1286.07,-428.23 1253.51,-416.9 1228.09,-408.73"/>
<polygon fill="blue" stroke="blue" stroke-width="1.5" points="1229.36,-405.46 1218.77,-405.79 1227.25,-412.14 1229.36,-405.46"/>
</g>
<!-- UIHome&#45;&gt;UIComponents -->
<g id="edge71" class="edge">
<title>UIHome&#45;&gt;UIComponents</title>
<path fill="none" stroke="gray" d="M1349.2,-521.35C1369.76,-498.51 1404.64,-455.93 1422,-412.75 1450.11,-342.83 1455.9,-252.92 1456.93,-207.7"/>
<polygon fill="gray" stroke="gray" points="1460.43,-208 1457.08,-197.95 1453.43,-207.89 1460.43,-208"/>
</g>
<!-- UIHome&#45;&gt;WalletContext -->
<g id="edge67" class="edge">
<title>UIHome&#45;&gt;WalletContext</title>
<path fill="none" stroke="gray" d="M1360.36,-538.44C1492.1,-538.03 2055.96,-535.02 2086,-513.5 2157.34,-462.39 2138,-410.76 2138,-323 2138,-323 2138,-323 2138,-177 2138,-47.77 1663.36,-35.32 1505.42,-34.75"/>
<polygon fill="gray" stroke="gray" points="1505.69,-31.25 1495.69,-34.73 1505.68,-38.25 1505.69,-31.25"/>
</g>
<!-- UIHome&#45;&gt;WalletCore -->
<g id="edge73" class="edge">
<title>UIHome&#45;&gt;WalletCore</title>
<path fill="none" stroke="gray" d="M1360.42,-538.59C1488.62,-538.9 2023.71,-538.66 2048,-513.5 2137.38,-420.94 2114.2,-334.33 2048,-224 2013.01,-165.69 1978.1,-171.65 1913,-152 1834.84,-128.4 1592.05,-114.09 1491.89,-109.05"/>
<polygon fill="gray" stroke="gray" points="1492.07,-105.56 1481.91,-108.56 1491.73,-112.55 1492.07,-105.56"/>
</g>
<!-- UIHome&#45;&gt;UIActivityList -->
<g id="edge64" class="edge">
<title>UIHome&#45;&gt;UIActivityList</title>
<path fill="none" stroke="blue" stroke-width="1.5" d="M1305.56,-522.59C1304.38,-522.18 1303.19,-521.81 1302,-521.5 1269.28,-512.89 723.37,-528.41 693,-513.5 629.79,-482.47 575.71,-436.48 613,-376.75 626.32,-355.41 650.84,-342.31 673.36,-334.4"/>
<polygon fill="blue" stroke="blue" stroke-width="1.5" points="674.26,-337.78 682.71,-331.41 672.12,-331.12 674.26,-337.78"/>
</g>
<!-- UIHome&#45;&gt;UIAgent -->
<g id="edge70" class="edge">
<title>UIHome&#45;&gt;UIAgent</title>
<path fill="none" stroke="blue" stroke-width="1.5" d="M1305.57,-522.59C1304.38,-522.18 1303.19,-521.81 1302,-521.5 1283.49,-516.64 627.48,-526.01 613,-513.5 545.1,-454.85 601.57,-333.17 632.31,-278.57"/>
<polygon fill="blue" stroke="blue" stroke-width="1.5" points="635.14,-280.66 637.11,-270.25 629.08,-277.16 635.14,-280.66"/>
</g>
<!-- UIHome&#45;&gt;UIAssets -->
<g id="edge69" class="edge">
<title>UIHome&#45;&gt;UIAssets</title>
<path fill="none" stroke="blue" stroke-width="1.5" d="M1305.55,-522.66C1304.37,-522.23 1303.18,-521.84 1302,-521.5 1240.37,-503.88 1218.85,-533.66 1158,-513.5 1102.36,-495.07 1102.92,-461.23 1048,-440.75 957.71,-407.08 928.4,-426.33 833,-412.75 810.08,-409.49 784.52,-405.55 763.81,-402.29"/>
<polygon fill="blue" stroke="blue" stroke-width="1.5" points="764.59,-398.87 754.16,-400.77 763.49,-405.79 764.59,-398.87"/>
</g>
<!-- UIHome&#45;&gt;UIBrowser -->
<g id="edge65" class="edge">
<title>UIHome&#45;&gt;UIBrowser</title>
<path fill="none" stroke="blue" stroke-width="1.5" d="M1305.56,-522.62C1304.37,-522.2 1303.18,-521.82 1302,-521.5 1274.76,-514.06 1076.16,-515.57 1048,-513.5 919.78,-504.07 769.08,-484.15 696.46,-473.99"/>
<polygon fill="blue" stroke="blue" stroke-width="1.5" points="697.3,-470.58 686.91,-472.65 696.32,-477.51 697.3,-470.58"/>
</g>
<!-- UIHome&#45;&gt;UIEarn -->
<g id="edge72" class="edge">
<title>UIHome&#45;&gt;UIEarn</title>
<path fill="none" stroke="blue" stroke-width="1.5" d="M1305.76,-523.17C1304.5,-522.59 1303.24,-522.03 1302,-521.5 1290.86,-516.79 1286.97,-518.58 1276,-513.5 1221.45,-488.27 1218.27,-461.87 1162,-440.75 1084.15,-411.52 1059.19,-425.44 977,-412.75 954.16,-409.22 928.63,-405.21 908.12,-401.96"/>
<polygon fill="blue" stroke="blue" stroke-width="1.5" points="908.73,-398.52 898.31,-400.41 907.64,-405.43 908.73,-398.52"/>
</g>
<!-- UIHome&#45;&gt;UISettings -->
<g id="edge68" class="edge">
<title>UIHome&#45;&gt;UISettings</title>
<path fill="none" stroke="blue" stroke-width="1.5" d="M1305.76,-523.17C1304.5,-522.59 1303.24,-522.03 1302,-521.5 1290.86,-516.79 1285.94,-520.38 1276,-513.5 1242.17,-490.08 1215.22,-450.23 1199.67,-423.46"/>
<polygon fill="blue" stroke="blue" stroke-width="1.5" points="1202.79,-421.85 1194.84,-414.85 1196.68,-425.28 1202.79,-421.85"/>
</g>
<!-- WReachability -->
<g id="node24" class="node">
<title>WReachability</title>
<polygon fill="#a8e6cf" stroke="#00b894" points="149.88,-340 70.12,-340 70.12,-304 149.88,-304 149.88,-340"/>
<text text-anchor="middle" x="110" y="-318.12" font-family="Helvetica,sans-Serif" font-size="10.00">WReachability</text>
</g>
<!-- UIHome&#45;&gt;WReachability -->
<g id="edge66" class="edge">
<title>UIHome&#45;&gt;WReachability</title>
<path fill="none" stroke="black" d="M1305.57,-522.59C1304.38,-522.18 1303.19,-521.81 1302,-521.5 1257.06,-509.76 510.52,-526.73 466,-513.5 408.38,-496.38 404.44,-470.11 352,-440.75 287.05,-404.38 209.22,-367.68 159.69,-345.14"/>
<polygon fill="black" stroke="black" points="161.2,-341.98 150.64,-341.04 158.31,-348.35 161.2,-341.98"/>
</g>
<!-- Ledger&#45;&gt;UIComponents -->
<g id="edge8" class="edge">
<title>Ledger&#45;&gt;UIComponents</title>
<path fill="none" stroke="gray" d="M1482.6,-231.7C1478.89,-224.07 1474.44,-214.92 1470.31,-206.4"/>
<polygon fill="gray" stroke="gray" points="1473.49,-204.93 1465.97,-197.47 1467.19,-207.99 1473.49,-204.93"/>
</g>
<!-- Ledger&#45;&gt;WalletContext -->
<g id="edge9" class="edge">
<title>Ledger&#45;&gt;WalletContext</title>
<path fill="none" stroke="gray" d="M1501.2,-231.5C1506.46,-221.47 1512.31,-208.44 1515,-196 1519.13,-176.88 1517.81,-171.35 1515,-152 1510.73,-122.64 1509.53,-114.41 1496,-88 1491.14,-78.52 1484.52,-69.04 1478.01,-60.78"/>
<polygon fill="gray" stroke="gray" points="1480.83,-58.7 1471.77,-53.2 1475.42,-63.14 1480.83,-58.7"/>
</g>
<!-- Ledger&#45;&gt;WalletCore -->
<g id="edge10" class="edge">
<title>Ledger&#45;&gt;WalletCore</title>
<path fill="none" stroke="gray" d="M1499.88,-231.6C1508.85,-211.44 1519.72,-177.7 1507,-152 1502.85,-143.62 1496.31,-136.37 1489.07,-130.29"/>
<polygon fill="gray" stroke="gray" points="1491.64,-127.85 1481.55,-124.6 1487.42,-133.43 1491.64,-127.85"/>
</g>
<!-- UIComponents&#45;&gt;WalletContext -->
<g id="edge74" class="edge">
<title>UIComponents&#45;&gt;WalletContext</title>
<path fill="none" stroke="gray" d="M1470.56,-159.97C1477.56,-150.09 1485.37,-137.05 1489,-124 1493.29,-108.59 1493.5,-103.35 1489,-88 1486.29,-78.75 1481.41,-69.59 1476.18,-61.55"/>
<polygon fill="gray" stroke="gray" points="1479.23,-59.79 1470.62,-53.61 1473.49,-63.8 1479.23,-59.79"/>
</g>
<!-- UIComponents&#45;&gt;WalletCore -->
<g id="edge75" class="edge">
<title>UIComponents&#45;&gt;WalletCore</title>
<path fill="none" stroke="gray" d="M1454.78,-159.7C1453.83,-152.32 1452.7,-143.52 1451.63,-135.25"/>
<polygon fill="gray" stroke="gray" points="1455.14,-135.08 1450.39,-125.61 1448.2,-135.97 1455.14,-135.08"/>
</g>
<!-- UIPasscode&#45;&gt;Ledger -->
<g id="edge85" class="edge">
<title>UIPasscode&#45;&gt;Ledger</title>
<path fill="none" stroke="gray" d="M1497.02,-303.7C1496.19,-296.41 1495.2,-287.73 1494.26,-279.54"/>
<polygon fill="gray" stroke="gray" points="1497.74,-279.15 1493.13,-269.61 1490.78,-279.94 1497.74,-279.15"/>
</g>
<!-- UIPasscode&#45;&gt;UIComponents -->
<g id="edge82" class="edge">
<title>UIPasscode&#45;&gt;UIComponents</title>
<path fill="none" stroke="gray" d="M1513.24,-303.71C1527.91,-283.65 1546.72,-250.01 1532,-224 1526.39,-214.09 1517.63,-206.12 1508.05,-199.81"/>
<polygon fill="gray" stroke="gray" points="1509.97,-196.88 1499.58,-194.81 1506.41,-202.91 1509.97,-196.88"/>
</g>
<!-- UIPasscode&#45;&gt;WalletContext -->
<g id="edge84" class="edge">
<title>UIPasscode&#45;&gt;WalletContext</title>
<path fill="none" stroke="gray" d="M1534.36,-304.62C1548.8,-295.94 1563.96,-283.77 1572,-268 1580.88,-250.58 1576.27,-243.08 1572,-224 1557.43,-158.81 1546.41,-142.65 1508,-88 1501.1,-78.18 1492.29,-68.55 1483.84,-60.26"/>
<polygon fill="gray" stroke="gray" points="1486.36,-57.83 1476.7,-53.49 1481.55,-62.91 1486.36,-57.83"/>
</g>
<!-- UIPasscode&#45;&gt;WalletCore -->
<g id="edge83" class="edge">
<title>UIPasscode&#45;&gt;WalletCore</title>
<path fill="none" stroke="gray" d="M1523.75,-303.53C1534.6,-294.35 1546.17,-282.07 1552,-268 1559.48,-249.93 1556.6,-243.01 1552,-224 1543.54,-189.03 1538.91,-178.88 1515,-152 1507.74,-143.84 1498.69,-136.48 1489.62,-130.19"/>
<polygon fill="gray" stroke="gray" points="1491.77,-127.41 1481.49,-124.86 1487.93,-133.27 1491.77,-127.41"/>
</g>
<!-- WalletCore&#45;&gt;WalletContext -->
<g id="edge43" class="edge">
<title>WalletCore&#45;&gt;WalletContext</title>
<path fill="none" stroke="gray" d="M1449.73,-87.7C1450.46,-80.41 1451.33,-71.73 1452.15,-63.54"/>
<polygon fill="gray" stroke="gray" points="1455.63,-63.91 1453.14,-53.61 1448.66,-63.21 1455.63,-63.91"/>
</g>
<!-- UIActivityList&#45;&gt;UIComponents -->
<g id="edge1" class="edge">
<title>UIActivityList&#45;&gt;UIComponents</title>
<path fill="none" stroke="gray" d="M761.1,-316.41C809.86,-309.71 896.35,-295 966,-268 1002.39,-253.89 1004.91,-236.14 1042,-224 1108.03,-202.38 1307.98,-187.9 1404.18,-182"/>
<polygon fill="gray" stroke="gray" points="1404.38,-185.49 1414.15,-181.39 1403.96,-178.5 1404.38,-185.49"/>
</g>
<!-- UIActivityList&#45;&gt;WalletContext -->
<g id="edge2" class="edge">
<title>UIActivityList&#45;&gt;WalletContext</title>
<path fill="none" stroke="gray" d="M706.76,-303.85C698.63,-294.12 689.57,-281.27 685,-268 668.2,-219.24 662.08,-199.57 682,-152 697.66,-114.6 710.08,-104.76 747,-88 864.49,-34.66 1263.35,-33.12 1404.77,-34.33"/>
<polygon fill="gray" stroke="gray" points="1404.53,-37.82 1414.56,-34.42 1404.6,-30.82 1404.53,-37.82"/>
</g>
<!-- UIActivityList&#45;&gt;WalletCore -->
<g id="edge3" class="edge">
<title>UIActivityList&#45;&gt;WalletCore</title>
<path fill="none" stroke="gray" d="M760.97,-313.99C789.47,-306.9 827.61,-293.25 852,-268 890.2,-228.45 851.18,-185.21 895,-152 935.25,-121.49 1280.73,-110.77 1404.29,-107.89"/>
<polygon fill="gray" stroke="gray" points="1404.1,-111.39 1414.02,-107.67 1403.94,-104.4 1404.1,-111.39"/>
</g>
<!-- UIAgent&#45;&gt;UIComponents -->
<g id="edge5" class="edge">
<title>UIAgent&#45;&gt;UIComponents</title>
<path fill="none" stroke="gray" d="M676.46,-242.01C700.25,-236.24 735.68,-228.32 767,-224 1003.27,-191.44 1288.4,-182.31 1404.24,-179.86"/>
<polygon fill="gray" stroke="gray" points="1404.13,-183.36 1414.06,-179.66 1403.99,-176.37 1404.13,-183.36"/>
</g>
<!-- UIAgent&#45;&gt;WalletContext -->
<g id="edge6" class="edge">
<title>UIAgent&#45;&gt;WalletContext</title>
<path fill="none" stroke="gray" d="M659.49,-231.72C681.5,-197.25 736.2,-120.5 805,-88 910.96,-37.95 1270.56,-34.19 1404.33,-34.58"/>
<polygon fill="gray" stroke="gray" points="1404.28,-38.08 1414.29,-34.62 1404.31,-31.08 1404.28,-38.08"/>
</g>
<!-- UIAgent&#45;&gt;WalletCore -->
<g id="edge7" class="edge">
<title>UIAgent&#45;&gt;WalletCore</title>
<path fill="none" stroke="gray" d="M662.71,-231.54C681.89,-208.59 719.12,-169.19 761,-152 820.29,-127.66 1262.42,-112.52 1404.31,-108.25"/>
<polygon fill="gray" stroke="gray" points="1404.14,-111.75 1414.03,-107.96 1403.93,-104.76 1404.14,-111.75"/>
</g>
<!-- MyAgent -->
<g id="node23" class="node">
<title>MyAgent</title>
<polygon fill="#a8e6cf" stroke="#00b894" points="149.5,-196 94.5,-196 94.5,-160 149.5,-160 149.5,-196"/>
<text text-anchor="middle" x="122" y="-174.12" font-family="Helvetica,sans-Serif" font-size="10.00">MyAgent</text>
</g>
<!-- UIAgent&#45;&gt;MyAgent -->
<g id="edge4" class="edge">
<title>UIAgent&#45;&gt;MyAgent</title>
<path fill="none" stroke="black" d="M631.13,-231.71C627.09,-228.66 622.61,-225.87 618,-224 535.22,-190.5 263.08,-181.76 161.07,-179.64"/>
<polygon fill="black" stroke="black" points="161.36,-176.14 151.29,-179.45 161.22,-183.14 161.36,-176.14"/>
</g>
<!-- UIAssets&#45;&gt;UIComponents -->
<g id="edge17" class="edge">
<title>UIAssets&#45;&gt;UIComponents</title>
<path fill="none" stroke="gray" d="M751.88,-388.81C774.03,-385.13 805.39,-380.18 833,-376.75 870.66,-372.07 883.05,-383.52 918,-368.75 958.88,-351.48 956.19,-327.23 994,-304 1029.3,-282.31 1043.1,-286.86 1080,-268 1113.39,-250.93 1116.74,-236.77 1152,-224 1236.75,-193.3 1341.97,-183.52 1404.07,-180.42"/>
<polygon fill="gray" stroke="gray" points="1404.18,-183.92 1414.01,-179.97 1403.86,-176.92 1404.18,-183.92"/>
</g>
<!-- UIAssets&#45;&gt;UIPasscode -->
<g id="edge16" class="edge">
<title>UIAssets&#45;&gt;UIPasscode</title>
<path fill="none" stroke="gray" d="M751.82,-388.22C773.94,-384.24 805.28,-379.16 833,-376.75 1007.93,-361.53 1053.18,-385.19 1228,-368.75 1307.44,-361.28 1398.74,-344.05 1452.5,-332.99"/>
<polygon fill="gray" stroke="gray" points="1453.15,-336.43 1462.23,-330.97 1451.72,-329.58 1453.15,-336.43"/>
</g>
<!-- UIAssets&#45;&gt;WalletContext -->
<g id="edge15" class="edge">
<title>UIAssets&#45;&gt;WalletContext</title>
<path fill="none" stroke="gray" d="M694.11,-378.05C692.74,-377.57 691.37,-377.13 690,-376.75 676.69,-373.07 575.67,-378.6 566,-368.75 477.93,-279.07 491.3,-151.1 600,-88 669.55,-47.63 1231.85,-37.64 1404.66,-35.52"/>
<polygon fill="gray" stroke="gray" points="1404.48,-39.02 1414.43,-35.4 1404.39,-32.02 1404.48,-39.02"/>
</g>
<!-- UIAssets&#45;&gt;WalletCore -->
<g id="edge18" class="edge">
<title>UIAssets&#45;&gt;WalletCore</title>
<path fill="none" stroke="gray" d="M752.07,-392.44C777.26,-390.22 813.95,-384.33 842,-368.75 876.83,-349.4 871.92,-327.62 904,-304 1025.96,-214.19 1065.43,-200.25 1209,-152 1275.18,-129.76 1355.59,-117.47 1404.23,-111.56"/>
<polygon fill="gray" stroke="gray" points="1404.56,-115.05 1414.08,-110.41 1403.74,-108.1 1404.56,-115.05"/>
</g>
<!-- UIAssets&#45;&gt;UIActivityList -->
<g id="edge14" class="edge">
<title>UIAssets&#45;&gt;UIActivityList</title>
<path fill="none" stroke="blue" stroke-width="1.5" d="M723,-376.26C723,-369.06 723,-360.53 723,-352.42"/>
<polygon fill="blue" stroke="blue" stroke-width="1.5" points="726.5,-352.56 723,-342.56 719.5,-352.56 726.5,-352.56"/>
</g>
<!-- UIBrowser&#45;&gt;UIComponents -->
<g id="edge105" class="edge">
<title>UIBrowser&#45;&gt;UIComponents</title>
<path fill="none" stroke="gray" d="M684.63,-464.87C808.25,-461.21 1254.58,-445.8 1308,-412.75 1328.83,-399.86 1408.12,-244.19 1422,-224 1426.37,-217.64 1431.32,-210.99 1436.1,-204.8"/>
<polygon fill="gray" stroke="gray" points="1438.52,-207.38 1441.95,-197.36 1433.02,-203.06 1438.52,-207.38"/>
</g>
<!-- UIBrowser&#45;&gt;WalletContext -->
<g id="edge104" class="edge">
<title>UIBrowser&#45;&gt;WalletContext</title>
<path fill="none" stroke="gray" d="M632.6,-448.35C628.05,-445.31 623.07,-442.55 618,-440.75 521.47,-406.55 258.54,-432.22 158,-412.75 78.71,-397.4 0,-403.76 0,-323 0,-323 0,-323 0,-177 0,-148.31 35.97,-114.15 110,-88 233.65,-44.32 1174.57,-36.49 1404.45,-35.23"/>
<polygon fill="gray" stroke="gray" points="1404.29,-38.73 1414.28,-35.17 1404.26,-31.73 1404.29,-38.73"/>
</g>
<!-- UIBrowser&#45;&gt;WalletCore -->
<g id="edge107" class="edge">
<title>UIBrowser&#45;&gt;WalletCore</title>
<path fill="none" stroke="gray" d="M635.27,-448.35C626.76,-438.75 617.47,-426.09 613,-412.75 586.35,-333.21 578.63,-300.53 613,-224 632.73,-180.06 649.51,-170.45 694,-152 759.53,-124.82 1253,-111.44 1404.14,-107.95"/>
<polygon fill="gray" stroke="gray" points="1404.22,-111.45 1414.14,-107.72 1404.06,-104.45 1404.22,-111.45"/>
</g>
<!-- UIBrowser&#45;&gt;UIDapp -->
<g id="edge106" class="edge">
<title>UIBrowser&#45;&gt;UIDapp</title>
<path fill="none" stroke="blue" stroke-width="1.5" d="M652.01,-448.45C651.6,-441.33 651.12,-432.88 650.66,-424.86"/>
<polygon fill="blue" stroke="blue" stroke-width="1.5" points="654.17,-424.9 650.11,-415.12 647.18,-425.3 654.17,-424.9"/>
</g>
<!-- UIBrowser&#45;&gt;WReachability -->
<g id="edge103" class="edge">
<title>UIBrowser&#45;&gt;WReachability</title>
<path fill="none" stroke="black" d="M630.13,-448.33C626.18,-445.64 622.04,-443.01 618,-440.75 554.01,-405.01 537.56,-392.63 466,-376.75 375.25,-356.61 348.62,-384.48 257,-368.75 224.33,-363.14 188.8,-352.23 160.87,-342.47"/>
<polygon fill="black" stroke="black" points="162.19,-339.22 151.59,-339.16 159.84,-345.82 162.19,-339.22"/>
</g>
<!-- UIDapp&#45;&gt;Ledger -->
<g id="edge77" class="edge">
<title>UIDapp&#45;&gt;Ledger</title>
<path fill="none" stroke="gray" d="M676.06,-388.87C698.69,-384.97 731.84,-379.7 761,-376.75 830.51,-369.72 848.72,-377.83 918,-368.75 1054.97,-350.79 1086.09,-328.73 1222,-304 1323.55,-285.52 1356.35,-301.07 1452.71,-270.26"/>
<polygon fill="gray" stroke="gray" points="1453.66,-273.63 1462.07,-267.18 1451.47,-266.98 1453.66,-273.63"/>
</g>
<!-- UIDapp&#45;&gt;UIComponents -->
<g id="edge80" class="edge">
<title>UIDapp&#45;&gt;UIComponents</title>
<path fill="none" stroke="gray" d="M676.1,-389.23C698.75,-385.55 731.92,-380.39 761,-376.75 796.89,-372.26 808.71,-382.91 842,-368.75 882.84,-351.39 878.93,-325.04 918,-304 968.52,-276.79 989.5,-291.17 1042,-268 1076.31,-252.86 1078.64,-236.49 1114,-224 1212.5,-189.21 1335.49,-180.92 1404.23,-179.18"/>
<polygon fill="gray" stroke="gray" points="1404.16,-182.69 1414.08,-178.98 1404.01,-175.69 1404.16,-182.69"/>
</g>
<!-- UIDapp&#45;&gt;UIPasscode -->
<g id="edge78" class="edge">
<title>UIDapp&#45;&gt;UIPasscode</title>
<path fill="none" stroke="gray" d="M676.49,-388.53C699.09,-384.49 731.99,-379.19 761,-376.75 967.86,-359.36 1021.3,-387.86 1228,-368.75 1307.45,-361.4 1398.74,-344.13 1452.5,-333.04"/>
<polygon fill="gray" stroke="gray" points="1453.15,-336.48 1462.23,-331.01 1451.73,-329.63 1453.15,-336.48"/>
</g>
<!-- UIDapp&#45;&gt;WalletContext -->
<g id="edge79" class="edge">
<title>UIDapp&#45;&gt;WalletContext</title>
<path fill="none" stroke="gray" d="M621.54,-377.94C620.36,-377.5 619.18,-377.1 618,-376.75 596.86,-370.41 535.12,-383.82 519,-368.75 427.3,-283.01 442.03,-152.04 550,-88 623.56,-44.37 1224.66,-36.62 1404.41,-35.28"/>
<polygon fill="gray" stroke="gray" points="1404.39,-38.78 1414.37,-35.21 1404.34,-31.78 1404.39,-38.78"/>
</g>
<!-- UIDapp&#45;&gt;WalletCore -->
<g id="edge81" class="edge">
<title>UIDapp&#45;&gt;WalletCore</title>
<path fill="none" stroke="gray" d="M676.29,-392.2C701.74,-389.83 740.14,-383.85 770,-368.75 808.41,-349.33 807.68,-329.96 842,-304 892.5,-265.8 1023.36,-173.28 1083,-152 1193.85,-112.45 1334.31,-106.53 1404.27,-106.31"/>
<polygon fill="gray" stroke="gray" points="1404.16,-109.81 1414.16,-106.32 1404.17,-102.81 1404.16,-109.81"/>
</g>
<!-- UIDapp&#45;&gt;UIActivityList -->
<g id="edge76" class="edge">
<title>UIDapp&#45;&gt;UIActivityList</title>
<path fill="none" stroke="blue" stroke-width="1.5" d="M667.29,-376.26C675.98,-367.95 686.55,-357.85 696.13,-348.69"/>
<polygon fill="blue" stroke="blue" stroke-width="1.5" points="698.47,-351.3 703.28,-341.86 693.63,-346.24 698.47,-351.3"/>
</g>
<!-- UIEarn&#45;&gt;Ledger -->
<g id="edge95" class="edge">
<title>UIEarn&#45;&gt;Ledger</title>
<path fill="none" stroke="gray" d="M896.4,-388.48C918.16,-384.52 949.41,-379.36 977,-376.75 990.56,-375.47 1210.29,-375.71 1222,-368.75 1250.68,-351.7 1232.63,-323.09 1260,-304 1331.04,-254.45 1371.45,-294.52 1453.13,-270.03"/>
<polygon fill="gray" stroke="gray" points="1453.99,-273.43 1462.4,-266.99 1451.81,-266.77 1453.99,-273.43"/>
</g>
<!-- UIEarn&#45;&gt;UIComponents -->
<g id="edge98" class="edge">
<title>UIEarn&#45;&gt;UIComponents</title>
<path fill="none" stroke="gray" d="M896.06,-389.4C917.9,-385.91 949.41,-380.93 977,-376.75 1001.42,-373.05 1011.51,-382.54 1032,-368.75 1059.68,-350.12 1044.88,-325.96 1070,-304 1101.2,-276.73 1119.1,-286.86 1156,-268 1189.39,-250.93 1193.05,-237.61 1228,-224 1286.08,-201.39 1357.04,-189.7 1404.43,-183.98"/>
<polygon fill="gray" stroke="gray" points="1404.62,-187.48 1414.15,-182.85 1403.81,-180.53 1404.62,-187.48"/>
</g>
<!-- UIEarn&#45;&gt;UIPasscode -->
<g id="edge96" class="edge">
<title>UIEarn&#45;&gt;UIPasscode</title>
<path fill="none" stroke="gray" d="M896.4,-388.44C918.16,-384.47 949.41,-379.3 977,-376.75 1102.29,-365.17 1134.91,-382.4 1260,-368.75 1327.65,-361.37 1404.8,-345.16 1452.7,-334.16"/>
<polygon fill="gray" stroke="gray" points="1453.21,-337.63 1462.16,-331.96 1451.63,-330.81 1453.21,-337.63"/>
</g>
<!-- UIEarn&#45;&gt;WalletContext -->
<g id="edge97" class="edge">
<title>UIEarn&#45;&gt;WalletContext</title>
<path fill="none" stroke="gray" d="M841.56,-377.88C840.37,-377.45 839.18,-377.08 838,-376.75 825.94,-373.43 621.84,-377.6 613,-368.75 524.12,-279.8 539.72,-151.93 648,-88 712.98,-49.64 1237.86,-38.33 1404.45,-35.69"/>
<polygon fill="gray" stroke="gray" points="1404.36,-39.19 1414.3,-35.54 1404.25,-32.19 1404.36,-39.19"/>
</g>
<!-- UIEarn&#45;&gt;WalletCore -->
<g id="edge99" class="edge">
<title>UIEarn&#45;&gt;WalletCore</title>
<path fill="none" stroke="gray" d="M894.72,-376.35C943.49,-343.82 1053.35,-272.67 1152,-224 1239.29,-180.93 1346.6,-141.74 1405.05,-121.48"/>
<polygon fill="gray" stroke="gray" points="1405.97,-124.86 1414.29,-118.29 1403.69,-118.24 1405.97,-124.86"/>
</g>
<!-- UIInAppBrowser&#45;&gt;UIComponents -->
<g id="edge39" class="edge">
<title>UIInAppBrowser&#45;&gt;UIComponents</title>
<path fill="none" stroke="gray" d="M790.27,-464.09C920.93,-458.87 1298.8,-441.43 1346,-412.75 1383.8,-389.78 1429.13,-263.82 1448.04,-206.92"/>
<polygon fill="gray" stroke="gray" points="1451.29,-208.23 1451.08,-197.64 1444.64,-206.05 1451.29,-208.23"/>
</g>
<!-- UIInAppBrowser&#45;&gt;WalletContext -->
<g id="edge41" class="edge">
<title>UIInAppBrowser&#45;&gt;WalletContext</title>
<path fill="none" stroke="gray" d="M716.5,-448.28C710.54,-445.36 704.19,-442.66 698,-440.75 468.77,-369.96 400.82,-399.68 162,-376.75 149.8,-375.58 60.86,-377.21 52,-368.75 13.89,-332.35 38,-303.7 38,-251 38,-251 38,-251 38,-177 38,-36.68 1152.36,-33.56 1404.64,-34.65"/>
<polygon fill="gray" stroke="gray" points="1404.46,-38.15 1414.48,-34.7 1404.5,-31.15 1404.46,-38.15"/>
</g>
<!-- UIInAppBrowser&#45;&gt;WalletCore -->
<g id="edge42" class="edge">
<title>UIInAppBrowser&#45;&gt;WalletCore</title>
<path fill="none" stroke="gray" d="M720.58,-448.43C649.61,-398.1 460.45,-249.32 553,-152 582.62,-120.85 1228.37,-109.94 1404.16,-107.55"/>
<polygon fill="gray" stroke="gray" points="1404.05,-111.05 1414,-107.41 1403.96,-104.05 1404.05,-111.05"/>
</g>
<!-- UIInAppBrowser&#45;&gt;UIDapp -->
<g id="edge40" class="edge">
<title>UIInAppBrowser&#45;&gt;UIDapp</title>
<path fill="none" stroke="blue" stroke-width="1.5" d="M722.02,-448.45C710.25,-439.95 695.85,-429.56 682.97,-420.26"/>
<polygon fill="blue" stroke="blue" stroke-width="1.5" points="685.04,-417.44 674.88,-414.43 680.94,-423.12 685.04,-417.44"/>
</g>
<!-- UIQRScan&#45;&gt;UIComponents -->
<g id="edge11" class="edge">
<title>UIQRScan&#45;&gt;UIComponents</title>
<path fill="none" stroke="gray" d="M758.21,-245.52C804.26,-240.57 891.58,-231.29 966,-224 1125.56,-208.38 1314.45,-191.53 1404.36,-183.61"/>
<polygon fill="gray" stroke="gray" points="1404.44,-187.12 1414.09,-182.75 1403.82,-180.14 1404.44,-187.12"/>
</g>
<!-- UIQRScan&#45;&gt;WalletContext -->
<g id="edge12" class="edge">
<title>UIQRScan&#45;&gt;WalletContext</title>
<path fill="none" stroke="gray" d="M733.77,-231.75C750.5,-196.99 793.63,-119.18 857,-88 952.9,-40.82 1278.97,-35.22 1404.85,-34.86"/>
<polygon fill="gray" stroke="gray" points="1404.53,-38.36 1414.53,-34.84 1404.52,-31.36 1404.53,-38.36"/>
</g>
<!-- UIQRScan&#45;&gt;WalletCore -->
<g id="edge13" class="edge">
<title>UIQRScan&#45;&gt;WalletCore</title>
<path fill="none" stroke="gray" d="M736.68,-231.61C751.81,-208.75 781.83,-169.45 819,-152 871.67,-127.27 1270.61,-112.58 1404.41,-108.31"/>
<polygon fill="gray" stroke="gray" points="1404.38,-111.81 1414.27,-108 1404.16,-104.82 1404.38,-111.81"/>
</g>
<!-- UIReceive&#45;&gt;UIComponents -->
<g id="edge100" class="edge">
<title>UIReceive&#45;&gt;UIComponents</title>
<path fill="none" stroke="gray" d="M838.59,-243.42C870.61,-237.9 921.63,-229.52 966,-224 1125.1,-204.22 1314.21,-189.3 1404.26,-182.71"/>
<polygon fill="gray" stroke="gray" points="1404.29,-186.22 1414.01,-182 1403.78,-179.24 1404.29,-186.22"/>
</g>
<!-- UIReceive&#45;&gt;WalletContext -->
<g id="edge101" class="edge">
<title>UIReceive&#45;&gt;WalletContext</title>
<path fill="none" stroke="gray" d="M803.62,-231.76C800.46,-210.15 798.86,-173.36 819,-152 899.07,-67.07 1268.68,-42.92 1404.64,-36.84"/>
<polygon fill="gray" stroke="gray" points="1404.56,-40.35 1414.4,-36.42 1404.26,-33.36 1404.56,-40.35"/>
</g>
<!-- UIReceive&#45;&gt;WalletCore -->
<g id="edge102" class="edge">
<title>UIReceive&#45;&gt;WalletCore</title>
<path fill="none" stroke="gray" d="M810.55,-231.51C816.15,-208.92 829.37,-170.32 857,-152 902.33,-121.95 1275.81,-110.84 1404.56,-107.89"/>
<polygon fill="gray" stroke="gray" points="1404.46,-111.39 1414.38,-107.67 1404.3,-104.39 1404.46,-111.39"/>
</g>
<!-- UISend&#45;&gt;Ledger -->
<g id="edge48" class="edge">
<title>UISend&#45;&gt;Ledger</title>
<path fill="none" stroke="gray" d="M968.48,-389.52C995.13,-385.57 1036.74,-379.85 1073,-376.75 1114.44,-373.2 1219.75,-379.23 1260,-368.75 1334.77,-349.28 1413.11,-302.99 1456.63,-274.6"/>
<polygon fill="gray" stroke="gray" points="1458.47,-277.57 1464.88,-269.14 1454.61,-271.73 1458.47,-277.57"/>
</g>
<!-- UISend&#45;&gt;UIComponents -->
<g id="edge51" class="edge">
<title>UISend&#45;&gt;UIComponents</title>
<path fill="none" stroke="gray" d="M968.38,-391.1C1001.26,-387.47 1053.98,-380.08 1070,-368.75 1097.24,-349.48 1082.88,-325.96 1108,-304 1139.2,-276.73 1156.99,-286.63 1194,-268 1228.18,-250.79 1232.54,-238.37 1268,-224 1312.53,-205.95 1366.01,-194.06 1404.71,-187.05"/>
<polygon fill="gray" stroke="gray" points="1404.98,-190.56 1414.22,-185.38 1403.77,-183.67 1404.98,-190.56"/>
</g>
<!-- UISend&#45;&gt;UIPasscode -->
<g id="edge49" class="edge">
<title>UISend&#45;&gt;UIPasscode</title>
<path fill="none" stroke="gray" d="M968.48,-389.46C995.13,-385.47 1036.73,-379.72 1073,-376.75 1172.73,-368.57 1198.78,-381.69 1298,-368.75 1351.85,-361.73 1412.48,-346.96 1452.93,-336.09"/>
<polygon fill="gray" stroke="gray" points="1453.59,-339.54 1462.32,-333.54 1451.75,-332.78 1453.59,-339.54"/>
</g>
<!-- UISend&#45;&gt;WalletContext -->
<g id="edge50" class="edge">
<title>UISend&#45;&gt;WalletContext</title>
<path fill="none" stroke="gray" d="M913.56,-377.87C912.37,-377.45 911.18,-377.07 910,-376.75 884.91,-369.86 698.54,-381.75 676,-368.75 567.71,-306.3 586.71,-153.79 693,-88 753.3,-50.68 1244.8,-38.72 1404.84,-35.8"/>
<polygon fill="gray" stroke="gray" points="1404.77,-39.3 1414.71,-35.62 1404.65,-32.3 1404.77,-39.3"/>
</g>
<!-- UISend&#45;&gt;WalletCore -->
<g id="edge52" class="edge">
<title>UISend&#45;&gt;WalletCore</title>
<path fill="none" stroke="gray" d="M968.47,-389.3C995.1,-385.2 1036.7,-379.36 1073,-376.75 1087.1,-375.73 1570.1,-376.39 1582,-368.75 1602.87,-355.35 1624.53,-292.19 1630,-268 1634.31,-248.93 1631.35,-243.51 1630,-224 1627.77,-191.77 1641.46,-176.15 1620,-152 1603.12,-133 1536.79,-119.83 1491.61,-112.84"/>
<polygon fill="gray" stroke="gray" points="1492.25,-109.4 1481.84,-111.38 1491.21,-116.32 1492.25,-109.4"/>
</g>
<!-- UISettings&#45;&gt;UIComponents -->
<g id="edge44" class="edge">
<title>UISettings&#45;&gt;UIComponents</title>
<path fill="none" stroke="gray" d="M1203.41,-376.35C1237.62,-344.42 1313.88,-275.05 1384,-224 1394.32,-216.49 1405.92,-208.96 1416.78,-202.27"/>
<polygon fill="gray" stroke="gray" points="1418.46,-205.34 1425.19,-197.16 1414.83,-199.36 1418.46,-205.34"/>
</g>
<!-- UISettings&#45;&gt;UIPasscode -->
<g id="edge46" class="edge">
<title>UISettings&#45;&gt;UIPasscode</title>
<path fill="none" stroke="gray" d="M1216.72,-389.53C1247.41,-385.21 1295.15,-377.84 1336,-368.75 1375.78,-359.9 1420.28,-347.22 1452.73,-337.45"/>
<polygon fill="gray" stroke="gray" points="1453.67,-340.82 1462.22,-334.57 1451.64,-334.12 1453.67,-340.82"/>
</g>
<!-- UISettings&#45;&gt;WalletContext -->
<g id="edge45" class="edge">
<title>UISettings&#45;&gt;WalletContext</title>
<path fill="none" stroke="gray" d="M1216.56,-393.77C1353.48,-393.74 1890.3,-392.12 1917,-368.75 2011.47,-286.08 1983.86,-166.64 1886,-88 1828.41,-41.72 1606.38,-35.24 1505.45,-34.74"/>
<polygon fill="gray" stroke="gray" points="1505.58,-31.24 1495.57,-34.71 1505.56,-38.24 1505.58,-31.24"/>
</g>
<!-- UISettings&#45;&gt;WalletCore -->
<g id="edge47" class="edge">
<title>UISettings&#45;&gt;WalletCore</title>
<path fill="none" stroke="gray" d="M1216.6,-393.77C1350,-393.7 1861.3,-391.93 1886,-368.75 1933.02,-324.62 1928.17,-279.89 1896,-224 1864.2,-168.77 1832.25,-172.77 1772,-152 1675.46,-118.71 1554.7,-109.99 1491.36,-107.74"/>
<polygon fill="gray" stroke="gray" points="1491.84,-104.25 1481.74,-107.44 1491.62,-111.25 1491.84,-104.25"/>
</g>
<!-- UISwap&#45;&gt;UIComponents -->
<g id="edge86" class="edge">
<title>UISwap&#45;&gt;UIComponents</title>
<path fill="none" stroke="gray" d="M1136.15,-376.35C1139.55,-373.9 1142.91,-371.34 1146,-368.75 1176.8,-342.99 1177.37,-328.74 1209,-304 1210.74,-302.64 1344.02,-224.97 1346,-224 1364.89,-214.72 1386.19,-205.74 1405.04,-198.28"/>
<polygon fill="gray" stroke="gray" points="1406.08,-201.63 1414.12,-194.74 1403.53,-195.11 1406.08,-201.63"/>
</g>
<!-- UISwap&#45;&gt;UIPasscode -->
<g id="edge87" class="edge">
<title>UISwap&#45;&gt;UIPasscode</title>
<path fill="none" stroke="gray" d="M1136.35,-390.93C1173.22,-386.96 1240.83,-379.02 1298,-368.75 1351.33,-359.17 1411.89,-344.92 1452.47,-334.87"/>
<polygon fill="gray" stroke="gray" points="1453.3,-338.28 1462.15,-332.46 1451.6,-331.48 1453.3,-338.28"/>
</g>
<!-- UISwap&#45;&gt;WalletContext -->
<g id="edge88" class="edge">
<title>UISwap&#45;&gt;WalletContext</title>
<path fill="none" stroke="gray" d="M1136.36,-393.76C1266.79,-393.72 1820.34,-392.14 1848,-368.75 1888.79,-334.27 1872,-304.41 1872,-251 1872,-251 1872,-251 1872,-177 1872,-136.03 1878.78,-115.04 1848,-88 1798.03,-44.11 1599.67,-36.28 1505.34,-35.08"/>
<polygon fill="gray" stroke="gray" points="1505.65,-31.58 1495.61,-34.98 1505.57,-38.58 1505.65,-31.58"/>
</g>
<!-- UISwap&#45;&gt;WalletCore -->
<g id="edge89" class="edge">
<title>UISwap&#45;&gt;WalletCore</title>
<path fill="none" stroke="gray" d="M1136.43,-393.77C1240.98,-393.69 1610.97,-391.75 1658,-368.75 1710.89,-342.89 1723.63,-323.24 1744,-268 1763.3,-215.65 1742.64,-182.63 1696,-152 1663.01,-130.33 1553.39,-116.86 1491.5,-110.79"/>
<polygon fill="gray" stroke="gray" points="1491.96,-107.32 1481.67,-109.85 1491.3,-114.28 1491.96,-107.32"/>
</g>
<!-- UIToken&#45;&gt;UIComponents -->
<g id="edge56" class="edge">
<title>UIToken&#45;&gt;UIComponents</title>
<path fill="none" stroke="gray" d="M824.45,-388.91C846.24,-385.2 877.5,-380.15 905,-376.75 924.71,-374.32 977.23,-379.38 994,-368.75 1022.18,-350.89 1006.88,-325.96 1032,-304 1063.2,-276.73 1081.1,-286.86 1118,-268 1151.39,-250.93 1154.87,-237.13 1190,-224 1261.53,-197.26 1349.79,-186.34 1404.75,-181.92"/>
<polygon fill="gray" stroke="gray" points="1404.73,-185.43 1414.44,-181.19 1404.2,-178.45 1404.73,-185.43"/>
</g>
<!-- UIToken&#45;&gt;WalletContext -->
<g id="edge55" class="edge">
<title>UIToken&#45;&gt;WalletContext</title>
<path fill="none" stroke="gray" d="M824.39,-388.32C846.14,-384.28 877.39,-379.08 905,-376.75 942.15,-373.62 1539.73,-377.37 1576,-368.75 1683.9,-343.1 1796,-361.9 1796,-251 1796,-251 1796,-251 1796,-177 1796,-114.76 1599.95,-65.27 1505.16,-44.97"/>
<polygon fill="gray" stroke="gray" points="1506.11,-41.6 1495.6,-42.96 1504.66,-48.44 1506.11,-41.6"/>
</g>
<!-- UIToken&#45;&gt;WalletCore -->
<g id="edge57" class="edge">
<title>UIToken&#45;&gt;WalletCore</title>
<path fill="none" stroke="gray" d="M824.39,-388.32C846.14,-384.29 877.39,-379.08 905,-376.75 922.66,-375.26 1528.03,-378.24 1543,-368.75 1564.02,-355.41 1586.41,-292.26 1592,-268 1596.39,-248.94 1598.5,-242.44 1592,-224 1578.33,-185.25 1565.76,-178.07 1534,-152 1521,-141.33 1505.07,-132.14 1490.47,-124.9"/>
<polygon fill="gray" stroke="gray" points="1492.03,-121.77 1481.5,-120.63 1489.02,-128.09 1492.03,-121.77"/>
</g>
<!-- UIToken&#45;&gt;UIActivityList -->
<g id="edge53" class="edge">
<title>UIToken&#45;&gt;UIActivityList</title>
<path fill="none" stroke="blue" stroke-width="1.5" d="M778.71,-376.26C770.02,-367.95 759.45,-357.85 749.87,-348.69"/>
<polygon fill="blue" stroke="blue" stroke-width="1.5" points="752.37,-346.24 742.72,-341.86 747.53,-351.3 752.37,-346.24"/>
</g>
<!-- UIToken&#45;&gt;WReachability -->
<g id="edge54" class="edge">
<title>UIToken&#45;&gt;WReachability</title>
<path fill="none" stroke="black" d="M769.55,-377.88C768.37,-377.46 767.18,-377.08 766,-376.75 722.07,-364.58 606.48,-371.94 561,-368.75 415.91,-358.57 245.27,-339.25 161.58,-329.28"/>
<polygon fill="black" stroke="black" points="162.2,-325.83 151.86,-328.12 161.37,-332.79 162.2,-325.83"/>
</g>
<!-- UITransaction&#45;&gt;UIComponents -->
<g id="edge93" class="edge">
<title>UITransaction&#45;&gt;UIComponents</title>
<path fill="none" stroke="gray" d="M1064.18,-388.21C1079.07,-384.59 1095.46,-378.61 1108,-368.75 1134.23,-348.13 1120.88,-325.96 1146,-304 1177.2,-276.73 1194.22,-285.02 1232,-268 1272.96,-249.54 1281.4,-240.96 1323,-224 1349.62,-213.14 1379.95,-202.8 1405,-194.77"/>
<polygon fill="gray" stroke="gray" points="1405.83,-198.18 1414.31,-191.82 1403.72,-191.51 1405.83,-198.18"/>
</g>
<!-- UITransaction&#45;&gt;UIPasscode -->
<g id="edge91" class="edge">
<title>UITransaction&#45;&gt;UIPasscode</title>
<path fill="none" stroke="gray" d="M1064.08,-387.32C1087.49,-383.69 1117.88,-379.38 1145,-376.75 1212.78,-370.19 1230.55,-378.12 1298,-368.75 1351.67,-361.29 1412.17,-346.65 1452.64,-335.94"/>
<polygon fill="gray" stroke="gray" points="1453.54,-339.32 1462.3,-333.35 1451.73,-332.56 1453.54,-339.32"/>
</g>
<!-- UITransaction&#45;&gt;WalletContext -->
<g id="edge92" class="edge">
<title>UITransaction&#45;&gt;WalletContext</title>
<path fill="none" stroke="gray" d="M1064.04,-386.92C1087.44,-383.16 1117.83,-378.83 1145,-376.75 1163.42,-375.34 1795.76,-380.52 1810,-368.75 1851.16,-334.72 1834,-304.41 1834,-251 1834,-251 1834,-251 1834,-177 1834,-136.03 1840.59,-115.25 1810,-88 1765.91,-48.71 1592.51,-38.55 1505.44,-35.92"/>
<polygon fill="gray" stroke="gray" points="1505.61,-32.42 1495.52,-35.64 1505.42,-39.42 1505.61,-32.42"/>
</g>
<!-- UITransaction&#45;&gt;WalletCore -->
<g id="edge94" class="edge">
<title>UITransaction&#45;&gt;WalletCore</title>
<path fill="none" stroke="gray" d="M1064.05,-386.97C1087.45,-383.22 1117.84,-378.89 1145,-376.75 1158.16,-375.71 1608.9,-375.89 1620,-368.75 1640.86,-355.34 1662.53,-292.19 1668,-268 1672.31,-248.93 1669.35,-243.51 1668,-224 1665.77,-191.77 1679.99,-175.66 1658,-152 1635.89,-128.21 1546.62,-115.96 1491.83,-110.56"/>
<polygon fill="gray" stroke="gray" points="1492.16,-107.08 1481.88,-109.62 1491.51,-114.04 1492.16,-107.08"/>
</g>
<!-- UITransaction&#45;&gt;UIActivityList -->
<g id="edge90" class="edge">
<title>UITransaction&#45;&gt;UIActivityList</title>
<path fill="none" stroke="blue" stroke-width="1.5" d="M986.2,-378.06C984.79,-377.6 983.38,-377.16 982,-376.75 910.51,-355.37 825.44,-339.48 772.82,-330.72"/>
<polygon fill="blue" stroke="blue" stroke-width="1.5" points="773.49,-327.28 763.06,-329.12 772.36,-334.19 773.49,-327.28"/>
</g>
<!-- YUVConversion -->
<g id="node25" class="node">
<title>YUVConversion</title>
<polygon fill="#a8e6cf" stroke="#00b894" points="150.25,-629.5 63.75,-629.5 63.75,-593.5 150.25,-593.5 150.25,-629.5"/>
<text text-anchor="middle" x="107" y="-607.62" font-family="Helvetica,sans-Serif" font-size="10.00">YUVConversion</text>
</g>
</g>
</svg>
