<svg width="30" height="30" viewBox="0 0 30 30" fill="none" xmlns="http://www.w3.org/2000/svg">
<rect width="30" height="30" fill="#FFC700"/>
<path d="M15 5.35742C13.2098 5.35742 11.4929 6.06858 10.227 7.33445C8.96116 8.60032 8.25 10.3172 8.25 12.1074C8.25 14.4024 9.3975 16.4178 11.1429 17.6424V19.8217C11.1429 20.0775 11.2445 20.3227 11.4253 20.5036C11.6061 20.6844 11.8514 20.786 12.1071 20.786H17.8929C18.1486 20.786 18.3939 20.6844 18.5747 20.5036C18.7555 20.3227 18.8571 20.0775 18.8571 19.8217V17.6424C20.6025 16.4178 21.75 14.4024 21.75 12.1074C21.75 10.3172 21.0388 8.60032 19.773 7.33445C18.5071 6.06858 16.7902 5.35742 15 5.35742ZM12.1071 23.6788C12.1071 23.9346 12.2087 24.1799 12.3896 24.3607C12.5704 24.5415 12.8157 24.6431 13.0714 24.6431H16.9286C17.1843 24.6431 17.4296 24.5415 17.6104 24.3607C17.7913 24.1799 17.8929 23.9346 17.8929 23.6788V22.7146H12.1071V23.6788Z" fill="white"/>
</svg>
