<svg width="128" height="128" viewBox="0 0 128 128" fill="none" xmlns="http://www.w3.org/2000/svg">
<path d="M128 64C128 28.6538 99.3462 0 64 0C28.6538 0 0 28.6538 0 64C0 99.3462 28.6538 128 64 128C99.3462 128 128 99.3462 128 64Z" fill="#6C00F6"/>
<path d="M77.797 35.4069L59.9368 45.6647V77.6793L50.0822 83.3916L40.1672 77.6746V66.2446L50.0822 60.5831L56.4573 64.2801V55.0325L50.0264 51.3817L32.1705 61.7553V82.2752L50.0868 92.593L67.9424 82.2752V50.2652L77.8575 44.5479L87.7675 50.2652V61.644L77.8575 67.4122L71.4265 63.6824V72.8839L77.797 76.5578L95.829 66.3004V45.6647L77.797 35.4069Z" fill="white"/>
</svg>
