<svg width="30" height="30" viewBox="0 0 30 30" fill="none" xmlns="http://www.w3.org/2000/svg">
<rect width="30" height="30" fill="#FF9900"/>
<path d="M6.24609 14.9923C6.24653 13.0743 6.87726 11.2097 8.04121 9.68528C9.20516 8.16089 10.8378 7.06125 12.6879 6.5556C14.538 6.04995 16.503 6.16631 18.2805 6.88679C20.058 7.60726 21.5495 8.89191 22.5254 10.543C23.5013 12.1941 23.9075 14.1202 23.6816 16.0248C23.4557 17.9294 22.6101 19.707 21.275 21.084C19.9399 22.461 18.1893 23.361 16.2925 23.6456C14.3958 23.9303 12.4581 23.5837 10.7777 22.6592L7.37636 23.695C7.22465 23.7412 7.06323 23.7453 6.90937 23.7069C6.75551 23.6684 6.61499 23.5889 6.50285 23.4768C6.39071 23.3646 6.31116 23.2241 6.27271 23.0702C6.23427 22.9164 6.23837 22.755 6.28459 22.6032L7.32037 19.1967C6.61486 17.9077 6.2454 16.4617 6.24609 14.9923ZM11.7629 13.5818C11.7629 13.8138 11.855 14.0363 12.0191 14.2004C12.1832 14.3644 12.4057 14.4566 12.6377 14.4566H17.8866C18.1186 14.4566 18.3412 14.3644 18.5052 14.2004C18.6693 14.0363 18.7614 13.8138 18.7614 13.5818C18.7614 13.3498 18.6693 13.1272 18.5052 12.9632C18.3412 12.7991 18.1186 12.7069 17.8866 12.7069H12.6377C12.4057 12.7069 12.1832 12.7991 12.0191 12.9632C11.855 13.1272 11.7629 13.3498 11.7629 13.5818ZM12.6377 16.2062C12.4057 16.2062 12.1832 16.2984 12.0191 16.4625C11.855 16.6265 11.7629 16.849 11.7629 17.0811C11.7629 17.3131 11.855 17.5356 12.0191 17.6996C12.1832 17.8637 12.4057 17.9559 12.6377 17.9559H16.137C16.369 17.9559 16.5915 17.8637 16.7556 17.6996C16.9196 17.5356 17.0118 17.3131 17.0118 17.0811C17.0118 16.849 16.9196 16.6265 16.7556 16.4625C16.5915 16.2984 16.369 16.2062 16.137 16.2062H12.6377Z" fill="white"/>
</svg>
