<svg preserveAspectRatio="none" overflow="visible" style="display: block;" width="11.9998" height="11.9998" viewBox="0 0 11.9998 11.9998" fill="none" xmlns="http://www.w3.org/2000/svg">
<g id="Group 103">
<path id="Union" d="M10.2929 0.292893C10.6834 -0.0976309 11.3164 -0.0976307 11.707 0.292893C12.0975 0.683417 12.0975 1.31643 11.707 1.70696L7.41399 5.99992L11.707 10.2929C12.0975 10.6834 12.0975 11.3164 11.707 11.707C11.3164 12.0975 10.6834 12.0975 10.2929 11.707L5.99992 7.41399L1.70696 11.707C1.31643 12.0975 0.683418 12.0975 0.292894 11.707C-0.0976304 11.3164 -0.0976307 10.6834 0.292894 10.2929L4.58586 5.99992L0.292894 1.70696C-0.0976312 1.31643 -0.0976312 0.683417 0.292894 0.292893C0.683417 -0.0976311 1.31643 -0.0976311 1.70696 0.292893L5.99992 4.58586L10.2929 0.292893Z" fill="#7F7F84" fill-opacity="0.5"/>
</g>
</svg>
