<svg width="30" height="30" viewBox="0 0 30 30" fill="none" xmlns="http://www.w3.org/2000/svg">
<rect width="30" height="30" fill="url(#bg)"/>
<path fill-rule="evenodd" clip-rule="evenodd" d="M25.5041 12.9041C25.5041 11.784 25.5041 11.2239 25.2862 10.7961C25.0944 10.4198 24.7885 10.1138 24.4121 9.92209C23.9843 9.7041 23.4243 9.7041 22.3041 9.7041H10.0042C6.96658 9.7041 4.50415 12.1665 4.50415 15.2041C4.50415 18.2417 6.96658 20.7041 10.0042 20.7041H22.3041C23.4243 20.7041 23.9843 20.7041 24.4121 20.4861C24.7885 20.2944 25.0944 19.9884 25.2862 19.6121C25.5041 19.1843 25.5041 18.6242 25.5041 17.5041V12.9041ZM9.99992 17.5301C11.2867 17.5301 12.3299 16.4869 12.3299 15.2001C12.3299 13.9133 11.2867 12.8701 9.99992 12.8701C8.7131 12.8701 7.66992 13.9133 7.66992 15.2001C7.66992 16.4869 8.7131 17.5301 9.99992 17.5301Z" fill="white"/>
<defs>
<linearGradient id="bg" x1="15" y1="0" x2="15" y2="30" gradientUnits="userSpaceOnUse">
<stop stop-color="#00DAFC"/>
<stop offset="1" stop-color="#00C4ED"/>
</linearGradient>
</defs>
</svg>
