<svg xmlns="http://www.w3.org/2000/svg" width="32" height="32" fill="none"><path stroke="#2c92f0" stroke-width="1.5" d="M6.52 14.733q8.85-3.855 11.803-5.084c5.62-2.338 6.788-2.744 7.549-2.757.167-.003.542.038.784.235.205.166.261.39.288.548s.06.516.034.797c-.305 3.2-1.623 10.965-2.293 14.55-.284 1.516-.842 2.025-1.383 2.074-1.175.108-2.068-.776-3.206-1.523-1.781-1.167-2.787-1.894-4.516-3.033-1.998-1.317-.703-2.04.436-3.223.298-.31 5.476-5.02 5.576-5.447.013-.053.024-.253-.094-.358-.119-.105-.293-.069-.42-.04q-.267.06-8.535 5.642-1.212.832-2.195.81c-.723-.015-2.113-.408-3.146-.744-1.267-.412-2.275-.63-2.187-1.33q.069-.546 1.506-1.117Z" clip-rule="evenodd"/></svg>