<svg xmlns="http://www.w3.org/2000/svg" width="32" height="32" fill="none"><path stroke="#2c92f0" stroke-linecap="round" stroke-width="1.5" d="m5.333 18.667 8.373 5.86c.827.58 1.24.868 1.69.98.396.1.812.1 1.209 0 .45-.112.862-.4 1.689-.98l8.373-5.86"/><path stroke="#2c92f0" stroke-width="1.5" d="M15.214 5.765a3.25 3.25 0 0 1 1.572 0c.617.154 1.162.55 1.938 1.093l5.564 3.894c.461.323.848.593 1.137.837.291.246.56.528.712.902a2.25 2.25 0 0 1 0 1.685c-.151.374-.42.655-.712.9-.289.244-.676.515-1.137.838l-5.564 3.895c-.775.543-1.32.939-1.937 1.093a3.25 3.25 0 0 1-1.573 0c-.617-.154-1.163-.55-1.938-1.093l-5.564-3.895c-.46-.323-.848-.594-1.137-.837-.292-.246-.561-.527-.712-.9a2.25 2.25 0 0 1 0-1.686c.15-.374.42-.656.712-.902.289-.244.676-.514 1.137-.837l5.564-3.894c.775-.543 1.321-.94 1.938-1.093Z"/></svg>