<svg xmlns="http://www.w3.org/2000/svg" width="32" height="32" fill="none"><path fill="#2c92f0" d="M19.025 5.437a7.701 7.701 0 1 1-2.43 15.007l-.883.882a.75.75 0 0 1-.53.22h-1.438v1.174a.75.75 0 0 1-.75.75h-1.22v1.126a.75.75 0 0 1-.22.53l-.797.797a.75.75 0 0 1-.53.22H6.442a.75.75 0 0 1-.75-.75v-3.577c0-.2.08-.39.22-.53l5.784-5.786a7.7 7.7 0 0 1 7.33-10.063m0 1.5a6.2 6.2 0 0 0-5.766 8.483.75.75 0 0 1-.167.807l-5.9 5.9v2.516h2.724l.357-.358V22.72a.75.75 0 0 1 .75-.75h1.221v-1.174a.75.75 0 0 1 .75-.75h1.877l1-1a.75.75 0 0 1 .815-.165 6.201 6.201 0 1 0 2.34-11.944m-.808 3.61a2.4 2.4 0 1 1 3.393 3.393 2.4 2.4 0 0 1-3.393-3.394"/></svg>