<?xml version="1.0" encoding="UTF-8"?>
<svg width="26px" height="26px" viewBox="0 0 26 26" version="1.1" xmlns="http://www.w3.org/2000/svg" xmlns:xlink="http://www.w3.org/1999/xlink">
    <title>MenuSelect26</title>
    <g id="MenuSelect26" stroke="none" fill="none" fill-rule="nonzero">
        <path d="M12.8332,21 C11.66555,21 10.56985,20.7786 9.54609,20.3359 C8.52232,19.8988 7.62307,19.2928 6.84833,18.5181 C6.07359,17.7433 5.46487,16.8441 5.022162,15.8203 C4.584987,14.7965 4.3664,13.70084 4.3664,12.5332 C4.3664,11.36555 4.584987,10.26985 5.022162,9.24609 C5.46487,8.22232 6.07359,7.32307 6.84833,6.54833 C7.62307,5.76806 8.52232,5.15934 9.54609,4.722162 C10.56985,4.284987 11.66555,4.0664 12.8332,4.0664 C14.00084,4.0664 15.0965,4.284987 16.1203,4.722162 C17.1441,5.15934 18.0433,5.76806 18.8181,6.54833 C19.5928,7.32307 20.1988,8.22232 20.6359,9.24609 C21.0786,10.26985 21.3,11.36555 21.3,12.5332 C21.3,13.70084 21.0786,14.7965 20.6359,15.8203 C20.1988,16.8441 19.5928,17.7433 18.8181,18.5181 C18.0433,19.2928 17.1441,19.8988 16.1203,20.3359 C15.0965,20.7786 14.00084,21 12.8332,21 Z M12.8332,19.5889 C13.80716,19.5889 14.7202,19.4062 15.5725,19.041 C16.4247,18.6758 17.1745,18.1694 17.822,17.522 C18.4694,16.8745 18.9758,16.1247 19.341,15.2725 C19.7062,14.4202 19.8889,13.50716 19.8889,12.5332 C19.8889,11.55924 19.7062,10.64615 19.341,9.79394 C18.9758,8.93619 18.4694,8.18635 17.822,7.54443 C17.1745,6.89697 16.4247,6.39062 15.5725,6.02538 C14.7202,5.66015 13.80716,5.47753 12.8332,5.47753 C11.85924,5.47753 10.94615,5.66015 10.09394,6.02538 C9.24173,6.39062 8.49189,6.89697 7.84443,7.54443 C7.19697,8.18635 6.69062,8.93619 6.32538,9.79394 C5.96015,10.64615 5.77753,11.55924 5.77753,12.5332 C5.77753,13.50716 5.96015,14.4202 6.32538,15.2725 C6.69062,16.1247 7.19697,16.8745 7.84443,17.522 C8.49189,18.1694 9.24173,18.6758 10.09394,19.041 C10.94615,19.4062 11.85924,19.5889 12.8332,19.5889 Z M11.92011,16.4678 C11.78176,16.4678 11.65449,16.4373 11.53828,16.3765 C11.4276,16.3156 11.31969,16.2187 11.21454,16.0859 L9.18915,13.5957 C9.06188,13.42415 8.99824,13.2526 8.99824,13.08105 C8.99824,12.89843 9.05911,12.74348 9.18085,12.6162 C9.30813,12.48339 9.46031,12.41699 9.6374,12.41699 C9.75361,12.41699 9.85875,12.44189 9.95283,12.49169 C10.05244,12.53596 10.15204,12.62451 10.25165,12.75732 L11.88691,14.874 L15.3317,9.3457 C15.4867,9.09667 15.6804,8.97216 15.9128,8.97216 C16.0843,8.97216 16.2393,9.0275 16.3776,9.13818 C16.516,9.24885 16.5852,9.3955 16.5852,9.57812 C16.5852,9.67219 16.563,9.76627 16.5187,9.86035 C16.48,9.94889 16.4357,10.03189 16.3859,10.10937 L12.59247,16.0859 C12.42646,16.3405 12.20234,16.4678 11.92011,16.4678 Z" id="Shape" fill="#333333"></path>
    </g>
</svg>