<svg width="30" height="30" viewBox="0 0 30 30" fill="none" xmlns="http://www.w3.org/2000/svg">
<rect width="30" height="30" fill="#1EC160"/>
<path fill-rule="evenodd" clip-rule="evenodd" d="M15 23.75C19.3 22.7477 22.5 18.6193 22.5 14.2045V9.43182L15 6.25L7.5 9.43182V14.2045C7.5 18.6193 10.7 22.7477 15 23.75ZM14.8727 18.5706C14.6882 18.8567 14.416 19.0176 14.0998 19.0176C13.7749 19.0176 13.5202 18.8835 13.2831 18.5706L11.2105 15.9963C11.0612 15.8086 10.9821 15.612 10.9821 15.3975C10.9821 14.9505 11.3159 14.6019 11.7462 14.6019C12.0097 14.6019 12.2204 14.7003 12.4312 14.9773L14.0647 17.0958L17.5337 11.4288C17.7181 11.1249 17.9552 10.9818 18.2187 10.9818C18.6314 10.9818 19.0179 11.2768 19.0179 11.7148C19.0179 11.9204 18.9125 12.1349 18.7983 12.3226L14.8727 18.5706Z" fill="white"/>
</svg>
