<svg xmlns="http://www.w3.org/2000/svg" width="44" height="44" fill="none"><g clip-path="url(#logo-ton-app_svg__a)"><rect width="44" height="44" fill="url(#logo-ton-app_svg__b)" rx="22"/><path fill="#fff" fill-opacity=".75" d="M12.995 15.534c-.61.282-.915.423-1.132.6a2.23 2.23 0 0 0-.755 2.291c.07.271.231.566.554 1.156l3.613 6.59 2.96 5.4c.247.45.379.689.524.862l.003.004.027.032c.49.548 1.236.793 1.956.644.232-.048.48-.163.978-.393.61-.282.916-.423 1.133-.6.678-.55.972-1.446.755-2.291-.07-.272-.232-.566-.555-1.156l-3.613-6.59-2.96-5.4c-.246-.45-.378-.688-.523-.861l-.002-.003-.029-.034a2.06 2.06 0 0 0-1.955-.644c-.232.048-.48.163-.979.393m9.281-4.254c-.61.283-.915.424-1.132.6a2.23 2.23 0 0 0-.755 2.292c.07.27.231.566.555 1.155l3.612 6.59 2.96 5.4c.247.45.379.69.524.863l.003.004.027.031c.49.548 1.236.794 1.956.644.232-.048.48-.163.978-.393.61-.282.916-.423 1.133-.6.678-.55.972-1.445.755-2.29-.07-.272-.232-.567-.555-1.156l-3.613-6.59-2.96-5.4c-.247-.45-.378-.689-.523-.862l-.002-.003-.029-.034a2.06 2.06 0 0 0-1.955-.644c-.232.048-.48.163-.979.394"/><g fill="#fff" filter="url(#logo-ton-app_svg__c)"><path fill-rule="evenodd" d="m15.958 15.819-.004-.004zm-.232-.133" clip-rule="evenodd"/><path d="M10.162 44h5.113V16.068a.387.387 0 0 1 .451-.382h.001a.3.3 0 0 1 .057.015.4.4 0 0 1 .17.114l-.025-.03a2.06 2.06 0 0 0-1.955-.644c-.232.048-.48.163-.979.393l-.142.066-.105.049h-.001c-.568.263-.852.394-1.091.558a3.44 3.44 0 0 0-1.446 2.26c-.048.285-.048.598-.048 1.224z"/></g><g fill="#fff" filter="url(#logo-ton-app_svg__d)"><path fill-rule="evenodd" d="M25.077 11.451q.096.037.162.114l-.004-.004a.4.4 0 0 0-.158-.11" clip-rule="evenodd"/><path d="M24.557 28.563V11.814a.387.387 0 0 1 .45-.381h.001a.3.3 0 0 1 .069.018q.094.036.158.11l-.025-.03a2.06 2.06 0 0 0-1.955-.644c-.232.048-.48.163-.979.394l-.06.027-.188.087c-.568.263-.852.394-1.091.558a3.44 3.44 0 0 0-1.445 2.26c-.049.285-.049.598-.049 1.224v16.749a.387.387 0 0 1-.681.251l.027.032c.49.548 1.236.793 1.956.644.232-.048.48-.163.978-.393l.123-.057.116-.054.009-.004c.569-.263.853-.394 1.092-.558a3.44 3.44 0 0 0 1.445-2.26c.049-.285.049-.598.049-1.224"/></g><g filter="url(#logo-ton-app_svg__e)"><path fill="#fff" d="M33.838 24.309V0h-5.113v27.933a.387.387 0 0 1-.682.25l.027.032a2.06 2.06 0 0 0 1.956.644c.231-.048.48-.163.978-.393l.203-.094.046-.021c.568-.263.852-.394 1.091-.558a3.44 3.44 0 0 0 1.445-2.26c.049-.285.049-.598.049-1.224"/></g></g><defs><filter id="logo-ton-app_svg__c" width="9.921" height="33.027" x="8.787" y="13.207" color-interpolation-filters="sRGB" filterUnits="userSpaceOnUse"><feFlood flood-opacity="0" result="BackgroundImageFix"/><feColorMatrix in="SourceAlpha" result="hardAlpha" values="0 0 0 0 0 0 0 0 0 0 0 0 0 0 0 0 0 0 127 0"/><feOffset dx=".688" dy=".172"/><feGaussianBlur stdDeviation="1.031"/><feComposite in2="hardAlpha" operator="out"/><feColorMatrix values="0 0 0 0 0 0 0 0 0 0.403922 0 0 0 0 0.976471 0 0 0 0.3 0"/><feBlend in2="BackgroundImageFix" result="effect1_dropShadow_3199_2"/><feBlend in="SourceGraphic" in2="effect1_dropShadow_3199_2" result="shape"/></filter><filter id="logo-ton-app_svg__d" width="10.602" height="26.436" x="17.387" y="8.954" color-interpolation-filters="sRGB" filterUnits="userSpaceOnUse"><feFlood flood-opacity="0" result="BackgroundImageFix"/><feColorMatrix in="SourceAlpha" result="hardAlpha" values="0 0 0 0 0 0 0 0 0 0 0 0 0 0 0 0 0 0 127 0"/><feOffset dx=".688" dy=".172"/><feGaussianBlur stdDeviation="1.031"/><feComposite in2="hardAlpha" operator="out"/><feColorMatrix values="0 0 0 0 0 0 0 0 0 0.403922 0 0 0 0 0.976471 0 0 0 0.3 0"/><feBlend in2="BackgroundImageFix" result="effect1_dropShadow_3199_2"/><feBlend in="SourceGraphic" in2="effect1_dropShadow_3199_2" result="shape"/></filter><filter id="logo-ton-app_svg__e" width="9.92" height="33.027" x="26.668" y="-1.891" color-interpolation-filters="sRGB" filterUnits="userSpaceOnUse"><feFlood flood-opacity="0" result="BackgroundImageFix"/><feColorMatrix in="SourceAlpha" result="hardAlpha" values="0 0 0 0 0 0 0 0 0 0 0 0 0 0 0 0 0 0 127 0"/><feOffset dx=".688" dy=".172"/><feGaussianBlur stdDeviation="1.031"/><feComposite in2="hardAlpha" operator="out"/><feColorMatrix values="0 0 0 0 0 0 0 0 0 0.403922 0 0 0 0 0.976471 0 0 0 0.3 0"/><feBlend in2="BackgroundImageFix" result="effect1_dropShadow_3199_2"/><feBlend in="SourceGraphic" in2="effect1_dropShadow_3199_2" result="shape"/></filter><linearGradient id="logo-ton-app_svg__b" x1="22" x2="22" y1="0" y2="44" gradientUnits="userSpaceOnUse"><stop stop-color="#00b7ff"/><stop offset="1" stop-color="#0067f9"/></linearGradient><clipPath id="logo-ton-app_svg__a"><rect width="44" height="44" fill="#fff" rx="22"/></clipPath></defs></svg>