<svg width="30" height="30" viewBox="0 0 30 30" fill="none" xmlns="http://www.w3.org/2000/svg">
<rect width="30" height="30" fill="url(#bg)"/>
<path d="M13 13.2602L6.2929 19.9671C6.10536 20.1546 6 20.409 6 20.6742V23.0302C6 23.5825 6.44772 24.0302 7 24.0302H9.67L10.67 23.0302V21.1302H12.67V19.23H14.2558C14.521 19.23 14.7754 19.1246 14.9629 18.9371L16.67 17.23L13 13.2602Z" fill="white"/>
<path fill-rule="evenodd" clip-rule="evenodd" d="M18.35 18.3C22.0226 18.3 25 15.3227 25 11.65C25 7.97731 22.0226 5 18.35 5C14.6773 5 11.7 7.97731 11.7 11.65C11.7 15.3227 14.6773 18.3 18.35 18.3ZM19.7499 12.4998C21.0367 12.4998 22.0799 11.4567 22.0799 10.1698C22.0799 8.88302 21.0367 7.83984 19.7499 7.83984C18.4631 7.83984 17.4199 8.88302 17.4199 10.1698C17.4199 11.4567 18.4631 12.4998 19.7499 12.4998Z" fill="white"/>
<defs>
<linearGradient id="bg" x1="15" y1="0" x2="15" y2="30" gradientUnits="userSpaceOnUse">
<stop stop-color="#5A86FF"/>
<stop offset="1" stop-color="#2A62FF"/>
</linearGradient>
</defs>
</svg>
