<svg width="30" height="30" viewBox="0 0 30 30" fill="none" xmlns="http://www.w3.org/2000/svg">
<rect width="30" height="30" fill="url(#bg)"/>
<path d="M23 12.5806V6.58057C23 6.16635 23.3358 5.83057 23.75 5.83057C24.1642 5.83057 24.5 6.16635 24.5 6.58057V12.5806C24.5 12.9948 24.1642 13.3306 23.75 13.3306C23.711 13.3306 23.6727 13.3276 23.6353 13.3218C23.2755 13.2666 23 12.9558 23 12.5806Z" fill="white"/>
<path d="M20.75 8.83057H22.2039H26.75C27.1642 8.83057 27.5 9.16635 27.5 9.58057C27.5 9.99478 27.1642 10.3306 26.75 10.3306H22.2304H20.75C20.3358 10.3306 20 9.99478 20 9.58057C20 9.20099 20.282 8.88728 20.6479 8.83746C20.6813 8.83291 20.7154 8.83057 20.75 8.83057Z" fill="white"/>
<path fill-rule="evenodd" clip-rule="evenodd" d="M20.6479 8.83746L22.2304 10.3306H23V12.5806C23 12.9558 23.2755 13.2666 23.6353 13.3218V11.2622C23.6353 10.9302 23.6133 10.647 23.5693 10.4126C23.5254 10.1782 23.4082 9.9707 23.2178 9.79004L22.2039 8.83057H20.75C20.7154 8.83057 20.6813 8.83291 20.6479 8.83746ZM21.5 12.5806C21.5 13.7686 22.4208 14.7416 23.5876 14.8248C23.5094 15.2606 23.3348 15.6087 23.064 15.8691C22.6831 16.2354 22.1069 16.4185 21.3354 16.4185H8.66455C7.89795 16.4185 7.32178 16.2354 6.93604 15.8691C6.55518 15.5029 6.36475 14.9634 6.36475 14.2505V11.2622C6.36475 10.9302 6.38672 10.647 6.43066 10.4126C6.47949 10.1782 6.59668 9.9707 6.78223 9.79004L9.38232 7.33643C9.77783 6.96533 10.1489 6.70898 10.4956 6.56738C10.8423 6.42578 11.2866 6.35498 11.8286 6.35498H18.1714C18.7134 6.35498 19.1577 6.42578 19.5044 6.56738C19.8504 6.70869 20.2231 6.96427 20.6225 7.33412C20.1902 7.35827 19.7905 7.50446 19.4572 7.73882C19.33 7.64266 19.209 7.56956 19.0942 7.51953C18.9038 7.43164 18.6328 7.3877 18.2812 7.3877H11.7188C11.3721 7.3877 11.1011 7.43164 10.9058 7.51953C10.7153 7.60254 10.5078 7.74902 10.2832 7.95898L7.69043 10.4053C7.6123 10.4785 7.58545 10.5542 7.60986 10.6323C7.63428 10.7056 7.69775 10.7422 7.80029 10.7422H12.7368C12.9272 10.7422 13.0688 10.8032 13.1616 10.9253C13.2544 11.0474 13.3008 11.1841 13.3008 11.3354V11.3647C13.3008 11.6479 13.3691 11.9238 13.5059 12.1924C13.6475 12.4561 13.8452 12.6758 14.0991 12.8516C14.353 13.0225 14.6533 13.1079 15 13.1079C15.3467 13.1079 15.647 13.0225 15.9009 12.8516C16.1548 12.6758 16.3525 12.4561 16.4941 12.1924C16.6357 11.9238 16.7065 11.6479 16.7065 11.3647V11.3354C16.7065 11.1841 16.7505 11.0474 16.8384 10.9253C16.9312 10.8032 17.0728 10.7422 17.2632 10.7422H18.8227C19.2166 11.3945 19.9324 11.8306 20.75 11.8306H21.5V12.5806ZM8.66455 23.0981C7.89795 23.0981 7.32178 22.9126 6.93604 22.5415C6.55518 22.1753 6.36475 21.6382 6.36475 20.9302V17.9346C6.36475 17.7393 6.36963 17.561 6.37939 17.3999C6.39404 17.2339 6.42578 17.0825 6.47461 16.9458C6.68945 17.0972 6.93115 17.2144 7.19971 17.2974C7.47314 17.3804 7.76855 17.4219 8.08594 17.4219H12.7368C12.9272 17.4219 13.0688 17.4829 13.1616 17.605C13.2544 17.7222 13.3008 17.8589 13.3008 18.0151V18.0371C13.3008 18.3203 13.3691 18.5962 13.5059 18.8647C13.6475 19.1333 13.8452 19.3555 14.0991 19.5312C14.353 19.7021 14.6533 19.7876 15 19.7876C15.3467 19.7876 15.647 19.7021 15.9009 19.5312C16.1548 19.3555 16.3525 19.1333 16.4941 18.8647C16.6357 18.5962 16.7065 18.3203 16.7065 18.0371V18.0151C16.7065 17.8589 16.7505 17.7222 16.8384 17.605C16.9312 17.4829 17.0728 17.4219 17.2632 17.4219H21.936C22.2485 17.4219 22.5391 17.3804 22.8076 17.2974C23.0762 17.2144 23.3179 17.0972 23.5327 16.9458C23.5767 17.0825 23.6035 17.2339 23.6133 17.3999C23.6279 17.561 23.6353 17.7393 23.6353 17.9346V20.9302C23.6353 21.6382 23.4448 22.1753 23.064 22.5415C22.6831 22.9126 22.1069 23.0981 21.3354 23.0981H8.66455Z" fill="white"/>
<defs>
<linearGradient id="bg" x1="15" y1="0" x2="15" y2="30" gradientUnits="userSpaceOnUse">
<stop stop-color="#FFAA4F"/>
<stop offset="1" stop-color="#FF8500"/>
</linearGradient>
</defs>
</svg>
