<svg width="128" height="128" viewBox="0 0 128 128" fill="none" xmlns="http://www.w3.org/2000/svg">
<circle cx="64" cy="64" r="64" fill="white"/>
<path d="M32 37.056C32 35.3242 32 34.4583 32.3263 33.7922C32.6387 33.1544 33.1544 32.6387 33.7922 32.3263C34.4583 32 35.3242 32 37.056 32H90.944C92.6759 32 93.5418 32 94.2077 32.3263C94.8454 32.6387 95.3613 33.1544 95.6736 33.7922C96 34.4583 96 35.3242 96 37.056V90.944C96 92.6759 96 93.5418 95.6736 94.2077C95.3613 94.8454 94.8454 95.3613 94.2077 95.6736C93.5418 96 92.6759 96 90.944 96H37.056C35.3242 96 34.4583 96 33.7922 95.6736C33.1544 95.3613 32.6387 94.8454 32.3263 94.2077C32 93.5418 32 92.6759 32 90.944V37.056Z" fill="#0000FF"/>
</svg>
