<svg xmlns="http://www.w3.org/2000/svg" width="70" height="48" fill="none"><g filter="url(#valentine_svg__a)" style="mix-blend-mode:plus-lighter"><path fill="#fff" d="M32.956 14.102c-.03.371-.452.44-.6.098l-.255-.594c-.498-1.16-1.44-1.977-2.507-2.176l-.546-.101c-.315-.06-.397-.564-.117-.72l.486-.27c.949-.525 1.583-1.599 1.69-2.856l.054-.645c.03-.37.452-.44.599-.097l.256.594c.498 1.16 1.44 1.976 2.506 2.175l.547.102c.315.059.397.564.117.72l-.486.269c-.949.526-1.584 1.6-1.69 2.857z"/></g><g filter="url(#valentine_svg__b)" style="mix-blend-mode:plus-lighter"><path fill="#fff" d="M13.538 21.312c-.016.186-.226.22-.3.049l-.127-.297c-.249-.58-.72-.988-1.252-1.088l-.273-.05c-.157-.03-.198-.283-.058-.36l.243-.135c.473-.263.79-.8.842-1.429l.027-.322c.016-.185.226-.22.3-.048l.127.297c.25.58.72.988 1.252 1.088l.273.05c.157.03.198.282.059.36l-.243.135c-.474.263-.79.8-.843 1.428z"/></g><g filter="url(#valentine_svg__c)" style="mix-blend-mode:plus-lighter"><path fill="#fff" d="M53.747 41.074c-.023.278-.339.33-.45.073l-.19-.446c-.375-.87-1.08-1.483-1.88-1.632l-.41-.076c-.236-.044-.297-.423-.087-.54l.364-.202c.711-.394 1.187-1.2 1.266-2.142l.04-.484c.024-.278.34-.33.45-.073l.191.446c.374.87 1.08 1.482 1.88 1.632l.41.076c.235.044.297.423.087.54l-.364.201c-.711.395-1.187 1.2-1.266 2.143z"/></g><path fill="url(#valentine_svg__d)" d="M36.015 37.732a.76.76 0 0 0 .724-.19c1.305-1.249 3.449-3.909 3.838-6.767.68-3.764-3.57-5.574-5.559-3.015-.207.268-.474.58-.642.856-.076.124-.251.179-.38.11-.36-.194-.904-.422-1.248-.548-2.463-.9-5.83 1.936-3.193 5.54 1.048 1.651 4.54 3.493 6.46 4.014"/><path fill="url(#valentine_svg__e)" d="M36.015 37.732a.76.76 0 0 0 .724-.19c1.305-1.249 3.449-3.909 3.838-6.767.68-3.764-3.57-5.574-5.559-3.015-.207.268-.474.58-.642.856-.076.124-.251.179-.38.11-.36-.194-.904-.422-1.248-.548-2.463-.9-5.83 1.936-3.193 5.54 1.048 1.651 4.54 3.493 6.46 4.014"/><path fill="url(#valentine_svg__f)" d="M36.015 37.732a.76.76 0 0 0 .724-.19c1.305-1.249 3.449-3.909 3.838-6.767.68-3.764-3.57-5.574-5.559-3.015-.207.268-.474.58-.642.856-.076.124-.251.179-.38.11-.36-.194-.904-.422-1.248-.548-2.463-.9-5.83 1.936-3.193 5.54 1.048 1.651 4.54 3.493 6.46 4.014"/><path fill="url(#valentine_svg__g)" d="M36.015 37.732a.76.76 0 0 0 .724-.19c1.305-1.249 3.449-3.909 3.838-6.767.68-3.764-3.57-5.574-5.559-3.015-.207.268-.474.58-.642.856-.076.124-.251.179-.38.11-.36-.194-.904-.422-1.248-.548-2.463-.9-5.83 1.936-3.193 5.54 1.048 1.651 4.54 3.493 6.46 4.014"/><path fill="url(#valentine_svg__h)" d="M36.015 37.732a.76.76 0 0 0 .724-.19c1.305-1.249 3.449-3.909 3.838-6.767.68-3.764-3.57-5.574-5.559-3.015-.207.268-.474.58-.642.856-.076.124-.251.179-.38.11-.36-.194-.904-.422-1.248-.548-2.463-.9-5.83 1.936-3.193 5.54 1.048 1.651 4.54 3.493 6.46 4.014"/><path fill="url(#valentine_svg__i)" d="M36.015 37.732a.76.76 0 0 0 .724-.19c1.305-1.249 3.449-3.909 3.838-6.767.68-3.764-3.57-5.574-5.559-3.015-.207.268-.474.58-.642.856-.076.124-.251.179-.38.11-.36-.194-.904-.422-1.248-.548-2.463-.9-5.83 1.936-3.193 5.54 1.048 1.651 4.54 3.493 6.46 4.014"/><path fill="url(#valentine_svg__j)" fill-opacity=".6" d="M36.015 37.732a.76.76 0 0 0 .724-.19c1.305-1.249 3.449-3.909 3.838-6.767.68-3.764-3.57-5.574-5.559-3.015-.207.268-.474.58-.642.856-.076.124-.251.179-.38.11-.36-.194-.904-.422-1.248-.548-2.463-.9-5.83 1.936-3.193 5.54 1.048 1.651 4.54 3.493 6.46 4.014"/><g filter="url(#valentine_svg__k)"><path fill="#fa1c32" d="m34.333 29.737.722 2.896c.096.385.607.45.771.09.51-1.113.825-2.392-.072-3.149-.343-.29-.89-.395-1.272-.223-.143.064-.187.234-.149.387z"/></g><g filter="url(#valentine_svg__l)"><path fill="url(#valentine_svg__m)" d="M39.515 30.019c.568-.916.413-2.041-.347-2.512s-1.836-.11-2.405.805c-.568.916-.413 2.041.347 2.512s1.836.111 2.405-.805"/></g><g filter="url(#valentine_svg__n)"><path fill="#ff737f" d="M37.085 27.194c.406-.05.727-.158.717-.243-.01-.086-.348-.115-.754-.067-.406.049-.727.158-.717.243s.348.115.754.067"/></g><g filter="url(#valentine_svg__o)"><path fill="#ff93a3" fill-opacity=".5" d="M31.118 28.628c.355-.093.63-.216.615-.274s-.315-.03-.67.063-.63.216-.615.274.315.03.67-.063"/></g><g filter="url(#valentine_svg__p)"><path fill="url(#valentine_svg__q)" d="m33.822 29.604 1.217 4.318c-3.626-2.111-4.685-3.965-3.678-4.691.956-.69 1.977-.211 2.46.373"/></g><g filter="url(#valentine_svg__r)"><path fill="#ff737f" d="M33.545 29.402a.56.56 0 0 1-.6-.369c.257.162.461.13.53.093z"/></g><path fill="url(#valentine_svg__s)" d="M56.897 24.806a1.3 1.3 0 0 0 1.208-.433c2.041-2.327 5.305-7.19 5.544-12.13.599-6.53-6.932-8.985-9.944-4.317-.314.487-.723 1.062-.969 1.556-.111.225-.403.344-.633.245-.643-.278-1.606-.586-2.213-.749-4.341-1.17-9.667 4.177-4.626 9.938 2.037 2.663 8.277 5.287 11.633 5.89"/><path fill="url(#valentine_svg__t)" d="M56.897 24.806a1.3 1.3 0 0 0 1.208-.433c2.041-2.327 5.305-7.19 5.544-12.13.599-6.53-6.932-8.985-9.944-4.317-.314.487-.723 1.062-.969 1.556-.111.225-.403.344-.633.245-.643-.278-1.606-.586-2.213-.749-4.341-1.17-9.667 4.177-4.626 9.938 2.037 2.663 8.277 5.287 11.633 5.89"/><path fill="url(#valentine_svg__u)" d="M56.897 24.806a1.3 1.3 0 0 0 1.208-.433c2.041-2.327 5.305-7.19 5.544-12.13.599-6.53-6.932-8.985-9.944-4.317-.314.487-.723 1.062-.969 1.556-.111.225-.403.344-.633.245-.643-.278-1.606-.586-2.213-.749-4.341-1.17-9.667 4.177-4.626 9.938 2.037 2.663 8.277 5.287 11.633 5.89"/><path fill="url(#valentine_svg__v)" d="M56.897 24.806a1.3 1.3 0 0 0 1.208-.433c2.041-2.327 5.305-7.19 5.544-12.13.599-6.53-6.932-8.985-9.944-4.317-.314.487-.723 1.062-.969 1.556-.111.225-.403.344-.633.245-.643-.278-1.606-.586-2.213-.749-4.341-1.17-9.667 4.177-4.626 9.938 2.037 2.663 8.277 5.287 11.633 5.89"/><path fill="url(#valentine_svg__w)" d="M56.897 24.806a1.3 1.3 0 0 0 1.208-.433c2.041-2.327 5.305-7.19 5.544-12.13.599-6.53-6.932-8.985-9.944-4.317-.314.487-.723 1.062-.969 1.556-.111.225-.403.344-.633.245-.643-.278-1.606-.586-2.213-.749-4.341-1.17-9.667 4.177-4.626 9.938 2.037 2.663 8.277 5.287 11.633 5.89"/><path fill="url(#valentine_svg__x)" d="M56.897 24.806a1.3 1.3 0 0 0 1.208-.433c2.041-2.327 5.305-7.19 5.544-12.13.599-6.53-6.932-8.985-9.944-4.317-.314.487-.723 1.062-.969 1.556-.111.225-.403.344-.633.245-.643-.278-1.606-.586-2.213-.749-4.341-1.17-9.667 4.177-4.626 9.938 2.037 2.663 8.277 5.287 11.633 5.89"/><path fill="url(#valentine_svg__y)" fill-opacity=".6" d="M56.897 24.806a1.3 1.3 0 0 0 1.208-.433c2.041-2.327 5.305-7.19 5.544-12.13.599-6.53-6.932-8.985-9.944-4.317-.314.487-.723 1.062-.969 1.556-.111.225-.403.344-.633.245-.643-.278-1.606-.586-2.213-.749-4.341-1.17-9.667 4.177-4.626 9.938 2.037 2.663 8.277 5.287 11.633 5.89"/><g filter="url(#valentine_svg__z)"><path fill="#fa1c32" d="m52.831 11.404 1.666 4.838c.221.642 1.103.679 1.33.04.703-1.98 1.052-4.21-.593-5.368-.63-.445-1.58-.542-2.206-.191-.235.13-.284.427-.197.681"/></g><g filter="url(#valentine_svg__A)"><path fill="url(#valentine_svg__B)" d="M61.719 11.111c.833-1.65.4-3.547-.968-4.238s-3.152.086-3.986 1.735c-.833 1.65-.4 3.547.968 4.239 1.367.69 3.152-.086 3.986-1.736"/></g><g filter="url(#valentine_svg__C)"><path fill="#ff737f" d="M57.15 6.649c.686-.144 1.217-.378 1.187-.522s-.611-.145-1.297 0c-.687.143-1.219.376-1.188.52.03.145.61.146 1.297.002"/></g><g filter="url(#valentine_svg__D)"><path fill="#ff93a3" fill-opacity=".5" d="M47.175 9.99c.592-.212 1.044-.463 1.01-.56s-.544-.004-1.136.208-1.044.463-1.01.56.544.004 1.136-.208"/></g><g filter="url(#valentine_svg__E)"><path fill="url(#valentine_svg__F)" d="m51.936 11.253 2.725 7.192c-6.508-3.064-8.593-6.07-6.982-7.462 1.529-1.32 3.344-.655 4.257.27"/></g><g filter="url(#valentine_svg__G)"><path fill="#ff737f" d="M51.434 10.95a.96.96 0 0 1-1.078-.54c.462.236.805.152.92.08z"/></g><path fill="url(#valentine_svg__H)" d="M9.59 45.435a1.08 1.08 0 0 0 1.068.043c2.304-1.16 6.344-3.9 8.07-7.641 2.502-4.859-2.55-9.107-6.335-6.44-.396.278-.89.594-1.235.9-.156.138-.418.14-.565-.008a16 16 0 0 0-1.476-1.27c-2.99-2.26-8.773.21-6.677 6.234.743 2.694 4.745 6.67 7.15 8.182"/><path fill="url(#valentine_svg__I)" d="M9.59 45.435a1.08 1.08 0 0 0 1.068.043c2.304-1.16 6.344-3.9 8.07-7.641 2.502-4.859-2.55-9.107-6.335-6.44-.396.278-.89.594-1.235.9-.156.138-.418.14-.565-.008a16 16 0 0 0-1.476-1.27c-2.99-2.26-8.773.21-6.677 6.234.743 2.694 4.745 6.67 7.15 8.182"/><path fill="url(#valentine_svg__J)" d="M9.59 45.435a1.08 1.08 0 0 0 1.068.043c2.304-1.16 6.344-3.9 8.07-7.641 2.502-4.859-2.55-9.107-6.335-6.44-.396.278-.89.594-1.235.9-.156.138-.418.14-.565-.008a16 16 0 0 0-1.476-1.27c-2.99-2.26-8.773.21-6.677 6.234.743 2.694 4.745 6.67 7.15 8.182"/><path fill="url(#valentine_svg__K)" d="M9.59 45.435a1.08 1.08 0 0 0 1.068.043c2.304-1.16 6.344-3.9 8.07-7.641 2.502-4.859-2.55-9.107-6.335-6.44-.396.278-.89.594-1.235.9-.156.138-.418.14-.565-.008a16 16 0 0 0-1.476-1.27c-2.99-2.26-8.773.21-6.677 6.234.743 2.694 4.745 6.67 7.15 8.182"/><path fill="url(#valentine_svg__L)" d="M9.59 45.435a1.08 1.08 0 0 0 1.068.043c2.304-1.16 6.344-3.9 8.07-7.641 2.502-4.859-2.55-9.107-6.335-6.44-.396.278-.89.594-1.235.9-.156.138-.418.14-.565-.008a16 16 0 0 0-1.476-1.27c-2.99-2.26-8.773.21-6.677 6.234.743 2.694 4.745 6.67 7.15 8.182"/><path fill="url(#valentine_svg__M)" d="M9.59 45.435a1.08 1.08 0 0 0 1.068.043c2.304-1.16 6.344-3.9 8.07-7.641 2.502-4.859-2.55-9.107-6.335-6.44-.396.278-.89.594-1.235.9-.156.138-.418.14-.565-.008a16 16 0 0 0-1.476-1.27c-2.99-2.26-8.773.21-6.677 6.234.743 2.694 4.745 6.67 7.15 8.182"/><path fill="url(#valentine_svg__N)" fill-opacity=".6" d="M9.59 45.435a1.08 1.08 0 0 0 1.068.043c2.304-1.16 6.344-3.9 8.07-7.641 2.502-4.859-2.55-9.107-6.335-6.44-.396.278-.89.594-1.235.9-.156.138-.418.14-.565-.008a16 16 0 0 0-1.476-1.27c-2.99-2.26-8.773.21-6.677 6.234.743 2.694 4.745 6.67 7.15 8.182"/><g filter="url(#valentine_svg__O)"><path fill="#fa1c32" d="m10.632 33.811-.223 4.258c-.03.565.64.869 1.015.446 1.161-1.31 2.127-2.924 1.218-4.333-.349-.54-1.052-.911-1.646-.836-.222.028-.352.242-.364.466z"/></g><g filter="url(#valentine_svg__P)"><path fill="url(#valentine_svg__Q)" d="M17.59 36.36c1.159-1.015 1.416-2.616.576-3.577-.842-.961-2.463-.918-3.622.096-1.16 1.015-1.417 2.616-.576 3.577s2.463.918 3.622-.096"/></g><g filter="url(#valentine_svg__R)"><path fill="#ff737f" d="M15.453 31.485c.575.103 1.06.089 1.081-.032.022-.121-.427-.303-1.002-.406s-1.06-.089-1.081.032c-.022.121.427.303 1.002.406"/></g><g filter="url(#valentine_svg__S)"><path fill="#ff93a3" fill-opacity=".5" d="M6.704 30.952c.524.021.951-.031.955-.117.003-.086-.419-.172-.943-.194-.524-.02-.951.032-.955.118-.003.086.419.172.943.193"/></g><g filter="url(#valentine_svg__T)"><path fill="url(#valentine_svg__U)" d="m9.987 33.415-.14 6.408c-4.072-4.4-4.745-7.373-3.065-7.945 1.593-.543 2.788.537 3.205 1.537"/></g><g filter="url(#valentine_svg__V)"><path fill="#ff737f" d="M9.694 33.025a.8.8 0 0 1-.665-.755c.284.328.575.37.686.349z"/></g><g style="mix-blend-mode:screen"><path fill="url(#valentine_svg__W)" d="M36.015 37.732a.76.76 0 0 0 .724-.19c1.305-1.249 3.449-3.909 3.838-6.767.68-3.764-3.57-5.574-5.559-3.015-.207.268-.474.58-.642.856-.076.124-.251.179-.38.11-.36-.194-.904-.422-1.248-.548-2.463-.9-5.83 1.936-3.193 5.54 1.048 1.651 4.54 3.493 6.46 4.014"/><path fill="url(#valentine_svg__X)" d="M36.015 37.732a.76.76 0 0 0 .724-.19c1.305-1.249 3.449-3.909 3.838-6.767.68-3.764-3.57-5.574-5.559-3.015-.207.268-.474.58-.642.856-.076.124-.251.179-.38.11-.36-.194-.904-.422-1.248-.548-2.463-.9-5.83 1.936-3.193 5.54 1.048 1.651 4.54 3.493 6.46 4.014"/><path fill="url(#valentine_svg__Y)" d="M36.015 37.732a.76.76 0 0 0 .724-.19c1.305-1.249 3.449-3.909 3.838-6.767.68-3.764-3.57-5.574-5.559-3.015-.207.268-.474.58-.642.856-.076.124-.251.179-.38.11-.36-.194-.904-.422-1.248-.548-2.463-.9-5.83 1.936-3.193 5.54 1.048 1.651 4.54 3.493 6.46 4.014"/><path fill="url(#valentine_svg__Z)" d="M36.015 37.732a.76.76 0 0 0 .724-.19c1.305-1.249 3.449-3.909 3.838-6.767.68-3.764-3.57-5.574-5.559-3.015-.207.268-.474.58-.642.856-.076.124-.251.179-.38.11-.36-.194-.904-.422-1.248-.548-2.463-.9-5.83 1.936-3.193 5.54 1.048 1.651 4.54 3.493 6.46 4.014"/><path fill="url(#valentine_svg__aa)" d="M36.015 37.732a.76.76 0 0 0 .724-.19c1.305-1.249 3.449-3.909 3.838-6.767.68-3.764-3.57-5.574-5.559-3.015-.207.268-.474.58-.642.856-.076.124-.251.179-.38.11-.36-.194-.904-.422-1.248-.548-2.463-.9-5.83 1.936-3.193 5.54 1.048 1.651 4.54 3.493 6.46 4.014"/><path fill="url(#valentine_svg__ab)" d="M36.015 37.732a.76.76 0 0 0 .724-.19c1.305-1.249 3.449-3.909 3.838-6.767.68-3.764-3.57-5.574-5.559-3.015-.207.268-.474.58-.642.856-.076.124-.251.179-.38.11-.36-.194-.904-.422-1.248-.548-2.463-.9-5.83 1.936-3.193 5.54 1.048 1.651 4.54 3.493 6.46 4.014"/><path fill="url(#valentine_svg__ac)" fill-opacity=".6" d="M36.015 37.732a.76.76 0 0 0 .724-.19c1.305-1.249 3.449-3.909 3.838-6.767.68-3.764-3.57-5.574-5.559-3.015-.207.268-.474.58-.642.856-.076.124-.251.179-.38.11-.36-.194-.904-.422-1.248-.548-2.463-.9-5.83 1.936-3.193 5.54 1.048 1.651 4.54 3.493 6.46 4.014"/><g filter="url(#valentine_svg__ad)"><path fill="#fa1c32" d="m34.333 29.737.722 2.896c.096.385.607.45.771.09.51-1.113.825-2.392-.072-3.149-.343-.29-.89-.395-1.272-.223-.143.064-.187.234-.149.387z"/></g><g filter="url(#valentine_svg__ae)"><path fill="url(#valentine_svg__af)" d="M39.515 30.019c.568-.916.413-2.041-.347-2.512s-1.836-.11-2.405.805c-.568.916-.413 2.041.347 2.512s1.836.111 2.405-.805"/></g><g filter="url(#valentine_svg__ag)"><path fill="#ff737f" d="M37.085 27.194c.406-.05.727-.158.717-.243-.01-.086-.348-.115-.754-.067-.406.049-.727.158-.717.243s.348.115.754.067"/></g><g filter="url(#valentine_svg__ah)"><path fill="#ff93a3" fill-opacity=".5" d="M31.118 28.628c.355-.093.63-.216.615-.274s-.315-.03-.67.063-.63.216-.615.274.315.03.67-.063"/></g><g filter="url(#valentine_svg__ai)"><path fill="url(#valentine_svg__aj)" d="m33.822 29.604 1.217 4.318c-3.626-2.111-4.685-3.965-3.678-4.691.956-.69 1.977-.211 2.46.373"/></g><g filter="url(#valentine_svg__ak)"><path fill="#ff737f" d="M33.545 29.402a.56.56 0 0 1-.6-.369c.257.162.461.13.53.093z"/></g><path fill="url(#valentine_svg__al)" d="M56.897 24.806a1.3 1.3 0 0 0 1.208-.433c2.041-2.327 5.305-7.19 5.544-12.13.599-6.53-6.932-8.985-9.944-4.317-.314.487-.723 1.062-.969 1.556-.111.225-.403.344-.633.245-.643-.278-1.606-.586-2.213-.749-4.341-1.17-9.667 4.177-4.626 9.938 2.037 2.663 8.277 5.287 11.633 5.89"/><path fill="url(#valentine_svg__am)" d="M56.897 24.806a1.3 1.3 0 0 0 1.208-.433c2.041-2.327 5.305-7.19 5.544-12.13.599-6.53-6.932-8.985-9.944-4.317-.314.487-.723 1.062-.969 1.556-.111.225-.403.344-.633.245-.643-.278-1.606-.586-2.213-.749-4.341-1.17-9.667 4.177-4.626 9.938 2.037 2.663 8.277 5.287 11.633 5.89"/><path fill="url(#valentine_svg__an)" d="M56.897 24.806a1.3 1.3 0 0 0 1.208-.433c2.041-2.327 5.305-7.19 5.544-12.13.599-6.53-6.932-8.985-9.944-4.317-.314.487-.723 1.062-.969 1.556-.111.225-.403.344-.633.245-.643-.278-1.606-.586-2.213-.749-4.341-1.17-9.667 4.177-4.626 9.938 2.037 2.663 8.277 5.287 11.633 5.89"/><path fill="url(#valentine_svg__ao)" d="M56.897 24.806a1.3 1.3 0 0 0 1.208-.433c2.041-2.327 5.305-7.19 5.544-12.13.599-6.53-6.932-8.985-9.944-4.317-.314.487-.723 1.062-.969 1.556-.111.225-.403.344-.633.245-.643-.278-1.606-.586-2.213-.749-4.341-1.17-9.667 4.177-4.626 9.938 2.037 2.663 8.277 5.287 11.633 5.89"/><path fill="url(#valentine_svg__ap)" d="M56.897 24.806a1.3 1.3 0 0 0 1.208-.433c2.041-2.327 5.305-7.19 5.544-12.13.599-6.53-6.932-8.985-9.944-4.317-.314.487-.723 1.062-.969 1.556-.111.225-.403.344-.633.245-.643-.278-1.606-.586-2.213-.749-4.341-1.17-9.667 4.177-4.626 9.938 2.037 2.663 8.277 5.287 11.633 5.89"/><path fill="url(#valentine_svg__aq)" d="M56.897 24.806a1.3 1.3 0 0 0 1.208-.433c2.041-2.327 5.305-7.19 5.544-12.13.599-6.53-6.932-8.985-9.944-4.317-.314.487-.723 1.062-.969 1.556-.111.225-.403.344-.633.245-.643-.278-1.606-.586-2.213-.749-4.341-1.17-9.667 4.177-4.626 9.938 2.037 2.663 8.277 5.287 11.633 5.89"/><path fill="url(#valentine_svg__ar)" fill-opacity=".6" d="M56.897 24.806a1.3 1.3 0 0 0 1.208-.433c2.041-2.327 5.305-7.19 5.544-12.13.599-6.53-6.932-8.985-9.944-4.317-.314.487-.723 1.062-.969 1.556-.111.225-.403.344-.633.245-.643-.278-1.606-.586-2.213-.749-4.341-1.17-9.667 4.177-4.626 9.938 2.037 2.663 8.277 5.287 11.633 5.89"/><g filter="url(#valentine_svg__as)"><path fill="#fa1c32" d="m52.831 11.404 1.666 4.838c.221.642 1.103.679 1.33.04.703-1.98 1.052-4.21-.593-5.368-.63-.445-1.58-.542-2.206-.191-.235.13-.284.427-.197.681"/></g><g filter="url(#valentine_svg__at)"><path fill="url(#valentine_svg__au)" d="M61.72 11.112c.834-1.65.401-3.547-.967-4.239s-3.152.086-3.986 1.735c-.833 1.65-.4 3.548.967 4.239 1.368.691 3.153-.086 3.987-1.735"/></g><g filter="url(#valentine_svg__av)"><path fill="#ff737f" d="M57.15 6.649c.686-.144 1.217-.378 1.187-.522s-.611-.145-1.297 0c-.687.143-1.219.376-1.188.52.03.145.61.146 1.297.002"/></g><g filter="url(#valentine_svg__aw)"><path fill="#ff93a3" fill-opacity=".5" d="M47.175 9.99c.592-.212 1.044-.463 1.01-.56s-.544-.004-1.136.208-1.044.463-1.01.56.544.004 1.136-.208"/></g><g filter="url(#valentine_svg__ax)"><path fill="url(#valentine_svg__ay)" d="m51.936 11.253 2.725 7.192c-6.508-3.064-8.593-6.07-6.982-7.462 1.529-1.32 3.344-.655 4.257.27"/></g><g filter="url(#valentine_svg__az)"><path fill="#ff737f" d="M51.434 10.95a.96.96 0 0 1-1.078-.54c.462.236.805.152.92.08z"/></g><path fill="url(#valentine_svg__aA)" d="M9.59 45.435a1.08 1.08 0 0 0 1.068.043c2.304-1.16 6.344-3.9 8.07-7.641 2.502-4.859-2.55-9.107-6.335-6.44-.396.278-.89.594-1.235.9-.156.138-.418.14-.565-.008a16 16 0 0 0-1.476-1.27c-2.99-2.26-8.773.21-6.677 6.234.743 2.694 4.745 6.67 7.15 8.182"/><path fill="url(#valentine_svg__aB)" d="M9.59 45.435a1.08 1.08 0 0 0 1.068.043c2.304-1.16 6.344-3.9 8.07-7.641 2.502-4.859-2.55-9.107-6.335-6.44-.396.278-.89.594-1.235.9-.156.138-.418.14-.565-.008a16 16 0 0 0-1.476-1.27c-2.99-2.26-8.773.21-6.677 6.234.743 2.694 4.745 6.67 7.15 8.182"/><path fill="url(#valentine_svg__aC)" d="M9.59 45.435a1.08 1.08 0 0 0 1.068.043c2.304-1.16 6.344-3.9 8.07-7.641 2.502-4.859-2.55-9.107-6.335-6.44-.396.278-.89.594-1.235.9-.156.138-.418.14-.565-.008a16 16 0 0 0-1.476-1.27c-2.99-2.26-8.773.21-6.677 6.234.743 2.694 4.745 6.67 7.15 8.182"/><path fill="url(#valentine_svg__aD)" d="M9.59 45.435a1.08 1.08 0 0 0 1.068.043c2.304-1.16 6.344-3.9 8.07-7.641 2.502-4.859-2.55-9.107-6.335-6.44-.396.278-.89.594-1.235.9-.156.138-.418.14-.565-.008a16 16 0 0 0-1.476-1.27c-2.99-2.26-8.773.21-6.677 6.234.743 2.694 4.745 6.67 7.15 8.182"/><path fill="url(#valentine_svg__aE)" d="M9.59 45.435a1.08 1.08 0 0 0 1.068.043c2.304-1.16 6.344-3.9 8.07-7.641 2.502-4.859-2.55-9.107-6.335-6.44-.396.278-.89.594-1.235.9-.156.138-.418.14-.565-.008a16 16 0 0 0-1.476-1.27c-2.99-2.26-8.773.21-6.677 6.234.743 2.694 4.745 6.67 7.15 8.182"/><path fill="url(#valentine_svg__aF)" d="M9.59 45.435a1.08 1.08 0 0 0 1.068.043c2.304-1.16 6.344-3.9 8.07-7.641 2.502-4.859-2.55-9.107-6.335-6.44-.396.278-.89.594-1.235.9-.156.138-.418.14-.565-.008a16 16 0 0 0-1.476-1.27c-2.99-2.26-8.773.21-6.677 6.234.743 2.694 4.745 6.67 7.15 8.182"/><path fill="url(#valentine_svg__aG)" fill-opacity=".6" d="M9.59 45.435a1.08 1.08 0 0 0 1.068.043c2.304-1.16 6.344-3.9 8.07-7.641 2.502-4.859-2.55-9.107-6.335-6.44-.396.278-.89.594-1.235.9-.156.138-.418.14-.565-.008a16 16 0 0 0-1.476-1.27c-2.99-2.26-8.773.21-6.677 6.234.743 2.694 4.745 6.67 7.15 8.182"/><g filter="url(#valentine_svg__aH)"><path fill="#fa1c32" d="m10.632 33.811-.223 4.258c-.03.565.64.869 1.015.446 1.161-1.31 2.127-2.924 1.218-4.333-.349-.54-1.052-.911-1.646-.836-.222.028-.352.242-.364.466z"/></g><g filter="url(#valentine_svg__aI)"><path fill="url(#valentine_svg__aJ)" d="M17.592 36.36c1.159-1.015 1.417-2.616.575-3.577-.84-.961-2.462-.918-3.621.096-1.16 1.015-1.417 2.616-.576 3.577s2.463.918 3.622-.096"/></g><g filter="url(#valentine_svg__aK)"><path fill="#ff737f" d="M15.451 31.485c.575.103 1.06.089 1.081-.032.022-.121-.427-.303-1.002-.406s-1.06-.089-1.081.032c-.022.121.427.303 1.002.406"/></g><g filter="url(#valentine_svg__aL)"><path fill="#ff93a3" fill-opacity=".5" d="M6.703 30.952c.524.021.952-.031.955-.117s-.418-.172-.942-.194c-.524-.02-.952.032-.955.118s.418.172.942.193"/></g><g filter="url(#valentine_svg__aM)"><path fill="url(#valentine_svg__aN)" d="m9.987 33.415-.14 6.408c-4.072-4.4-4.745-7.373-3.065-7.945 1.593-.543 2.788.537 3.205 1.537"/></g><g filter="url(#valentine_svg__aO)"><path fill="#ff737f" d="M9.694 33.025a.8.8 0 0 1-.665-.755c.284.328.575.37.686.349z"/></g></g><defs><radialGradient id="valentine_svg__d" cx="0" cy="0" r="1" gradientTransform="rotate(76 -.798 35.462)scale(10.0557 10.6759)" gradientUnits="userSpaceOnUse"><stop stop-color="#ff406d"/><stop offset=".528" stop-color="#ff3b3e"/><stop offset="1" stop-color="#851717"/></radialGradient><radialGradient id="valentine_svg__e" cx="0" cy="0" r="1" gradientTransform="rotate(120.402 10.322 25.388)scale(9.30331 17.426)" gradientUnits="userSpaceOnUse"><stop offset=".798" stop-color="#8d142c" stop-opacity="0"/><stop offset=".908" stop-color="#8d142c"/></radialGradient><radialGradient id="valentine_svg__f" cx="0" cy="0" r="1" gradientTransform="rotate(187.337 19.456 15.01)scale(9.95269 14.0696)" gradientUnits="userSpaceOnUse"><stop offset=".41" stop-color="#df0e34" stop-opacity="0"/><stop offset=".834" stop-color="#df0e34"/></radialGradient><radialGradient id="valentine_svg__g" cx="0" cy="0" r="1" gradientTransform="rotate(76 -2.678 37.682)scale(8.66215)" gradientUnits="userSpaceOnUse"><stop offset=".671" stop-color="#e03e49" stop-opacity="0"/><stop offset=".934" stop-color="#e03e49"/></radialGradient><radialGradient id="valentine_svg__j" cx="0" cy="0" r="1" gradientTransform="rotate(150.618 13.814 19.909)scale(7.53139 7.95384)" gradientUnits="userSpaceOnUse"><stop offset=".802" stop-color="#e23c4f" stop-opacity="0"/><stop offset="1" stop-color="#e23c4f"/></radialGradient><radialGradient id="valentine_svg__m" cx="0" cy="0" r="1" gradientTransform="rotate(114.737 10.762 26.264)scale(3.18997 4.24183)" gradientUnits="userSpaceOnUse"><stop stop-color="#ff7383"/><stop offset="1" stop-color="#ff7383" stop-opacity="0"/></radialGradient><radialGradient id="valentine_svg__q" cx="0" cy="0" r="1" gradientTransform="rotate(210.409 21.66 10.807)scale(5.55017 9.8525)" gradientUnits="userSpaceOnUse"><stop stop-color="#ff627a"/><stop offset="1" stop-color="#ff627a" stop-opacity="0"/></radialGradient><radialGradient id="valentine_svg__s" cx="0" cy="0" r="1" gradientTransform="rotate(71 20.248 40.146)scale(17.2384 18.3016)" gradientUnits="userSpaceOnUse"><stop stop-color="#ff406d"/><stop offset=".528" stop-color="#ff3b3e"/><stop offset="1" stop-color="#851717"/></radialGradient><radialGradient id="valentine_svg__t" cx="0" cy="0" r="1" gradientTransform="rotate(115.402 25.8 23.482)scale(15.9485 29.8731)" gradientUnits="userSpaceOnUse"><stop offset=".798" stop-color="#8d142c" stop-opacity="0"/><stop offset=".908" stop-color="#8d142c"/></radialGradient><radialGradient id="valentine_svg__u" cx="0" cy="0" r="1" gradientTransform="rotate(182.337 28.909 7.186)scale(17.0617 24.1192)" gradientUnits="userSpaceOnUse"><stop offset=".41" stop-color="#df0e34" stop-opacity="0"/><stop offset=".834" stop-color="#df0e34"/></radialGradient><radialGradient id="valentine_svg__v" cx="0" cy="0" r="1" gradientTransform="rotate(71 17.01 44.327)scale(14.8494)" gradientUnits="userSpaceOnUse"><stop offset=".671" stop-color="#e03e49" stop-opacity="0"/><stop offset=".934" stop-color="#e03e49"/></radialGradient><radialGradient id="valentine_svg__y" cx="0" cy="0" r="1" gradientTransform="rotate(145.618 25.637 14.768)scale(12.9109 13.6351)" gradientUnits="userSpaceOnUse"><stop offset=".802" stop-color="#e23c4f" stop-opacity="0"/><stop offset="1" stop-color="#e23c4f"/></radialGradient><radialGradient id="valentine_svg__B" cx="0" cy="0" r="1" gradientTransform="rotate(109.737 27.928 24.76)scale(5.46853 7.27171)" gradientUnits="userSpaceOnUse"><stop stop-color="#ff7383"/><stop offset="1" stop-color="#ff7383" stop-opacity="0"/></radialGradient><radialGradient id="valentine_svg__F" cx="0" cy="0" r="1" gradientTransform="rotate(205.409 28.51 .738)scale(9.51457 16.89)" gradientUnits="userSpaceOnUse"><stop stop-color="#ff627a"/><stop offset="1" stop-color="#ff627a" stop-opacity="0"/></radialGradient><radialGradient id="valentine_svg__H" cx="0" cy="0" r="1" gradientTransform="rotate(93 -9.201 20.487)scale(14.3653 15.2513)" gradientUnits="userSpaceOnUse"><stop stop-color="#ff406d"/><stop offset=".528" stop-color="#ff3b3e"/><stop offset="1" stop-color="#851717"/></radialGradient><radialGradient id="valentine_svg__I" cx="0" cy="0" r="1" gradientTransform="rotate(137.402 .787 20.212)scale(13.2904 24.8943)" gradientUnits="userSpaceOnUse"><stop offset=".798" stop-color="#8d142c" stop-opacity="0"/><stop offset=".908" stop-color="#8d142c"/></radialGradient><radialGradient id="valentine_svg__J" cx="0" cy="0" r="1" gradientTransform="rotate(204.337 10.62 17.839)scale(14.2181 20.0994)" gradientUnits="userSpaceOnUse"><stop offset=".41" stop-color="#df0e34" stop-opacity="0"/><stop offset=".834" stop-color="#df0e34"/></radialGradient><radialGradient id="valentine_svg__K" cx="0" cy="0" r="1" gradientTransform="rotate(93 -11.854 22.813)scale(12.3745)" gradientUnits="userSpaceOnUse"><stop offset=".671" stop-color="#e03e49" stop-opacity="0"/><stop offset=".934" stop-color="#e03e49"/></radialGradient><radialGradient id="valentine_svg__N" cx="0" cy="0" r="1" gradientTransform="rotate(167.618 4.12 18.336)scale(10.7591 11.3626)" gradientUnits="userSpaceOnUse"><stop offset=".802" stop-color="#e23c4f" stop-opacity="0"/><stop offset="1" stop-color="#e23c4f"/></radialGradient><radialGradient id="valentine_svg__Q" cx="0" cy="0" r="1" gradientTransform="rotate(131.737 1.725 20.42)scale(4.55711 6.05976)" gradientUnits="userSpaceOnUse"><stop stop-color="#ff7383"/><stop offset="1" stop-color="#ff7383" stop-opacity="0"/></radialGradient><radialGradient id="valentine_svg__U" cx="0" cy="0" r="1" gradientTransform="rotate(227.409 13.276 15.572)scale(7.92881 14.075)" gradientUnits="userSpaceOnUse"><stop stop-color="#ff627a"/><stop offset="1" stop-color="#ff627a" stop-opacity="0"/></radialGradient><radialGradient id="valentine_svg__W" cx="0" cy="0" r="1" gradientTransform="rotate(76 -.798 35.462)scale(10.0557 10.6759)" gradientUnits="userSpaceOnUse"><stop stop-color="#ff406d"/><stop offset=".528" stop-color="#ff3b3e"/><stop offset="1" stop-color="#851717"/></radialGradient><radialGradient id="valentine_svg__X" cx="0" cy="0" r="1" gradientTransform="rotate(120.402 10.322 25.388)scale(9.30331 17.426)" gradientUnits="userSpaceOnUse"><stop offset=".798" stop-color="#8d142c" stop-opacity="0"/><stop offset=".908" stop-color="#8d142c"/></radialGradient><radialGradient id="valentine_svg__Y" cx="0" cy="0" r="1" gradientTransform="rotate(187.337 19.456 15.01)scale(9.95269 14.0696)" gradientUnits="userSpaceOnUse"><stop offset=".41" stop-color="#df0e34" stop-opacity="0"/><stop offset=".834" stop-color="#df0e34"/></radialGradient><radialGradient id="valentine_svg__Z" cx="0" cy="0" r="1" gradientTransform="rotate(76 -2.678 37.682)scale(8.66215)" gradientUnits="userSpaceOnUse"><stop offset=".671" stop-color="#e03e49" stop-opacity="0"/><stop offset=".934" stop-color="#e03e49"/></radialGradient><radialGradient id="valentine_svg__ac" cx="0" cy="0" r="1" gradientTransform="rotate(150.618 13.814 19.909)scale(7.53139 7.95384)" gradientUnits="userSpaceOnUse"><stop offset=".802" stop-color="#e23c4f" stop-opacity="0"/><stop offset="1" stop-color="#e23c4f"/></radialGradient><radialGradient id="valentine_svg__af" cx="0" cy="0" r="1" gradientTransform="rotate(114.737 10.762 26.264)scale(3.18997 4.24183)" gradientUnits="userSpaceOnUse"><stop stop-color="#ff7383"/><stop offset="1" stop-color="#ff7383" stop-opacity="0"/></radialGradient><radialGradient id="valentine_svg__aj" cx="0" cy="0" r="1" gradientTransform="rotate(210.409 21.66 10.807)scale(5.55017 9.8525)" gradientUnits="userSpaceOnUse"><stop stop-color="#ff627a"/><stop offset="1" stop-color="#ff627a" stop-opacity="0"/></radialGradient><radialGradient id="valentine_svg__al" cx="0" cy="0" r="1" gradientTransform="rotate(71 20.248 40.146)scale(17.2384 18.3016)" gradientUnits="userSpaceOnUse"><stop stop-color="#ff406d"/><stop offset=".528" stop-color="#ff3b3e"/><stop offset="1" stop-color="#851717"/></radialGradient><radialGradient id="valentine_svg__am" cx="0" cy="0" r="1" gradientTransform="rotate(115.402 25.8 23.482)scale(15.9485 29.8731)" gradientUnits="userSpaceOnUse"><stop offset=".798" stop-color="#8d142c" stop-opacity="0"/><stop offset=".908" stop-color="#8d142c"/></radialGradient><radialGradient id="valentine_svg__an" cx="0" cy="0" r="1" gradientTransform="rotate(182.337 28.909 7.186)scale(17.0617 24.1192)" gradientUnits="userSpaceOnUse"><stop offset=".41" stop-color="#df0e34" stop-opacity="0"/><stop offset=".834" stop-color="#df0e34"/></radialGradient><radialGradient id="valentine_svg__ao" cx="0" cy="0" r="1" gradientTransform="rotate(71 17.01 44.327)scale(14.8494)" gradientUnits="userSpaceOnUse"><stop offset=".671" stop-color="#e03e49" stop-opacity="0"/><stop offset=".934" stop-color="#e03e49"/></radialGradient><radialGradient id="valentine_svg__ar" cx="0" cy="0" r="1" gradientTransform="rotate(145.618 25.637 14.768)scale(12.9109 13.6351)" gradientUnits="userSpaceOnUse"><stop offset=".802" stop-color="#e23c4f" stop-opacity="0"/><stop offset="1" stop-color="#e23c4f"/></radialGradient><radialGradient id="valentine_svg__au" cx="0" cy="0" r="1" gradientTransform="rotate(109.737 27.93 24.761)scale(5.46853 7.27171)" gradientUnits="userSpaceOnUse"><stop stop-color="#ff7383"/><stop offset="1" stop-color="#ff7383" stop-opacity="0"/></radialGradient><radialGradient id="valentine_svg__ay" cx="0" cy="0" r="1" gradientTransform="rotate(205.409 28.51 .738)scale(9.51457 16.89)" gradientUnits="userSpaceOnUse"><stop stop-color="#ff627a"/><stop offset="1" stop-color="#ff627a" stop-opacity="0"/></radialGradient><radialGradient id="valentine_svg__aA" cx="0" cy="0" r="1" gradientTransform="rotate(93 -9.201 20.487)scale(14.3653 15.2513)" gradientUnits="userSpaceOnUse"><stop stop-color="#ff406d"/><stop offset=".528" stop-color="#ff3b3e"/><stop offset="1" stop-color="#851717"/></radialGradient><radialGradient id="valentine_svg__aB" cx="0" cy="0" r="1" gradientTransform="rotate(137.402 .787 20.212)scale(13.2904 24.8943)" gradientUnits="userSpaceOnUse"><stop offset=".798" stop-color="#8d142c" stop-opacity="0"/><stop offset=".908" stop-color="#8d142c"/></radialGradient><radialGradient id="valentine_svg__aC" cx="0" cy="0" r="1" gradientTransform="rotate(204.337 10.62 17.839)scale(14.2181 20.0994)" gradientUnits="userSpaceOnUse"><stop offset=".41" stop-color="#df0e34" stop-opacity="0"/><stop offset=".834" stop-color="#df0e34"/></radialGradient><radialGradient id="valentine_svg__aD" cx="0" cy="0" r="1" gradientTransform="rotate(93 -11.854 22.813)scale(12.3745)" gradientUnits="userSpaceOnUse"><stop offset=".671" stop-color="#e03e49" stop-opacity="0"/><stop offset=".934" stop-color="#e03e49"/></radialGradient><radialGradient id="valentine_svg__aG" cx="0" cy="0" r="1" gradientTransform="rotate(167.618 4.12 18.336)scale(10.7591 11.3626)" gradientUnits="userSpaceOnUse"><stop offset=".802" stop-color="#e23c4f" stop-opacity="0"/><stop offset="1" stop-color="#e23c4f"/></radialGradient><radialGradient id="valentine_svg__aJ" cx="0" cy="0" r="1" gradientTransform="rotate(131.737 1.726 20.42)scale(4.55711 6.05976)" gradientUnits="userSpaceOnUse"><stop stop-color="#ff7383"/><stop offset="1" stop-color="#ff7383" stop-opacity="0"/></radialGradient><radialGradient id="valentine_svg__aN" cx="0" cy="0" r="1" gradientTransform="rotate(227.409 13.276 15.572)scale(7.92881 14.075)" gradientUnits="userSpaceOnUse"><stop stop-color="#ff627a"/><stop offset="1" stop-color="#ff627a" stop-opacity="0"/></radialGradient><filter id="valentine_svg__a" width="16.596" height="17.904" x="23.76" y="1.519" color-interpolation-filters="sRGB" filterUnits="userSpaceOnUse"><feFlood flood-opacity="0" result="BackgroundImageFix"/><feColorMatrix in="SourceAlpha" result="hardAlpha" values="0 0 0 0 0 0 0 0 0 0 0 0 0 0 0 0 0 0 127 0"/><feOffset/><feGaussianBlur stdDeviation="2.5"/><feComposite in2="hardAlpha" operator="out"/><feColorMatrix values="0 0 0 0 1 0 0 0 0 1 0 0 0 0 1 0 0 0 0.3 0"/><feBlend in2="BackgroundImageFix" result="effect1_dropShadow_2548_715"/><feBlend in="SourceGraphic" in2="effect1_dropShadow_2548_715" result="shape"/></filter><filter id="valentine_svg__b" width="13.293" height="13.952" x="6.443" y="12.521" color-interpolation-filters="sRGB" filterUnits="userSpaceOnUse"><feFlood flood-opacity="0" result="BackgroundImageFix"/><feColorMatrix in="SourceAlpha" result="hardAlpha" values="0 0 0 0 0 0 0 0 0 0 0 0 0 0 0 0 0 0 127 0"/><feOffset/><feGaussianBlur stdDeviation="2.5"/><feComposite in2="hardAlpha" operator="out"/><feColorMatrix values="0 0 0 0 1 0 0 0 0 1 0 0 0 0 1 0 0 0 0.3 0"/><feBlend in2="BackgroundImageFix" result="effect1_dropShadow_2548_715"/><feBlend in="SourceGraphic" in2="effect1_dropShadow_2548_715" result="shape"/></filter><filter id="valentine_svg__c" width="14.944" height="15.928" x="45.602" y="30.386" color-interpolation-filters="sRGB" filterUnits="userSpaceOnUse"><feFlood flood-opacity="0" result="BackgroundImageFix"/><feColorMatrix in="SourceAlpha" result="hardAlpha" values="0 0 0 0 0 0 0 0 0 0 0 0 0 0 0 0 0 0 127 0"/><feOffset/><feGaussianBlur stdDeviation="2.5"/><feComposite in2="hardAlpha" operator="out"/><feColorMatrix values="0 0 0 0 1 0 0 0 0 1 0 0 0 0 1 0 0 0 0.3 0"/><feBlend in2="BackgroundImageFix" result="effect1_dropShadow_2548_715"/><feBlend in="SourceGraphic" in2="effect1_dropShadow_2548_715" result="shape"/></filter><filter id="valentine_svg__k" width="6.001" height="7.692" x="32.32" y="27.268" color-interpolation-filters="sRGB" filterUnits="userSpaceOnUse"><feFlood flood-opacity="0" result="BackgroundImageFix"/><feBlend in="SourceGraphic" in2="BackgroundImageFix" result="shape"/><feGaussianBlur result="effect1_foregroundBlur_2548_715" stdDeviation="1"/></filter><filter id="valentine_svg__l" width="6.436" height="6.732" x="34.921" y="25.8" color-interpolation-filters="sRGB" filterUnits="userSpaceOnUse"><feFlood flood-opacity="0" result="BackgroundImageFix"/><feBlend in="SourceGraphic" in2="BackgroundImageFix" result="shape"/><feGaussianBlur result="effect1_foregroundBlur_2548_715" stdDeviation=".75"/></filter><filter id="valentine_svg__n" width="5.472" height="4.356" x="34.331" y="24.861" color-interpolation-filters="sRGB" filterUnits="userSpaceOnUse"><feFlood flood-opacity="0" result="BackgroundImageFix"/><feBlend in="SourceGraphic" in2="BackgroundImageFix" result="shape"/><feGaussianBlur result="effect1_foregroundBlur_2548_715" stdDeviation="1"/></filter><filter id="valentine_svg__o" width="4.287" height="3.397" x="28.947" y="26.823" color-interpolation-filters="sRGB" filterUnits="userSpaceOnUse"><feFlood flood-opacity="0" result="BackgroundImageFix"/><feBlend in="SourceGraphic" in2="BackgroundImageFix" result="shape"/><feGaussianBlur result="effect1_foregroundBlur_2548_715" stdDeviation=".75"/></filter><filter id="valentine_svg__p" width="10.039" height="11.031" x="28" y="25.891" color-interpolation-filters="sRGB" filterUnits="userSpaceOnUse"><feFlood flood-opacity="0" result="BackgroundImageFix"/><feBlend in="SourceGraphic" in2="BackgroundImageFix" result="shape"/><feGaussianBlur result="effect1_foregroundBlur_2548_715" stdDeviation="1.5"/></filter><filter id="valentine_svg__r" width="2.599" height="2.373" x="31.945" y="28.033" color-interpolation-filters="sRGB" filterUnits="userSpaceOnUse"><feFlood flood-opacity="0" result="BackgroundImageFix"/><feBlend in="SourceGraphic" in2="BackgroundImageFix" result="shape"/><feGaussianBlur result="effect1_foregroundBlur_2548_715" stdDeviation=".5"/></filter><filter id="valentine_svg__z" width="7.623" height="10.232" x="50.791" y="8.511" color-interpolation-filters="sRGB" filterUnits="userSpaceOnUse"><feFlood flood-opacity="0" result="BackgroundImageFix"/><feBlend in="SourceGraphic" in2="BackgroundImageFix" result="shape"/><feGaussianBlur result="effect1_foregroundBlur_2548_715" stdDeviation="1"/></filter><filter id="valentine_svg__A" width="8.801" height="9.479" x="54.841" y="5.121" color-interpolation-filters="sRGB" filterUnits="userSpaceOnUse"><feFlood flood-opacity="0" result="BackgroundImageFix"/><feBlend in="SourceGraphic" in2="BackgroundImageFix" result="shape"/><feGaussianBlur result="effect1_foregroundBlur_2548_715" stdDeviation=".75"/></filter><filter id="valentine_svg__C" width="6.488" height="4.738" x="53.851" y="4.019" color-interpolation-filters="sRGB" filterUnits="userSpaceOnUse"><feFlood flood-opacity="0" result="BackgroundImageFix"/><feBlend in="SourceGraphic" in2="BackgroundImageFix" result="shape"/><feGaussianBlur result="effect1_foregroundBlur_2548_715" stdDeviation="1"/></filter><filter id="valentine_svg__D" width="5.149" height="3.845" x="44.538" y="7.891" color-interpolation-filters="sRGB" filterUnits="userSpaceOnUse"><feFlood flood-opacity="0" result="BackgroundImageFix"/><feBlend in="SourceGraphic" in2="BackgroundImageFix" result="shape"/><feGaussianBlur result="effect1_foregroundBlur_2548_715" stdDeviation=".75"/></filter><filter id="valentine_svg__E" width="13.502" height="14.203" x="44.16" y="7.242" color-interpolation-filters="sRGB" filterUnits="userSpaceOnUse"><feFlood flood-opacity="0" result="BackgroundImageFix"/><feBlend in="SourceGraphic" in2="BackgroundImageFix" result="shape"/><feGaussianBlur result="effect1_foregroundBlur_2548_715" stdDeviation="1.5"/></filter><filter id="valentine_svg__G" width="3.079" height="2.562" x="49.355" y="9.409" color-interpolation-filters="sRGB" filterUnits="userSpaceOnUse"><feFlood flood-opacity="0" result="BackgroundImageFix"/><feBlend in="SourceGraphic" in2="BackgroundImageFix" result="shape"/><feGaussianBlur result="effect1_foregroundBlur_2548_715" stdDeviation=".5"/></filter><filter id="valentine_svg__O" width="6.594" height="9.376" x="8.408" y="31.337" color-interpolation-filters="sRGB" filterUnits="userSpaceOnUse"><feFlood flood-opacity="0" result="BackgroundImageFix"/><feBlend in="SourceGraphic" in2="BackgroundImageFix" result="shape"/><feGaussianBlur result="effect1_foregroundBlur_2548_715" stdDeviation="1"/></filter><filter id="valentine_svg__P" width="8.187" height="8.06" x="11.974" y="30.589" color-interpolation-filters="sRGB" filterUnits="userSpaceOnUse"><feFlood flood-opacity="0" result="BackgroundImageFix"/><feBlend in="SourceGraphic" in2="BackgroundImageFix" result="shape"/><feGaussianBlur result="effect1_foregroundBlur_2548_715" stdDeviation=".75"/></filter><filter id="valentine_svg__R" width="6.084" height="4.576" x="12.45" y="28.978" color-interpolation-filters="sRGB" filterUnits="userSpaceOnUse"><feFlood flood-opacity="0" result="BackgroundImageFix"/><feBlend in="SourceGraphic" in2="BackgroundImageFix" result="shape"/><feGaussianBlur result="effect1_foregroundBlur_2548_715" stdDeviation="1"/></filter><filter id="valentine_svg__S" width="4.897" height="3.32" x="4.261" y="29.137" color-interpolation-filters="sRGB" filterUnits="userSpaceOnUse"><feFlood flood-opacity="0" result="BackgroundImageFix"/><feBlend in="SourceGraphic" in2="BackgroundImageFix" result="shape"/><feGaussianBlur result="effect1_foregroundBlur_2548_715" stdDeviation=".75"/></filter><filter id="valentine_svg__T" width="10.062" height="14.09" x="2.925" y="28.733" color-interpolation-filters="sRGB" filterUnits="userSpaceOnUse"><feFlood flood-opacity="0" result="BackgroundImageFix"/><feBlend in="SourceGraphic" in2="BackgroundImageFix" result="shape"/><feGaussianBlur result="effect1_foregroundBlur_2548_715" stdDeviation="1.5"/></filter><filter id="valentine_svg__V" width="2.686" height="2.755" x="8.029" y="31.27" color-interpolation-filters="sRGB" filterUnits="userSpaceOnUse"><feFlood flood-opacity="0" result="BackgroundImageFix"/><feBlend in="SourceGraphic" in2="BackgroundImageFix" result="shape"/><feGaussianBlur result="effect1_foregroundBlur_2548_715" stdDeviation=".5"/></filter><filter id="valentine_svg__ad" width="6.001" height="7.692" x="32.32" y="27.268" color-interpolation-filters="sRGB" filterUnits="userSpaceOnUse"><feFlood flood-opacity="0" result="BackgroundImageFix"/><feBlend in="SourceGraphic" in2="BackgroundImageFix" result="shape"/><feGaussianBlur result="effect1_foregroundBlur_2548_715" stdDeviation="1"/></filter><filter id="valentine_svg__ae" width="6.436" height="6.732" x="34.921" y="25.8" color-interpolation-filters="sRGB" filterUnits="userSpaceOnUse"><feFlood flood-opacity="0" result="BackgroundImageFix"/><feBlend in="SourceGraphic" in2="BackgroundImageFix" result="shape"/><feGaussianBlur result="effect1_foregroundBlur_2548_715" stdDeviation=".75"/></filter><filter id="valentine_svg__ag" width="5.472" height="4.356" x="34.331" y="24.861" color-interpolation-filters="sRGB" filterUnits="userSpaceOnUse"><feFlood flood-opacity="0" result="BackgroundImageFix"/><feBlend in="SourceGraphic" in2="BackgroundImageFix" result="shape"/><feGaussianBlur result="effect1_foregroundBlur_2548_715" stdDeviation="1"/></filter><filter id="valentine_svg__ah" width="4.287" height="3.397" x="28.947" y="26.823" color-interpolation-filters="sRGB" filterUnits="userSpaceOnUse"><feFlood flood-opacity="0" result="BackgroundImageFix"/><feBlend in="SourceGraphic" in2="BackgroundImageFix" result="shape"/><feGaussianBlur result="effect1_foregroundBlur_2548_715" stdDeviation=".75"/></filter><filter id="valentine_svg__ai" width="10.039" height="11.031" x="28" y="25.891" color-interpolation-filters="sRGB" filterUnits="userSpaceOnUse"><feFlood flood-opacity="0" result="BackgroundImageFix"/><feBlend in="SourceGraphic" in2="BackgroundImageFix" result="shape"/><feGaussianBlur result="effect1_foregroundBlur_2548_715" stdDeviation="1.5"/></filter><filter id="valentine_svg__ak" width="2.599" height="2.373" x="31.945" y="28.033" color-interpolation-filters="sRGB" filterUnits="userSpaceOnUse"><feFlood flood-opacity="0" result="BackgroundImageFix"/><feBlend in="SourceGraphic" in2="BackgroundImageFix" result="shape"/><feGaussianBlur result="effect1_foregroundBlur_2548_715" stdDeviation=".5"/></filter><filter id="valentine_svg__as" width="7.623" height="10.232" x="50.791" y="8.511" color-interpolation-filters="sRGB" filterUnits="userSpaceOnUse"><feFlood flood-opacity="0" result="BackgroundImageFix"/><feBlend in="SourceGraphic" in2="BackgroundImageFix" result="shape"/><feGaussianBlur result="effect1_foregroundBlur_2548_715" stdDeviation="1"/></filter><filter id="valentine_svg__at" width="8.801" height="9.479" x="54.843" y="5.121" color-interpolation-filters="sRGB" filterUnits="userSpaceOnUse"><feFlood flood-opacity="0" result="BackgroundImageFix"/><feBlend in="SourceGraphic" in2="BackgroundImageFix" result="shape"/><feGaussianBlur result="effect1_foregroundBlur_2548_715" stdDeviation=".75"/></filter><filter id="valentine_svg__av" width="6.488" height="4.738" x="53.851" y="4.019" color-interpolation-filters="sRGB" filterUnits="userSpaceOnUse"><feFlood flood-opacity="0" result="BackgroundImageFix"/><feBlend in="SourceGraphic" in2="BackgroundImageFix" result="shape"/><feGaussianBlur result="effect1_foregroundBlur_2548_715" stdDeviation="1"/></filter><filter id="valentine_svg__aw" width="5.149" height="3.845" x="44.538" y="7.892" color-interpolation-filters="sRGB" filterUnits="userSpaceOnUse"><feFlood flood-opacity="0" result="BackgroundImageFix"/><feBlend in="SourceGraphic" in2="BackgroundImageFix" result="shape"/><feGaussianBlur result="effect1_foregroundBlur_2548_715" stdDeviation=".75"/></filter><filter id="valentine_svg__ax" width="13.502" height="14.203" x="44.16" y="7.242" color-interpolation-filters="sRGB" filterUnits="userSpaceOnUse"><feFlood flood-opacity="0" result="BackgroundImageFix"/><feBlend in="SourceGraphic" in2="BackgroundImageFix" result="shape"/><feGaussianBlur result="effect1_foregroundBlur_2548_715" stdDeviation="1.5"/></filter><filter id="valentine_svg__az" width="3.079" height="2.562" x="49.355" y="9.409" color-interpolation-filters="sRGB" filterUnits="userSpaceOnUse"><feFlood flood-opacity="0" result="BackgroundImageFix"/><feBlend in="SourceGraphic" in2="BackgroundImageFix" result="shape"/><feGaussianBlur result="effect1_foregroundBlur_2548_715" stdDeviation=".5"/></filter><filter id="valentine_svg__aH" width="6.594" height="9.376" x="8.408" y="31.337" color-interpolation-filters="sRGB" filterUnits="userSpaceOnUse"><feFlood flood-opacity="0" result="BackgroundImageFix"/><feBlend in="SourceGraphic" in2="BackgroundImageFix" result="shape"/><feGaussianBlur result="effect1_foregroundBlur_2548_715" stdDeviation="1"/></filter><filter id="valentine_svg__aI" width="8.187" height="8.06" x="11.976" y="30.589" color-interpolation-filters="sRGB" filterUnits="userSpaceOnUse"><feFlood flood-opacity="0" result="BackgroundImageFix"/><feBlend in="SourceGraphic" in2="BackgroundImageFix" result="shape"/><feGaussianBlur result="effect1_foregroundBlur_2548_715" stdDeviation=".75"/></filter><filter id="valentine_svg__aK" width="6.084" height="4.576" x="12.448" y="28.978" color-interpolation-filters="sRGB" filterUnits="userSpaceOnUse"><feFlood flood-opacity="0" result="BackgroundImageFix"/><feBlend in="SourceGraphic" in2="BackgroundImageFix" result="shape"/><feGaussianBlur result="effect1_foregroundBlur_2548_715" stdDeviation="1"/></filter><filter id="valentine_svg__aL" width="4.897" height="3.32" x="4.261" y="29.137" color-interpolation-filters="sRGB" filterUnits="userSpaceOnUse"><feFlood flood-opacity="0" result="BackgroundImageFix"/><feBlend in="SourceGraphic" in2="BackgroundImageFix" result="shape"/><feGaussianBlur result="effect1_foregroundBlur_2548_715" stdDeviation=".75"/></filter><filter id="valentine_svg__aM" width="10.062" height="14.09" x="2.925" y="28.733" color-interpolation-filters="sRGB" filterUnits="userSpaceOnUse"><feFlood flood-opacity="0" result="BackgroundImageFix"/><feBlend in="SourceGraphic" in2="BackgroundImageFix" result="shape"/><feGaussianBlur result="effect1_foregroundBlur_2548_715" stdDeviation="1.5"/></filter><filter id="valentine_svg__aO" width="2.686" height="2.755" x="8.029" y="31.27" color-interpolation-filters="sRGB" filterUnits="userSpaceOnUse"><feFlood flood-opacity="0" result="BackgroundImageFix"/><feBlend in="SourceGraphic" in2="BackgroundImageFix" result="shape"/><feGaussianBlur result="effect1_foregroundBlur_2548_715" stdDeviation=".5"/></filter><linearGradient id="valentine_svg__h" x1="35.705" x2="40.116" y1="31.917" y2="35.117" gradientUnits="userSpaceOnUse"><stop offset=".694" stop-color="#ff7a9b" stop-opacity="0"/><stop offset=".934" stop-color="#ff7a9b"/></linearGradient><linearGradient id="valentine_svg__i" x1="35.326" x2="32.456" y1="32.19" y2="37.683" gradientUnits="userSpaceOnUse"><stop offset=".694" stop-color="#ff7a9b" stop-opacity="0"/><stop offset=".934" stop-color="#ff7a9b"/></linearGradient><linearGradient id="valentine_svg__w" x1="55.499" x2="63.51" y1="14.921" y2="19.727" gradientUnits="userSpaceOnUse"><stop offset=".694" stop-color="#ff7a9b" stop-opacity="0"/><stop offset=".934" stop-color="#ff7a9b"/></linearGradient><linearGradient id="valentine_svg__x" x1="54.892" x2="50.811" y1="15.445" y2="25.255" gradientUnits="userSpaceOnUse"><stop offset=".694" stop-color="#ff7a9b" stop-opacity="0"/><stop offset=".934" stop-color="#ff7a9b"/></linearGradient><linearGradient id="valentine_svg__L" x1="11.595" x2="16.284" y1="37.362" y2="43.576" gradientUnits="userSpaceOnUse"><stop offset=".694" stop-color="#ff7a9b" stop-opacity="0"/><stop offset=".934" stop-color="#ff7a9b"/></linearGradient><linearGradient id="valentine_svg__M" x1="10.962" x2="4.747" y1="37.577" y2="43.882" gradientUnits="userSpaceOnUse"><stop offset=".694" stop-color="#ff7a9b" stop-opacity="0"/><stop offset=".934" stop-color="#ff7a9b"/></linearGradient><linearGradient id="valentine_svg__aa" x1="35.705" x2="40.116" y1="31.917" y2="35.117" gradientUnits="userSpaceOnUse"><stop offset=".694" stop-color="#ff7a9b" stop-opacity="0"/><stop offset=".934" stop-color="#ff7a9b"/></linearGradient><linearGradient id="valentine_svg__ab" x1="35.326" x2="32.456" y1="32.19" y2="37.683" gradientUnits="userSpaceOnUse"><stop offset=".694" stop-color="#ff7a9b" stop-opacity="0"/><stop offset=".934" stop-color="#ff7a9b"/></linearGradient><linearGradient id="valentine_svg__ap" x1="55.499" x2="63.51" y1="14.921" y2="19.727" gradientUnits="userSpaceOnUse"><stop offset=".694" stop-color="#ff7a9b" stop-opacity="0"/><stop offset=".934" stop-color="#ff7a9b"/></linearGradient><linearGradient id="valentine_svg__aq" x1="54.892" x2="50.811" y1="15.445" y2="25.255" gradientUnits="userSpaceOnUse"><stop offset=".694" stop-color="#ff7a9b" stop-opacity="0"/><stop offset=".934" stop-color="#ff7a9b"/></linearGradient><linearGradient id="valentine_svg__aE" x1="11.595" x2="16.284" y1="37.362" y2="43.576" gradientUnits="userSpaceOnUse"><stop offset=".694" stop-color="#ff7a9b" stop-opacity="0"/><stop offset=".934" stop-color="#ff7a9b"/></linearGradient><linearGradient id="valentine_svg__aF" x1="10.962" x2="4.747" y1="37.577" y2="43.882" gradientUnits="userSpaceOnUse"><stop offset=".694" stop-color="#ff7a9b" stop-opacity="0"/><stop offset=".934" stop-color="#ff7a9b"/></linearGradient></defs></svg>