<svg xmlns="http://www.w3.org/2000/svg" width="768" height="768" fill="none"><path fill="#000" d="M643.594 345.188H124.453v99.796c0 28.354.004 48.212 1.266 63.657 1.239 15.153 3.556 23.974 6.984 30.703a75.88 75.88 0 0 0 33.141 33.14c6.731 3.43 15.585 5.746 30.75 6.985 15.442 1.26 35.266 1.265 63.609 1.265h247.641c28.344 0 48.167-.005 63.609-1.265 15.164-1.239 24.019-3.555 30.75-6.985a75.88 75.88 0 0 0 33.141-33.14c3.427-6.729 5.745-15.551 6.984-30.703 1.262-15.445 1.266-35.303 1.266-63.657zM258 187.641c-27.289 0-46.379 0-61.266 1.171-14.612 1.151-23.148 3.337-29.672 6.516a75.9 75.9 0 0 0-34.921 34.922c-3.18 6.523-5.365 15.059-6.516 29.672-.793 10.082-.99 22.089-1.078 37.266H643.5c-.088-15.177-.285-27.184-1.078-37.266-1.151-14.612-3.337-23.149-6.516-29.672a75.9 75.9 0 0 0-34.922-34.922c-6.523-3.18-15.058-5.365-29.672-6.516-14.886-1.171-33.975-1.171-61.265-1.171zm433.594 257.343c0 27.562.005 49.695-1.453 67.547-1.482 18.133-4.595 33.984-12.047 48.61-11.873 23.298-30.842 42.222-54.141 54.093-14.62 7.447-30.439 10.613-48.562 12.094-17.853 1.459-39.985 1.406-67.547 1.406H260.203c-27.562 0-49.694.053-67.547-1.406-18.123-1.481-33.942-4.647-48.562-12.094-23.299-11.871-42.268-30.795-54.14-54.093-7.453-14.626-10.566-30.477-12.048-48.61-1.458-17.852-1.453-39.985-1.453-67.547V321.188c0-26.537.004-47.853 1.36-65.063 1.375-17.457 4.242-32.738 11.156-46.922a124.03 124.03 0 0 1 57.047-57.047c14.183-6.914 29.465-9.78 46.922-11.156 17.209-1.355 38.525-1.359 65.062-1.359h252.047c26.537 0 47.853.004 65.062 1.359 17.457 1.376 32.739 4.242 46.922 11.156 24.826 12.112 44.889 32.221 57 57.047 6.92 14.189 9.827 29.458 11.203 46.922 1.355 17.21 1.36 38.526 1.36 65.063z"/></svg>