<svg xmlns="http://www.w3.org/2000/svg" width="768" height="768" fill="none"><g clip-path="url(#chain-solana_svg__a)"><mask id="chain-solana_svg__b" width="564" height="505" x="102" y="131" maskUnits="userSpaceOnUse" style="mask-type:luminance"><path fill="#fff" d="M665.555 131.04H102.281v504.679h563.274z"/></mask><g mask="url(#chain-solana_svg__b)"><path fill="#000" d="m662.654 528.943-92.985 99.901a21.58 21.58 0 0 1-15.797 6.875H113.076a10.8 10.8 0 0 1-9.9-6.504 10.83 10.83 0 0 1 2.008-11.689l93.055-99.902a21.6 21.6 0 0 1 7.163-5.074 21.5 21.5 0 0 1 8.586-1.8h440.773c2.102 0 4.159.616 5.918 1.771a10.8 10.8 0 0 1 3.982 4.734 10.84 10.84 0 0 1-2.007 11.688m-92.985-201.174a21.6 21.6 0 0 0-7.184-5.083 21.55 21.55 0 0 0-8.613-1.791H113.076c-2.103 0-4.161.616-5.919 1.771a10.82 10.82 0 0 0-4.719 10.878 10.8 10.8 0 0 0 2.746 5.544l93.055 99.901a21.58 21.58 0 0 0 15.749 6.875h440.773a10.8 10.8 0 0 0 9.9-6.506 10.84 10.84 0 0 0-2.007-11.687zm-456.593-71.761h440.796a21.56 21.56 0 0 0 15.797-6.873l92.985-99.903a10.827 10.827 0 0 0-1.975-16.421 10.8 10.8 0 0 0-5.918-1.771H213.988a21.6 21.6 0 0 0-8.586 1.8 21.6 21.6 0 0 0-7.163 5.073l-93.031 99.903a10.83 10.83 0 0 0-2.013 11.677 10.8 10.8 0 0 0 9.881 6.515"/></g></g><defs><clipPath id="chain-solana_svg__a"><path fill="#fff" d="M102.281 131.04h563.4v505.8h-563.4z"/></clipPath></defs></svg>