<svg xmlns="http://www.w3.org/2000/svg" width="768" height="768" fill="none"><path fill="#000" d="M313.198 663.015 107.215 121.62c-2.773-6.34-2.895-13.851.279-20.466a25.2 25.2 0 0 1 3.156-5.202c3.975-5.049 9.329-8.575 15.498-9.07 6.212.001 12.95 1.228 12.95 1.228l403.35 70.436c4.287.855 9.084 2.757 12.984 7.033l97.365 95.139c5.016 3.666 8.802 9.264 9.817 16.1 1.256 8.455-2.001 16.569-7.782 21.927L356.158 671.79a24.97 24.97 0 0 1-13.836 8.433c-4.89 1.067-6.375 1.067-9.907.267-9.431-1.834-16.635-8.833-19.22-17.476zm12.515-106.494 31.632-227.832L186.33 189.534l139.383 366.989zM218.805 152.157l164.478 133.838 100.06-87.675zM578.574 314.4l-172.452 25.515-32.075 229.869 204.528-255.382zm-40.929-97.386-73.064 64.062 120.239-17.788-47.175-46.272z"/></svg>