<svg xmlns="http://www.w3.org/2000/svg" width="768" height="768" fill="none"><path fill="#000" d="M194.486 134.283 383.947 24l189.46 110.283-69.654 40.742-119.806-69.542-119.807 69.542zm378.921 139.083-69.654-40.741-119.806 69.541-119.807-69.541-69.654 40.741v81.483l119.805 69.541v139.083l69.656 40.742 69.655-40.742V424.39l119.805-69.541zm0 220.566v-81.483l-69.654 40.741v81.483zm49.456 28.8-119.806 69.541v81.483l189.461-110.283V342.907l-69.655 40.742zm-69.655-318.907 69.655 40.741v81.483l69.655-40.742v-81.482l-69.655-40.742zm-238.917 417.95v81.484L383.947 744l69.655-40.741v-81.484l-69.655 40.742zM194.486 493.932l69.654 40.741V453.19l-69.654-40.741zm119.805-290.107 69.656 40.741 69.655-40.741-69.655-40.742zM145.03 244.566l69.655-40.741-69.655-40.742-69.655 40.742v81.482l69.655 40.742zm0 139.083-69.655-40.742v220.566l189.461 110.283v-81.483L145.03 522.732z"/></svg>