<svg width="768" height="768" viewBox="0 0 768 768" fill="none" xmlns="http://www.w3.org/2000/svg">
<path d="M439.339 242.438H334.387C330.59 242.438 327.379 243.957 324.721 247.271L249.459 340.485C238.412 354.294 235.65 367.068 235.65 385.365V480.65C211.138 549.352 195.603 595.959 184.21 638.077C183.52 640.77 184.555 642.22 186.972 642.22H198.365C200.436 642.22 202.507 641.184 203.198 639.458C289.161 420.579 382.72 312.176 441.41 247.271C443.827 244.51 442.791 242.438 439.339 242.438Z" fill="black"/>
<path d="M442.441 135.071C435.399 137.798 428.632 142.424 425.525 145.082C394.454 171.665 373.74 192.725 354.061 213.439C351.645 215.855 352.68 218.272 356.133 218.272H472.477C483.179 218.272 489.393 224.486 489.393 235.189V366.378C489.393 369.83 492.155 370.866 494.227 367.759L564.309 276.272C575.702 261.426 579.154 256.938 582.261 236.224C586.404 205.844 583.988 159.237 565.69 139.904C549.464 122.642 476.274 121.952 442.441 135.071Z" fill="black"/>
<path d="M460.051 268.676C387.896 349.116 331.623 433.699 279.493 535.543C278.181 538.098 279.838 540.376 282.945 539.341L390.658 506.198C402.811 502.47 409.646 497.567 415.515 487.901L463.503 408.842C464.539 406.77 464.884 404.354 464.884 402.628V270.748C464.884 267.296 462.467 265.915 460.051 268.676Z" fill="black"/>
</svg>
