<svg xmlns="http://www.w3.org/2000/svg" width="768" height="768" fill="none"><path fill="#000" fill-rule="evenodd" d="M196.085 108.002 574.852 108c13.4 0 26.791 1.968 40.784 8.492 16.775 7.819 25.67 20.144 31.902 29.258q.728 1.065 1.358 2.188C656.223 160.981 660 175.064 660 190.213c0 14.394-3.425 30.075-11.104 43.743q-.11.198-.222.391L409.375 645.411a29.362 29.362 0 0 1-50.854-.181L123.616 235.044l-.203-.335c-5.376-8.859-13.689-22.558-15.144-40.237a80.13 80.13 0 0 1 10.487-46.672 79.74 79.74 0 0 1 35.259-32.331c15.86-7.411 31.933-7.467 42.07-7.467m158.553 58.722H196.085c-10.417 0-14.416.641-17.211 1.948a21 21 0 0 0-9.283 8.526 21.43 21.43 0 0 0-2.796 12.462c.205 2.497 1.223 5.352 7.226 15.253q.189.311.369.627l180.248 314.744zm58.724 0v355.115l184.422-316.798c2.081-3.782 3.492-9.247 3.492-14.828 0-4.527-.938-8.459-3.036-12.511-2.202-3.166-3.543-4.843-4.665-5.991-.962-.981-1.703-1.507-2.749-1.994-4.361-2.033-8.823-2.993-15.974-2.993z" clip-rule="evenodd"/></svg>