<svg xmlns="http://www.w3.org/2000/svg" width="768" height="768" fill="none"><path fill="#000" d="M436.086 437.432 402 530.761c-1 2.582-1 5.464 0 8.047l58.526 160.634 67.739-39.117-81.25-222.893c-1.866-5.181-9.063-5.181-10.929 0m68.155-157.035c-1.866-5.181-9.063-5.181-10.929 0l-34.086 93.328a11.18 11.18 0 0 0 0 8.047l95.911 263.026 67.739-39.117z"/><path fill="#000" d="M383.864 76.05c1.733 0 3.316.433 4.882 1.3l258.278 149.122c3.015 1.732 4.881 4.881 4.881 8.346v298.245c0 3.449-1.866 6.614-4.881 8.347L388.746 690.682c-1.433.867-3.166 1.3-4.882 1.3s-3.315-.433-4.881-1.3L120.839 541.56c-3.016-1.733-4.882-4.881-4.882-8.347V234.818c0-3.448 1.866-6.614 4.882-8.346L379.116 77.349c1.433-.866 3.166-1.3 4.748-1.3m0-43.566c-9.196 0-18.409 2.45-26.605 7.197L98.981 188.804c-16.393 9.479-26.606 27.039-26.606 46.014v298.245c0 18.976 10.213 36.669 26.606 46.165L357.259 728.35c8.196 4.748 17.393 7.197 26.605 7.197s18.41-2.449 26.606-7.197l258.278-149.122c16.543-9.496 26.606-27.039 26.606-46.165V234.818c0-18.975-10.213-36.668-26.606-46.164L410.604 39.681c-8.347-4.748-17.543-7.197-26.756-7.197z"/><path fill="#000" d="M362.165 213.511h-65.424c-4.881 0-9.346 3.015-10.929 7.614L145.453 605.951l67.739 39.117 154.587-423.794c1.299-3.731-1.433-7.763-5.614-7.763m114.62 0h-65.424c-4.881 0-9.346 3.015-10.929 7.614l-160.334 439.47 67.739 39.118 174.412-478.289c1.433-3.881-1.433-7.913-5.464-7.913"/></svg>