<svg xmlns="http://www.w3.org/2000/svg" width="768" height="768" fill="none"><path fill="#000" d="M96 142.08c0-16.13 0-24.194 3.139-30.355a28.8 28.8 0 0 1 12.586-12.586C117.886 96 125.95 96 142.08 96h483.84c16.13 0 24.194 0 30.355 3.139a28.8 28.8 0 0 1 12.586 12.586C672 117.886 672 125.95 672 142.08v483.84c0 16.13 0 24.194-3.139 30.355a28.8 28.8 0 0 1-12.586 12.586C650.114 672 642.05 672 625.92 672H142.08c-16.13 0-24.194 0-30.355-3.139a28.8 28.8 0 0 1-12.586-12.586C96 650.114 96 642.05 96 625.92z"/></svg>