<svg xmlns="http://www.w3.org/2000/svg" width="768" height="768" fill="none"><path fill="#000" d="M156.504 529.305c4.067-4.25 9.659-6.729 15.59-6.729h537.857c9.829 0 14.743 12.396 7.795 19.657L611.496 653.27c-4.067 4.251-9.659 6.73-15.59 6.73H58.049c-9.829 0-14.743-12.397-7.795-19.657zm0-414.575c4.236-4.251 9.828-6.73 15.59-6.73h537.857c9.829 0 14.743 12.397 7.795 19.657l-106.25 111.038c-4.067 4.25-9.659 6.729-15.59 6.729H58.049c-9.829 0-14.743-12.396-7.795-19.657zm454.992 205.959c-4.067-4.25-9.659-6.729-15.59-6.729H58.049c-9.829 0-14.743 12.396-7.795 19.657l106.25 111.037c4.067 4.251 9.659 6.73 15.59 6.73h537.857c9.829 0 14.743-12.397 7.795-19.657z"/></svg>