<svg xmlns="http://www.w3.org/2000/svg" width="768" height="768" fill="none"><path fill="#000" d="M654.412 384.006c0-48.089-.034-82.886-2.031-110.344-1.98-27.215-5.803-45.364-12.5-60.406-16.886-37.921-47.234-68.24-85.156-85.125-15.041-6.695-33.191-10.552-60.406-12.531-27.454-1.996-62.234-2-110.313-2-48.089 0-82.886.003-110.344 2-27.216 1.98-45.364 5.834-60.406 12.531a168 168 0 0 0-85.125 85.125c-6.697 15.042-10.551 33.19-12.531 60.406-1.997 27.458-2 62.255-2 110.344 0 48.079.004 82.859 2 110.313 1.979 27.215 5.836 45.365 12.531 60.406 16.885 37.922 47.204 68.27 85.125 85.156 15.042 6.697 33.191 10.52 60.406 12.5 27.458 1.997 62.255 2.031 110.344 2.031 48.08 0 82.858-.035 110.313-2.031 27.213-1.979 45.365-5.805 60.406-12.5a168.06 168.06 0 0 0 85.156-85.156c6.695-15.041 10.521-33.193 12.5-60.406 1.996-27.455 2.031-62.233 2.031-110.313m48 0c0 47.386-.003 84.211-2.156 113.813-2.17 29.834-6.63 54.199-16.531 76.437a216 216 0 0 1-109.469 109.469c-22.238 9.901-46.603 14.361-76.437 16.531-29.602 2.153-66.427 2.156-113.813 2.156s-84.211-.003-113.812-2.156c-29.834-2.17-54.2-6.632-76.438-16.531A216 216 0 0 1 84.288 574.256c-9.902-22.239-14.393-46.601-16.563-76.437-2.153-29.602-2.125-66.427-2.125-113.813s-.028-84.211 2.125-113.812c2.17-29.835 6.663-54.2 16.563-76.438A216 216 0 0 1 193.755 84.288c22.238-9.9 46.603-14.393 76.438-16.563 29.601-2.153 66.427-2.125 113.812-2.125 47.386 0 84.211-.028 113.813 2.125 29.836 2.17 54.198 6.661 76.437 16.563a216 216 0 0 1 109.469 109.468c9.899 22.238 14.361 46.604 16.531 76.438 2.153 29.601 2.156 66.426 2.156 113.812"/><path fill="#000" d="M471.031 263.031c9.373-9.372 24.565-9.372 33.938 0 9.372 9.373 9.372 24.565 0 33.938L417.937 384l87.032 87.031c9.372 9.373 9.372 24.565 0 33.938-9.373 9.372-24.565 9.372-33.938 0L384 417.937l-87.031 87.032c-9.373 9.372-24.565 9.372-33.938 0-9.372-9.373-9.372-24.565 0-33.938L350.062 384l-87.031-87.031c-9.372-9.373-9.372-24.565 0-33.938 9.373-9.372 24.565-9.372 33.938 0L384 350.062z"/></svg>