<svg xmlns="http://www.w3.org/2000/svg" width="768" height="768"><g fill-rule="evenodd"><path d="M384 54.857c181.78 0 329.142 147.363 329.142 329.143 0 181.781-147.362 329.143-329.144 329.143V571.638l.582.002q20.514 0 31.944-12.113l.366-.394q11.987-12.507 11.987-32.311 0-19.283-11.987-31.269-11.464-12.507-32.31-12.507l-.582.002v-27.105l.582.004q11.465 0 17.718-7.296 6.775-7.296 8.339-21.367l16.676-178.231q2.565-23.09-8.51-37.087l-.349-.435q-11.466-14.592-33.874-14.592l-.582.002V54.857Z"/><path d="M384 54.857v142.084q-22.685.177-34.01 14.181l-.326.409q-11.465 14.07-8.859 37.522l16.676 178.231q1.564 14.07 8.338 21.367 6.61 7.118 18.181 7.292v27.105l-.1.001q-20.37.202-32.673 12.504-11.986 11.986-11.986 31.269 0 19.803 11.986 32.311Q363.56 571.465 384 571.638v141.505C202.219 713.143 54.857 565.781 54.857 384S202.22 54.857 384 54.857"/></g></svg>