<svg xmlns="http://www.w3.org/2000/svg" width="768" height="768" fill="none"><path fill="#000" d="M571.395 571.4c103.5-103.5 103.5-271.292 0-374.792s-271.293-103.5-374.793 0-103.5 271.292 0 374.792 271.293 103.5 374.793 0m34.926 34.924c-122.781 122.781-321.864 122.781-444.645 0s-122.78-321.864 0-444.642c122.781-122.78 321.864-122.78 444.645 0 122.781 122.781 122.781 321.864 0 444.642"/><path fill="#000" d="M457.898 408.816c-5.488 12.65-8.234 18.974-12.202 24.362-3.571 4.815-7.703 8.944-12.36 12.403l-.159.113c-5.386 3.97-11.712 6.714-24.36 12.204l-119.653 51.924c-17.114 7.428-25.67 11.139-30.944 9.465-4.581-1.487-8.12-5.025-9.578-9.503l-.028-.105c-1.676-5.272 2.038-13.83 9.465-30.942l51.926-119.653c5.49-12.65 8.233-18.974 12.204-24.36 3.571-4.815 7.702-8.946 12.358-12.405l.159-.113c5.387-3.969 11.712-6.714 24.36-12.204l119.654-51.927c17.113-7.426 25.669-11.139 30.941-9.465 4.583 1.487 8.12 5.025 9.578 9.503l.028.105c1.674 5.274-2.04 13.83-9.465 30.943zm-105.463 6.651c17.406 17.406 45.627 17.406 63.033 0s17.406-45.627 0-63.033c-17.406-17.407-45.627-17.407-63.035 0-17.407 17.408-17.406 45.627 0 63.033z"/></svg>