<svg xmlns="http://www.w3.org/2000/svg" width="768" height="768" fill="none"><path fill="#000" d="M604.617 604.617c-121.843 121.844-319.391 121.844-441.234 0-121.844-121.843-121.844-319.391 0-441.234 121.843-121.844 319.391-121.844 441.234 0 121.844 121.843 121.844 319.391 0 441.234M348.17 308.292c-10.277 4.46-15.416 6.69-19.793 9.915-3.912 2.903-7.267 6.258-10.078 10.042l-.092.128c-3.225 4.377-5.455 9.516-9.915 19.793l-66.149 152.431c-6.034 13.904-9.051 20.856-7.69 25.141 1.208 3.722 4.082 6.597 7.72 7.781l.085.024c4.284 1.361 11.237-1.656 25.14-7.69l152.431-66.149c10.277-4.46 15.416-6.69 19.793-9.915 3.912-2.902 7.268-6.258 10.079-10.042l.091-.128c3.225-4.377 5.455-9.516 9.915-19.793l66.15-152.431c6.033-13.904 9.051-20.856 7.689-25.141-1.207-3.722-4.082-6.597-7.719-7.781l-.085-.024c-4.285-1.361-11.237 1.656-25.141 7.69z"/><path fill="#000" d="M417.941 417.941c-18.744 18.745-49.137 18.745-67.881 0-18.745-18.744-18.745-49.137 0-67.881 18.744-18.745 49.137-18.745 67.881 0 18.745 18.744 18.745 49.137 0 67.881"/></svg>