<svg xmlns="http://www.w3.org/2000/svg" width="768" height="768" fill="none"><path fill="#000" fill-rule="evenodd" d="M84.876 432.663c53.431 53.161 146.613 126.849 252.627 126.849 23.602 0 46.567-3.652 68.599-9.917-9.886-11.689-16.397-26.323-18.033-42.398l-.412-7.988.412-7.987a78 78 0 0 1 1.646-9.865 114.56 114.56 0 0 1-52.215 12.59 114.6 114.6 0 0 1-81.068-33.606 114.8 114.8 0 0 1-33.579-81.134 114.8 114.8 0 0 1 33.579-81.134 114.6 114.6 0 0 1 81.068-33.607 114.6 114.6 0 0 1 81.069 33.607 114.8 114.8 0 0 1 33.579 81.134c0 15.746-3.234 31.158-9.334 45.347a78.1 78.1 0 0 1 22.918-3.42h28.612v-28.612c.007-43.117 34.957-78.075 78.075-78.075l6.386.33C524.096 263.012 436.39 198.9 337.503 198.9c-106.014 0-199.196 73.688-252.627 126.849-14.102 14.032-21.154 21.052-25.643 34.824-3.201 9.821-3.201 27.448 0 37.27 4.489 13.771 11.54 20.788 25.643 34.82M337.5 313.64a65.5 65.5 0 0 0-46.324 19.204 65.6 65.6 0 0 0-19.189 46.363 65.6 65.6 0 0 0 19.189 46.362 65.5 65.5 0 0 0 46.324 19.204 65.5 65.5 0 0 0 46.325-19.204 65.6 65.6 0 0 0 19.189-46.362 65.6 65.6 0 0 0-19.189-46.363A65.5 65.5 0 0 0 337.5 313.64" clip-rule="evenodd"/><path fill="#000" d="M540.411 605.868v-74.667h-74.667c-17.673 0-32-14.327-32-32s14.327-32 32-32h74.667v-74.667c0-17.673 14.327-32 32-32s32 14.327 32 32v74.667h74.667c17.673 0 32 14.327 32 32s-14.327 32-32 32h-74.667v74.667c0 17.673-14.327 32-32 32s-32-14.327-32-32"/></svg>