<svg xmlns="http://www.w3.org/2000/svg" width="768" height="768" fill="none"><path fill="#000" d="M108.938 511.969c151.862 151.168 398.262 151.168 550.125 0 70.602-70.297 70.605-186.205 0-256.5-151.863-151.168-398.263-151.168-550.125 0-70.605 70.295-70.603 186.203 0 256.5m516.234-33.985c-133.131 132.506-349.213 132.506-482.344 0-51.771-51.534-51.768-136.948 0-188.484 133.135-132.526 349.209-132.526 482.344 0 51.768 51.536 51.771 136.95 0 188.484"/><path fill="#000" d="M469.969 383.719c0 47.474-38.495 85.966-85.969 85.969-47.476 0-85.969-38.493-85.969-85.969.003-47.474 38.494-85.969 85.969-85.969 47.472.003 85.966 38.496 85.969 85.969m48 0C517.966 309.737 457.982 249.753 384 249.75c-73.984 0-133.966 59.985-133.969 133.969 0 73.986 59.983 133.969 133.969 133.969 73.984-.003 133.969-59.985 133.969-133.969"/></svg>