<svg xmlns="http://www.w3.org/2000/svg" width="768" height="768" fill="none"><path fill="#000" d="m614.4 197.775 3.338.15c16.459 1.671 29.287 15.575 29.287 32.475s-12.828 30.803-29.287 32.475l-3.338.15H153.6c-18.026 0-32.625-14.599-32.625-32.625 0-18.027 14.599-32.625 32.625-32.625zm-57.6 172.8 3.338.15c16.459 1.671 29.287 15.575 29.287 32.475s-12.828 30.804-29.287 32.475l-3.338.15H211.2c-18.026 0-32.625-14.598-32.625-32.625s14.599-32.625 32.625-32.625zm-57.6 172.8 3.337.15c16.459 1.671 29.288 15.575 29.288 32.475s-12.829 30.804-29.288 32.475l-3.337.15H268.8c-18.027 0-32.625-14.598-32.625-32.625s14.598-32.625 32.625-32.625z"/></svg>