<svg xmlns="http://www.w3.org/2000/svg" width="768" height="768" fill="none"><path fill="#000" d="M579.462 141.371c-18.744-18.744-49.13-18.741-67.875 0L131.946 521.012l-3 3.609a24.04 24.04 0 0 0-4.031 13.266l-.234 88.359a24 24 0 0 0 7.031 17.016 24 24 0 0 0 17.016 7.031l88.359-.234a24 24 0 0 0 16.875-7.031l379.641-379.641c18.741-18.746 18.744-49.131 0-67.875zm-80.953 189.235L227.056 602.059l-54.281.14.14-54.281 271.453-271.453zm101.156-101.157-67.219 67.219-54.14-54.14 67.219-67.219zM648 600c13.255 0 24 10.745 24 24s-10.745 24-24 24H408c-13.255 0-24-10.745-24-24s10.745-24 24-24z"/></svg>