<svg xmlns="http://www.w3.org/2000/svg" width="768" height="768" fill="none"><path fill="#000" d="M218.484 504c-57.72-.013-86.615-69.807-45.797-110.625l49.219-49.219c4.222-4.221 6.701-9.88 6.985-15.844l7.218-151.171C238.917 118.281 287.478 72 346.406 72h75.188c58.928 0 107.489 46.281 110.297 105.141l7.218 151.171c.284 5.964 2.763 11.623 6.985 15.844l49.219 49.219c40.818 40.818 11.923 110.612-45.797 110.625H408v168c0 13.255-10.745 24-24 24s-24-10.745-24-24V504zm331.032-48c14.956-.013 22.439-18.108 11.859-28.688l-49.219-49.218a72 72 0 0 1-21-47.485l-7.219-151.171C482.353 146.167 454.902 120 421.594 120h-75.188c-33.308 0-60.759 26.167-62.344 59.438l-7.218 151.171a72 72 0 0 1-21 47.485l-49.219 49.218c-10.58 10.58-3.097 28.675 11.859 28.688z"/></svg>