<svg xmlns="http://www.w3.org/2000/svg" width="768" height="768" fill="none"><path fill="#000" d="M243.047 105.422c12.548-41.78 68.799-44.384 86.812-7.828l3.094 7.828 4.078 12.234c22.258 60.204 71.594 106.802 133.547 125.391 44.552 13.382 44.583 76.52 0 89.906-66.085 19.823-117.8 71.539-137.625 137.625-13.384 44.567-76.522 44.567-89.906 0-19.825-66.086-71.54-117.802-137.625-137.625-44.582-13.386-44.553-76.524 0-89.906 66.082-19.828 117.8-71.543 137.625-137.625M288 122.297C263.19 201.329 201.326 263.188 122.297 288c79.02 24.803 140.885 86.643 165.703 165.656C312.813 374.657 374.657 312.812 453.656 288 374.648 263.179 312.806 201.314 288 122.297m229.781 306.609c13.728-27.883 54.71-27.883 68.438 0l2.484 6.422 2.391 7.078c12.933 34.986 41.578 62.085 77.578 72.891 36.404 10.923 36.433 62.478 0 73.406a119.3 119.3 0 0 0-79.969 79.969c-10.925 36.42-62.481 36.42-73.406 0a119.3 119.3 0 0 0-79.969-79.969c-36.433-10.928-36.404-62.483 0-73.406l7.078-2.391c34.987-12.934 62.087-41.578 72.891-77.578zM552 472.922A167.16 167.16 0 0 1 472.875 552c34.662 16.49 62.618 44.379 79.125 79.031A167.18 167.18 0 0 1 631.078 552 167.18 167.18 0 0 1 552 472.922"/></svg>