<svg xmlns="http://www.w3.org/2000/svg" width="768" height="768" fill="none"><path fill="#000" d="M72 384c0-64.104 19.368-123.754 52.562-173.344 7.374-11.015 22.267-13.967 33.282-6.594s13.964 22.267 6.594 33.282C136.366 279.28 120 329.695 120 384c0 145.803 118.197 264 264 264s264-118.197 264-264c0-54.305-16.366-104.72-44.438-146.656-7.37-11.015-4.42-25.909 6.594-33.282 11.015-7.373 25.908-4.421 33.282 6.594C676.632 260.246 696 319.896 696 384c0 172.313-139.687 312-312 312S72 556.313 72 384"/><path fill="#000" d="M392.42 534.976q-10.24 0-16.896-7.168-6.656-6.656-6.656-16.384V464.32l11.264 10.752q-35.328-1.024-63.488-9.216-28.16-8.704-47.104-20.48-8.704-5.632-11.776-13.312t-2.048-15.36q1.024-8.191 5.632-13.824 5.12-5.632 12.8-7.168t17.408 4.096q14.849 9.216 38.4 16.896 23.552 7.68 57.344 7.68 26.624 0 43.008-6.144 16.896-6.656 24.576-18.432 8.192-11.776 8.192-26.624 0-12.288-5.632-20.992-5.632-9.216-18.432-15.872-12.288-7.168-33.28-11.264l-53.248-11.776q-46.592-9.728-69.632-33.792t-23.04-62.464q0-30.209 14.848-53.76 14.849-23.552 41.472-37.888t61.952-16.384l-9.216 7.68V71.616q0-9.728 6.656-16.384 6.655-7.168 16.896-7.168 9.728 0 16.384 7.168 7.168 6.656 7.168 16.384v45.056l-9.728-8.192q22.528.511 48.64 9.216 26.624 8.704 45.568 24.576 7.168 5.632 9.216 12.8 2.56 7.168.512 13.824t-7.168 11.264-12.8 5.632q-7.68.512-17.408-5.12-15.36-10.24-34.816-15.872-18.944-6.144-45.568-6.144-34.304 0-54.272 15.872-19.456 15.36-19.456 40.448 0 19.457 11.776 30.72 12.288 11.264 40.96 17.92l54.784 11.776q49.152 10.752 72.192 33.792 23.552 23.04 23.552 60.416 0 29.696-14.848 52.224t-40.96 35.84q-25.6 13.312-59.392 16.384l9.216-10.24v47.616q0 9.728-6.656 16.384-6.656 7.168-16.896 7.168"/></svg>