<svg xmlns="http://www.w3.org/2000/svg" width="768" height="768" fill="none"><path fill="#000" d="M624 516c13.255 0 24 10.745 24 24s-10.745 24-24 24H312c-13.255 0-24-10.745-24-24s10.745-24 24-24zm0-312c13.255 0 24 10.745 24 24s-10.745 24-24 24H312c-13.255 0-24-10.745-24-24s10.745-24 24-24zm0 156c13.255 0 24 10.745 24 24s-10.745 24-24 24H312c-13.255 0-24-10.745-24-24s10.745-24 24-24zM216 540c0 19.882-16.118 36-36 36s-36-16.118-36-36 16.118-36 36-36 36 16.118 36 36m0-156c0 19.882-16.118 36-36 36s-36-16.118-36-36 16.118-36 36-36 36 16.118 36 36m0-156c0 19.882-16.118 36-36 36s-36-16.118-36-36 16.118-36 36-36 36 16.118 36 36"/></svg>