<svg xmlns="http://www.w3.org/2000/svg" width="768" height="768" fill="none"><path fill="#000" d="M312 220.781c0-13.811-.009-22.737-.562-29.531-.531-6.497-1.458-8.934-2.063-10.125a24.05 24.05 0 0 0-10.5-10.5c-1.191-.605-3.628-1.532-10.125-2.063-6.794-.553-15.72-.562-29.531-.562h-38.438c-13.811 0-22.737.009-29.531.562-6.497.531-8.934 1.458-10.125 2.063a24.05 24.05 0 0 0-10.5 10.5c-.605 1.191-1.532 3.628-2.063 10.125-.553 6.794-.562 15.72-.562 29.531v38.438c0 13.811.009 22.737.562 29.531.531 6.497 1.458 8.934 2.063 10.125a24.05 24.05 0 0 0 10.5 10.5c1.191.605 3.628 1.532 10.125 2.063 6.794.553 15.72.562 29.531.562h38.438c13.811 0 22.737-.009 29.531-.562 6.497-.531 8.934-1.458 10.125-2.063a24.05 24.05 0 0 0 10.5-10.5c.605-1.191 1.532-3.628 2.063-10.125.553-6.794.562-15.72.562-29.531zm48 38.438c0 13.037.002 24.265-.75 33.469-.775 9.478-2.46 18.912-7.078 27.984a72.15 72.15 0 0 1-31.5 31.5c-9.072 4.618-18.506 6.303-27.984 7.078-9.204.752-20.432.75-33.469.75h-38.438c-13.037 0-24.265.002-33.469-.75-9.478-.775-18.912-2.46-27.984-7.078a72.15 72.15 0 0 1-31.5-31.5c-4.618-9.072-6.303-18.506-7.078-27.984-.752-9.204-.75-20.432-.75-33.469v-38.438c0-13.037-.002-24.265.75-33.469.775-9.478 2.46-18.912 7.078-27.984a72.15 72.15 0 0 1 31.5-31.5c9.072-4.618 18.506-6.303 27.984-7.078 9.204-.752 20.432-.75 33.469-.75h38.438c13.037 0 24.265-.002 33.469.75 9.478.775 18.912 2.46 27.984 7.078a72.15 72.15 0 0 1 31.5 31.5c4.618 9.072 6.303 18.506 7.078 27.984.752 9.204.75 20.432.75 33.469zm240-38.438c0-13.811-.009-22.737-.562-29.531-.531-6.497-1.458-8.934-2.063-10.125a24.05 24.05 0 0 0-10.5-10.5c-1.191-.605-3.628-1.532-10.125-2.063-6.794-.553-15.72-.562-29.531-.562h-38.438c-13.811 0-22.737.009-29.531.562-6.497.531-8.934 1.458-10.125 2.063a24.05 24.05 0 0 0-10.5 10.5c-.605 1.191-1.532 3.628-2.063 10.125-.553 6.794-.562 15.72-.562 29.531v38.438c0 13.811.009 22.737.562 29.531.531 6.497 1.458 8.934 2.063 10.125a24.05 24.05 0 0 0 10.5 10.5c1.191.605 3.628 1.532 10.125 2.063 6.794.553 15.72.562 29.531.562h38.438c13.811 0 22.737-.009 29.531-.562 6.497-.531 8.934-1.458 10.125-2.063a24.05 24.05 0 0 0 10.5-10.5c.605-1.191 1.532-3.628 2.063-10.125.553-6.794.562-15.72.562-29.531zm48 38.438c0 13.037.002 24.265-.75 33.469-.775 9.478-2.46 18.912-7.078 27.984a72.15 72.15 0 0 1-31.5 31.5c-9.072 4.618-18.506 6.303-27.984 7.078-9.204.752-20.432.75-33.469.75h-38.438c-13.037 0-24.265.002-33.469-.75-9.478-.775-18.912-2.46-27.984-7.078a72.15 72.15 0 0 1-31.5-31.5c-4.618-9.072-6.303-18.506-7.078-27.984-.752-9.204-.75-20.432-.75-33.469v-38.438c0-13.037-.002-24.265.75-33.469.775-9.478 2.46-18.912 7.078-27.984a72.15 72.15 0 0 1 31.5-31.5c9.072-4.618 18.506-6.303 27.984-7.078 9.204-.752 20.432-.75 33.469-.75h38.438c13.037 0 24.265-.002 33.469.75 9.478.775 18.912 2.46 27.984 7.078a72.15 72.15 0 0 1 31.5 31.5c4.618 9.072 6.303 18.506 7.078 27.984.752 9.204.75 20.432.75 33.469zm-48 249.562c0-13.811-.009-22.737-.562-29.531-.531-6.497-1.458-8.934-2.063-10.125a24.05 24.05 0 0 0-10.5-10.5c-1.191-.605-3.628-1.532-10.125-2.063-6.794-.553-15.72-.562-29.531-.562h-38.438c-13.811 0-22.737.009-29.531.562-6.497.531-8.934 1.458-10.125 2.063a24.05 24.05 0 0 0-10.5 10.5c-.605 1.191-1.532 3.628-2.063 10.125-.553 6.794-.562 15.72-.562 29.531v38.438c0 13.811.009 22.737.562 29.531.531 6.497 1.458 8.934 2.063 10.125a24.05 24.05 0 0 0 10.5 10.5c1.191.605 3.628 1.532 10.125 2.063 6.794.553 15.72.562 29.531.562h38.438c13.811 0 22.737-.009 29.531-.562 6.497-.531 8.934-1.458 10.125-2.063a24.05 24.05 0 0 0 10.5-10.5c.605-1.191 1.532-3.628 2.063-10.125.553-6.794.562-15.72.562-29.531zm48 38.438c0 13.037.002 24.265-.75 33.469-.775 9.478-2.46 18.912-7.078 27.984a72.15 72.15 0 0 1-31.5 31.5c-9.072 4.618-18.506 6.303-27.984 7.078-9.204.752-20.432.75-33.469.75h-38.438c-13.037 0-24.265.002-33.469-.75-9.478-.775-18.912-2.46-27.984-7.078a72.15 72.15 0 0 1-31.5-31.5c-4.618-9.072-6.303-18.506-7.078-27.984-.752-9.204-.75-20.432-.75-33.469v-38.438c0-13.037-.002-24.265.75-33.469.775-9.478 2.46-18.912 7.078-27.984a72.15 72.15 0 0 1 31.5-31.5c9.072-4.618 18.506-6.303 27.984-7.078 9.204-.752 20.432-.75 33.469-.75h38.438c13.037 0 24.265-.002 33.469.75 9.478.775 18.912 2.46 27.984 7.078a72.15 72.15 0 0 1 31.5 31.5c4.618 9.072 6.303 18.506 7.078 27.984.752 9.204.75 20.432.75 33.469zm-336-38.438c0-13.811-.009-22.737-.562-29.531-.531-6.497-1.458-8.934-2.063-10.125a24.05 24.05 0 0 0-10.5-10.5c-1.191-.605-3.628-1.532-10.125-2.063-6.794-.553-15.72-.562-29.531-.562h-38.438c-13.811 0-22.737.009-29.531.562-6.497.531-8.934 1.458-10.125 2.063a24.05 24.05 0 0 0-10.5 10.5c-.605 1.191-1.532 3.628-2.063 10.125-.553 6.794-.562 15.72-.562 29.531v38.438c0 13.811.009 22.737.562 29.531.531 6.497 1.458 8.934 2.063 10.125a24.05 24.05 0 0 0 10.5 10.5c1.191.605 3.628 1.532 10.125 2.063 6.794.553 15.72.562 29.531.562h38.438c13.811 0 22.737-.009 29.531-.562 6.497-.531 8.934-1.458 10.125-2.063a24.05 24.05 0 0 0 10.5-10.5c.605-1.191 1.532-3.628 2.063-10.125.553-6.794.562-15.72.562-29.531zm48 38.438c0 13.037.002 24.265-.75 33.469-.775 9.478-2.46 18.912-7.078 27.984a72.15 72.15 0 0 1-31.5 31.5c-9.072 4.618-18.506 6.303-27.984 7.078-9.204.752-20.432.75-33.469.75h-38.438c-13.037 0-24.265.002-33.469-.75-9.478-.775-18.912-2.46-27.984-7.078a72.15 72.15 0 0 1-31.5-31.5c-4.618-9.072-6.303-18.506-7.078-27.984-.752-9.204-.75-20.432-.75-33.469v-38.438c0-13.037-.002-24.265.75-33.469.775-9.478 2.46-18.912 7.078-27.984a72.15 72.15 0 0 1 31.5-31.5c9.072-4.618 18.506-6.303 27.984-7.078 9.204-.752 20.432-.75 33.469-.75h38.438c13.037 0 24.265-.002 33.469.75 9.478.775 18.912 2.46 27.984 7.078a72.15 72.15 0 0 1 31.5 31.5c4.618 9.072 6.303 18.506 7.078 27.984.752 9.204.75 20.432.75 33.469z"/></svg>