<svg xmlns="http://www.w3.org/2000/svg" width="768" height="768" fill="none"><path fill="#000" d="M201.216 511.257c-.238-2.903-.549-4.09-.657-4.406a9.7 9.7 0 0 0-4.218-4.219c-.333-.112-1.537-.422-4.407-.656-4.396-.358-10.319-.375-20.109-.375h-26.859c-9.797 0-15.712.016-20.11.375-2.894.236-4.085.547-4.406.656a9.7 9.7 0 0 0-4.219 4.219c-.108.321-.42 1.512-.656 4.406-.359 4.398-.375 10.312-.375 20.109v26.86c0 9.79.017 15.712.375 20.109.234 2.869.545 4.073.656 4.406a9.7 9.7 0 0 0 4.219 4.219c.317.108 1.504.419 4.406.656 4.398.359 10.312.375 20.11.375h26.859c9.791 0 15.712-.017 20.109-.375 2.878-.235 4.078-.546 4.407-.656a9.7 9.7 0 0 0 4.218-4.219c.111-.329.422-1.529.657-4.406.358-4.397.375-10.319.375-20.109v-26.86c0-9.797-.017-15.711-.375-20.109m48.375 46.969c0 9.012.04 17.24-.516 24.046-.579 7.084-1.927 14.729-5.766 22.266a57.6 57.6 0 0 1-25.172 25.172c-7.536 3.839-15.182 5.186-22.265 5.766-6.807.556-15.034.515-24.047.515h-26.859c-9.013 0-17.24.041-24.047-.515-7.082-.58-14.731-1.927-22.266-5.766a57.6 57.6 0 0 1-25.172-25.172c-3.837-7.536-5.186-15.183-5.765-22.266-.556-6.806-.516-15.034-.516-24.046v-26.86c0-9.013-.04-17.24.516-24.047.58-7.082 1.926-14.731 5.765-22.265a57.6 57.6 0 0 1 25.172-25.172c7.535-3.839 15.184-5.186 22.266-5.766 6.807-.556 15.034-.515 24.047-.515h26.859c9.013 0 17.24-.041 24.047.515 7.082.579 14.73 1.928 22.265 5.766a57.6 57.6 0 0 1 25.172 25.172c3.84 7.534 5.186 15.183 5.766 22.265.556 6.807.516 15.034.516 24.047zm177.225-46.969c-.238-2.903-.549-4.09-.657-4.406a9.7 9.7 0 0 0-4.218-4.219c-.333-.112-1.537-.422-4.407-.656-4.396-.358-10.319-.375-20.109-.375h-26.859c-9.798 0-15.712.016-20.11.375-2.894.236-4.085.547-4.406.656a9.7 9.7 0 0 0-4.219 4.219c-.109.321-.42 1.512-.656 4.406-.359 4.398-.375 10.312-.375 20.109v26.86c0 9.79.017 15.712.375 20.109.234 2.869.545 4.073.656 4.406a9.7 9.7 0 0 0 4.219 4.219c.317.108 1.504.419 4.406.656 4.398.359 10.312.375 20.11.375h26.859c9.791 0 15.712-.017 20.109-.375 2.878-.235 4.078-.546 4.407-.656a9.7 9.7 0 0 0 4.218-4.219c.111-.329.422-1.529.657-4.406.357-4.397.375-10.319.375-20.109v-26.86c0-9.797-.017-15.711-.375-20.109m48.375 46.969c0 9.012.04 17.24-.516 24.046-.579 7.084-1.927 14.729-5.766 22.266a57.6 57.6 0 0 1-25.172 25.172c-7.536 3.839-15.182 5.186-22.265 5.766-6.807.556-15.034.515-24.047.515h-26.859c-9.013 0-17.24.041-24.047-.515-7.082-.58-14.731-1.927-22.266-5.766a57.6 57.6 0 0 1-25.172-25.172c-3.837-7.536-5.186-15.183-5.765-22.266-.557-6.806-.516-15.034-.516-24.046v-26.86c0-9.013-.041-17.24.516-24.047.579-7.082 1.926-14.731 5.765-22.265a57.6 57.6 0 0 1 25.172-25.172c7.535-3.839 15.184-5.186 22.266-5.766 6.807-.556 15.034-.515 24.047-.515h26.859c9.013 0 17.24-.041 24.047.515 7.082.579 14.73 1.928 22.265 5.766a57.6 57.6 0 0 1 25.172 25.172c3.84 7.534 5.186 15.183 5.766 22.265.556 6.807.516 15.034.516 24.047zm177.225-46.969c-.238-2.903-.549-4.09-.657-4.406a9.7 9.7 0 0 0-4.218-4.219c-.333-.112-1.537-.422-4.407-.656-4.396-.358-10.319-.375-20.109-.375h-26.859c-9.797 0-15.712.016-20.11.375-2.894.236-4.085.547-4.406.656a9.7 9.7 0 0 0-4.219 4.219c-.108.321-.42 1.512-.656 4.406-.359 4.398-.375 10.312-.375 20.109v26.86c0 9.79.017 15.712.375 20.109.234 2.869.545 4.073.656 4.406a9.7 9.7 0 0 0 4.219 4.219c.317.108 1.504.419 4.406.656 4.398.359 10.312.375 20.11.375h26.859c9.791 0 15.713-.017 20.109-.375 2.878-.235 4.078-.546 4.407-.656a9.7 9.7 0 0 0 4.218-4.219c.111-.329.422-1.529.657-4.406.358-4.397.375-10.319.375-20.109v-26.86c0-9.797-.017-15.711-.375-20.109m48.375 46.969c0 9.012.04 17.24-.516 24.046-.579 7.084-1.927 14.729-5.766 22.266a57.6 57.6 0 0 1-25.171 25.172c-7.537 3.839-15.183 5.186-22.266 5.766-6.807.556-15.034.515-24.047.515h-26.859c-9.013 0-17.24.041-24.047-.515-7.082-.58-14.731-1.927-22.266-5.766a57.6 57.6 0 0 1-25.172-25.172c-3.837-7.536-5.186-15.183-5.765-22.266-.557-6.806-.516-15.034-.516-24.046v-26.86c0-9.013-.041-17.24.516-24.047.579-7.082 1.926-14.731 5.765-22.265a57.6 57.6 0 0 1 25.172-25.172c7.535-3.839 15.184-5.186 22.266-5.766 6.807-.556 15.034-.515 24.047-.515h26.859c9.013 0 17.24-.041 24.047.515 7.082.579 14.73 1.928 22.266 5.766a57.6 57.6 0 0 1 25.171 25.172c3.84 7.534 5.186 15.183 5.766 22.265.556 6.807.516 15.034.516 24.047z"/><path fill="#000" d="M585.619 256.331c0-19.21-.027-32.187-.844-42.188-.794-9.721-2.24-14.525-3.891-17.765a43.28 43.28 0 0 0-18.89-18.891c-3.239-1.645-8.029-3.051-17.719-3.844-10-.817-22.978-.844-42.187-.844H265.931c-19.21 0-32.186.027-42.187.844-9.721.794-14.526 2.193-17.766 3.844a43.26 43.26 0 0 0-18.891 18.891c-1.65 3.24-3.049 8.045-3.843 17.765-.817 10.001-.844 22.977-.844 42.188v221.25c0 13.254-10.745 24-24 24s-24-10.746-24-24v-221.25c0-18.422-.03-33.716.984-46.125 1.038-12.682 3.283-24.497 8.953-35.625a91.22 91.22 0 0 1 39.844-39.844c11.129-5.67 22.943-7.916 35.625-8.953 12.41-1.014 27.704-.985 46.125-.985h236.157c18.415 0 33.671-.029 46.078.985 12.686 1.036 24.493 3.284 35.625 8.953 17.159 8.743 31.147 22.684 39.89 39.844 5.67 11.127 7.869 22.944 8.907 35.625 1.013 12.409 1.031 27.703 1.031 46.125v60.14l41.953-41.859c9.38-9.358 24.574-9.33 33.937.047 9.354 9.38 9.329 24.576-.046 33.937l-82.922 82.782c-9.37 9.349-24.523 9.352-33.891 0l-82.922-82.782c-9.374-9.36-9.396-24.557-.047-33.937 9.362-9.376 24.557-9.401 33.938-.047l42 41.906z"/></svg>