<svg xmlns="http://www.w3.org/2000/svg" width="768" height="768" fill="none"><path fill="#000" d="M590.948 489.216c27.091-22.728 33.513-66.68 4.353-95.841l-49.219-49.219a24 24 0 0 1-6.984-15.844l-7.22-151.171C529.07 118.281 480.509 72 421.58 72h-75.187c-46.505 0-86.555 28.825-102.753 69.909l40.278 40.278.131-2.749C285.633 146.167 313.084 120 346.392 120h75.188c33.309 0 60.757 26.167 62.341 59.438l7.22 151.172a72 72 0 0 0 21 47.484l49.219 49.218c8.813 8.812 5.098 22.835-5.03 27.286zM218.471 504h141.515v168c0 13.253 10.745 24 24 24s24-10.747 24-24V504h62.041L611.39 645.36c9.37 9.374 24.562 9.374 33.936 0 9.082-9.082 9.365-23.626.845-33.048a25 25 0 0 0-.845-.888L156.608 122.705c-9.373-9.373-24.565-9.373-33.938 0s-9.373 24.565 0 33.938l109.19 109.19-2.983 62.479a24 24 0 0 1-6.985 15.844l-49.219 49.219C131.855 434.193 160.75 503.986 218.47 504zm37.359-125.906a72 72 0 0 0 21-47.484l.903-18.905L422.028 456H218.471c-14.956-.013-22.439-18.107-11.859-28.688z"/></svg>