<svg xmlns="http://www.w3.org/2000/svg" width="768" height="768" fill="none"><path fill="#000" fill-rule="evenodd" d="M112.471 112.471c-149.961 149.961-149.961 393.097 0 543.058s393.097 149.961 543.058 0 149.961-393.097 0-543.058-393.097-149.961-543.058 0M238.536 529.46c-16.067-16.067-16.067-42.117 0-58.185L401.04 308.771h-79.106c-22.722 0-41.143-18.42-41.143-41.142s18.421-41.143 41.143-41.143h178.434a41.144 41.144 0 0 1 41.143 41.146l-.016 178.418c-.002 22.723-18.423 41.142-41.146 41.14s-41.141-18.424-41.139-41.147l.006-79.078L296.721 529.46c-16.067 16.067-42.118 16.067-58.185 0" clip-rule="evenodd"/></svg>