<svg xmlns="http://www.w3.org/2000/svg" width="768" height="768" fill="none" viewBox="0 0 24 24"><path fill="#000" d="M14.5 14.875a.375.375 0 1 1 .75 0 .375.375 0 0 1-.75 0m2.62 2.62a.375.375 0 1 1 .75 0 .375.375 0 0 1-.75 0m2.63-2.62a.375.375 0 1 1 .75 0 .375.375 0 0 1-.75 0m0 5.25a.375.375 0 1 1 .75 0 .375.375 0 0 1-.75 0m-5.25 0a.375.375 0 1 1 .75 0 .375.375 0 0 1-.75 0"/><path fill="#000" d="m8.908 3.218.34-.668zm.874.874-.668.34zm-6.564 0-.668-.34zm.874-.874-.34-.668zm0 6.564.34-.668zm-.874-.874-.668.34zm5.69.874-.34-.668zm.874-.874-.668-.34zm-.874 5.31.34-.668zm.874.874-.668.34zm-6.564 0-.668-.34zm.874-.874-.34-.668zm0 6.564.34-.668zm-.874-.874-.668.34zm5.69.874-.34-.668zm.874-.874-.668-.34zm10.126-16.69.34-.668zm.874.874-.668.34zm-6.564 0-.668-.34zm.874-.874-.34-.668zm0 6.564.34-.668zm-.874-.874-.668.34zm5.69.874-.34-.668zm.874-.874-.668-.34zM6.8 10v-.75h-.6v1.5h.6zM3 6.8h.75v-.6h-1.5v.6zM6.2 3v.75h.6v-1.5h-.6zM10 6.2h-.75v.6h1.5v-.6zM6.8 3v.75c.572 0 .957 0 1.253.025.287.023.424.065.514.111l.341-.668.34-.668c-.337-.172-.693-.24-1.073-.27-.371-.03-.827-.03-1.375-.03zM10 6.2h.75c0-.548 0-1.004-.03-1.375-.03-.38-.098-.736-.27-1.073l-.668.34-.668.34c.046.091.088.228.111.515.024.296.025.68.025 1.253zM8.908 3.218l-.34.668c.235.12.426.311.546.547l.668-.341.668-.34A2.75 2.75 0 0 0 9.248 2.55zM3 6.2h.75c0-.572 0-.957.025-1.253.023-.287.065-.424.111-.514l-.668-.341-.668-.34c-.172.337-.24.693-.27 1.073-.03.371-.03.827-.03 1.375zM6.2 3v-.75c-.548 0-1.004 0-1.375.03-.38.03-.736.098-1.073.27l.34.668.34.668c.091-.046.228-.088.515-.111.296-.024.68-.025 1.253-.025zM3.218 4.092l.668.34a1.25 1.25 0 0 1 .547-.546l-.341-.668-.34-.668A2.75 2.75 0 0 0 2.55 3.752zM6.2 10v-.75c-.572 0-.957 0-1.253-.025-.287-.023-.424-.065-.514-.111l-.341.668-.34.668c.337.172.693.24 1.073.27.371.03.827.03 1.375.03zM3 6.8h-.75c0 .548 0 1.004.03 1.375.03.38.098.736.27 1.073l.668-.34.668-.34c-.046-.091-.088-.228-.111-.515-.024-.296-.025-.68-.025-1.253zm1.092 2.982.34-.668a1.25 1.25 0 0 1-.546-.547l-.668.341-.668.34a2.75 2.75 0 0 0 1.202 1.202zM6.8 10v.75c.548 0 1.004 0 1.375-.03.38-.03.736-.098 1.073-.27l-.34-.668-.34-.668c-.091.046-.228.088-.515.111-.296.024-.68.025-1.253.025zM10 6.8h-.75c0 .572 0 .957-.025 1.253-.023.287-.065.424-.111.514l.668.341.668.34c.172-.337.24-.693.27-1.073.03-.371.03-.827.03-1.375zM8.908 9.782l.34.668a2.75 2.75 0 0 0 1.202-1.202l-.668-.34-.668-.34a1.25 1.25 0 0 1-.547.546zM6.8 21v-.75h-.6v1.5h.6zM3 17.8h.75v-.6h-1.5v.6zM6.2 14v.75h.6v-1.5h-.6zm3.8 3.2h-.75v.6h1.5v-.6zM6.8 14v.75c.572 0 .957 0 1.253.025.287.023.424.065.514.111l.341-.668.34-.668c-.337-.172-.693-.24-1.073-.27-.371-.03-.827-.03-1.375-.03zm3.2 3.2h.75c0-.548 0-1.003-.03-1.375-.03-.38-.098-.736-.27-1.073l-.668.34-.668.34c.046.091.088.228.111.515.024.296.025.68.025 1.253zm-1.092-2.982-.34.668c.235.12.426.311.546.547l.668-.341.668-.34a2.75 2.75 0 0 0-1.202-1.202zM3 17.2h.75c0-.572 0-.957.025-1.252.023-.288.065-.425.111-.516l-.668-.34-.668-.34c-.172.337-.24.693-.27 1.073-.03.372-.03.827-.03 1.375zM6.2 14v-.75c-.548 0-1.004 0-1.375.03-.38.03-.736.098-1.073.27l.34.668.34.668c.091-.046.228-.088.515-.111.296-.024.68-.025 1.253-.025zm-2.982 1.092.668.34a1.25 1.25 0 0 1 .547-.546l-.341-.668-.34-.668a2.75 2.75 0 0 0-1.202 1.2zM6.2 21v-.75c-.572 0-.957 0-1.253-.025-.287-.023-.424-.065-.514-.111l-.341.668-.34.668c.337.172.693.24 1.073.27.371.03.827.03 1.375.03zM3 17.8h-.75c0 .548 0 1.003.03 1.375.03.38.098.736.27 1.073l.668-.34.668-.34c-.046-.091-.088-.228-.111-.516-.024-.295-.025-.68-.025-1.252zm1.092 2.982.34-.668a1.25 1.25 0 0 1-.546-.547l-.668.341-.668.34a2.75 2.75 0 0 0 1.202 1.202zM6.8 21v.75c.548 0 1.004 0 1.375-.03.38-.03.736-.098 1.073-.27l-.34-.668-.34-.668c-.091.046-.228.088-.515.111-.296.024-.68.025-1.253.025zm3.2-3.2h-.75c0 .572 0 .957-.025 1.252-.023.288-.065.425-.111.515l.668.341.668.34c.172-.337.24-.693.27-1.073.03-.372.03-.827.03-1.375zm-1.092 2.982.34.668a2.75 2.75 0 0 0 1.202-1.201l-.668-.341-.668-.34a1.25 1.25 0 0 1-.547.546zM17.8 10v-.75h-.6v1.5h.6zM14 6.8h.75v-.6h-1.5v.6zM17.2 3v.75h.6v-1.5h-.6zM21 6.2h-.75v.6h1.5v-.6zM17.8 3v.75c.572 0 .957 0 1.252.025.288.023.425.065.515.111l.341-.668.34-.668c-.337-.172-.693-.24-1.073-.27-.372-.03-.827-.03-1.375-.03zM21 6.2h.75c0-.548 0-1.004-.03-1.375-.03-.38-.098-.736-.27-1.073l-.668.34-.668.34c.046.091.088.228.111.515.024.296.025.68.025 1.253zm-1.092-2.982-.34.668c.235.12.426.311.546.547l.668-.341.668-.34a2.75 2.75 0 0 0-1.2-1.202zM14 6.2h.75c0-.572 0-.957.025-1.253.023-.287.065-.424.111-.514l-.668-.341-.668-.34c-.172.337-.24.693-.27 1.073-.03.371-.03.827-.03 1.375zM17.2 3v-.75c-.548 0-1.003 0-1.375.03-.38.03-.736.098-1.073.27l.34.668.34.668c.091-.046.228-.088.515-.111.296-.024.68-.025 1.253-.025zm-2.982 1.092.668.34a1.25 1.25 0 0 1 .547-.546l-.341-.668-.34-.668a2.75 2.75 0 0 0-1.202 1.202zM17.2 10v-.75c-.572 0-.957 0-1.252-.025-.288-.023-.425-.065-.516-.111l-.34.668-.34.668c.337.172.693.24 1.073.27.372.03.827.03 1.375.03zM14 6.8h-.75c0 .548 0 1.004.03 1.375.03.38.098.736.27 1.073l.668-.34.668-.34c-.046-.091-.088-.228-.111-.515-.024-.296-.025-.68-.025-1.253zm1.092 2.982.34-.668a1.25 1.25 0 0 1-.546-.547l-.668.341-.668.34a2.75 2.75 0 0 0 1.201 1.202zM17.8 10v.75c.548 0 1.003 0 1.375-.03.38-.03.736-.098 1.073-.27l-.34-.668-.34-.668c-.091.046-.228.088-.516.111-.295.024-.68.025-1.252.025zM21 6.8h-.75c0 .572 0 .957-.025 1.253-.023.287-.065.424-.111.514l.668.341.668.34c.172-.337.24-.693.27-1.073.03-.371.03-.827.03-1.375zm-1.092 2.982.34.668a2.75 2.75 0 0 0 1.202-1.202l-.668-.34-.668-.34a1.25 1.25 0 0 1-.547.546zM14.875 14.5v-.75c-.621 0-1.125.504-1.125 1.125h1.5a.375.375 0 0 1-.375.375zm.375.375H16c0-.621-.504-1.125-1.125-1.125v1.5a.375.375 0 0 1-.375-.375zm-.375.375V16c.621 0 1.125-.504 1.125-1.125h-1.5c0-.207.168-.375.375-.375zm0 0v-.75c.207 0 .375.168.375.375h-1.5c0 .621.504 1.125 1.125 1.125zm2.62 1.87v-.75c-.621 0-1.125.504-1.125 1.125h1.5a.375.375 0 0 1-.375.375zm.375.375h.75c0-.621-.504-1.125-1.125-1.125v1.5a.375.375 0 0 1-.375-.375zm-.375.375v.75c.621 0 1.125-.504 1.125-1.125h-1.5c0-.207.168-.375.375-.375zm0 0v-.75c.207 0 .375.168.375.375h-1.5c0 .621.504 1.125 1.125 1.125zm2.63-3.37v-.75c-.621 0-1.125.504-1.125 1.125h1.5a.375.375 0 0 1-.375.375zm.375.375h.75c0-.621-.504-1.125-1.125-1.125v1.5a.375.375 0 0 1-.375-.375zm-.375.375V16c.621 0 1.125-.504 1.125-1.125h-1.5c0-.207.168-.375.375-.375zm0 0v-.75c.207 0 .375.168.375.375H19c0 .621.504 1.125 1.125 1.125zm0 4.5V19c-.621 0-1.125.504-1.125 1.125h1.5a.375.375 0 0 1-.375.375zm.375.375h.75c0-.621-.504-1.125-1.125-1.125v1.5a.375.375 0 0 1-.375-.375zm-.375.375v.75c.621 0 1.125-.504 1.125-1.125h-1.5c0-.207.168-.375.375-.375zm0 0v-.75c.207 0 .375.168.375.375H19c0 .621.504 1.125 1.125 1.125zm-5.25-.75V19c-.621 0-1.125.504-1.125 1.125h1.5a.375.375 0 0 1-.375.375zm.375.375H16c0-.621-.504-1.125-1.125-1.125v1.5a.375.375 0 0 1-.375-.375zm-.375.375v.75c.621 0 1.125-.504 1.125-1.125h-1.5c0-.207.168-.375.375-.375zm0 0v-.75c.207 0 .375.168.375.375h-1.5c0 .621.504 1.125 1.125 1.125z"/></svg>