<svg xmlns="http://www.w3.org/2000/svg" width="768" height="768" fill="none"><path fill="#000" d="M580.098 384c0-25.458 13.925-47.712 34.286-60.375 8.669-5.436 11.668-8.216 13.232-10.205a33.3 33.3 0 0 0 5.786-11.625 33.3 33.3 0 0 0 .857-12.965h-.027c-.278-1.951-1.071-5.007-4.045-11.035-3.125-6.336-7.735-14.256-14.705-26.224-6.982-11.988-11.592-19.9-15.562-25.767-3.786-5.594-6.035-7.844-7.634-9.081l-2.759-1.902c-6.633-4.078-14.499-5.808-22.286-4.794l.027.027c-2.591.344-6.558 1.524-15.616 6.294l-.027-.027c-10.613 5.703-22.475 8.687-34.527 8.625a72.2 72.2 0 0 1-34.741-9.107l-.268-.16-.294-.161a71.6 71.6 0 0 1-25.286-25.366 71.64 71.64 0 0 1-9.857-34.447v-.026c-.417-10.079-1.362-13.847-2.277-16.018l-.027-.107a33.3 33.3 0 0 0-7.259-10.822 33.3 33.3 0 0 0-10.875-7.178l-.027-.027c-1.866-.767-4.988-1.596-11.892-2.063-7.117-.48-16.343-.482-30.268-.482-13.937 0-23.18.001-30.295.482-6.881.466-9.996 1.287-11.893 2.063l-.027.027a33.3 33.3 0 0 0-10.875 7.178 33.3 33.3 0 0 0-7.259 10.822l-.026.107c-.914 2.168-1.887 5.96-2.304 16.018l.027.026a71.64 71.64 0 0 1-9.857 34.447 71.7 71.7 0 0 1-25.34 25.366l-.267.161-.295.16a72.2 72.2 0 0 1-34.688 9.107 72.2 72.2 0 0 1-34.553-8.625c-9.052-4.765-13.027-5.923-15.616-6.267v-.027c-8.888-1.15-17.879 1.277-25.018 6.696-1.579 1.209-3.819 3.445-7.634 9.081-3.967 5.86-8.6 13.761-15.562 25.741v.026c-6.974 11.975-11.581 19.891-14.706 26.224-3.023 6.127-3.835 9.185-4.098 11.143-1.141 8.652 1.23 17.434 6.643 24.428l.027.054c1.498 1.943 4.434 4.717 13.205 10.205l3.75 2.491c18.311 12.987 30.562 34.01 30.562 57.884 0 25.459-13.924 47.712-34.285 60.375l-.027-.027c-8.678 5.443-11.698 8.216-13.259 10.206l.027.026a33.32 33.32 0 0 0-6.643 24.563c.273 1.949 1.108 4.999 4.098 11.062 3.125 6.336 7.736 14.256 14.706 26.224 6.981 11.987 11.592 19.901 15.562 25.767 3.808 5.627 6.06 7.875 7.661 9.108 7.064 5.381 16.057 7.795 24.991 6.642l2.25-.455c2.634-.698 6.564-2.257 13.366-5.839a72.2 72.2 0 0 1 34.553-8.598 72.2 72.2 0 0 1 30.697 7.017l4.045 2.09.321.187c21.997 12.676 34.48 35.665 35.384 59.652h-.027c.307 7.729.933 11.816 1.607 14.304l.697 2.035.026.107c3.381 8.12 9.915 14.628 18.188 18.027 1.867.766 4.972 1.597 11.866 2.063 7.118.481 16.361.482 30.295.482 13.925 0 23.151-.002 30.268-.482 6.904-.467 10.026-1.296 11.892-2.063l.027-.027a33.3 33.3 0 0 0 10.875-7.178 33.3 33.3 0 0 0 7.259-10.822l.027-.107c.923-2.19 1.866-6.006 2.277-16.285l.321-4.5c2.168-22.381 14.461-43.38 35.143-55.233l.295-.16a72.24 72.24 0 0 1 34.714-9.107 72.2 72.2 0 0 1 34.5 8.598c9.06 4.771 13.052 5.95 15.643 6.294a33.96 33.96 0 0 0 24.991-6.642c1.58-1.203 3.82-3.434 7.661-9.108 3.966-5.86 8.599-13.76 15.562-25.741v-.026c6.974-11.975 11.58-19.891 14.705-26.224 2.989-6.055 3.799-9.102 4.072-11.062.555-4.32.279-8.706-.857-12.911a33.3 33.3 0 0 0-3.911-8.946l-1.875-2.706c-1.499-1.944-4.423-4.738-13.205-10.232v.027c-20.367-12.684-34.313-34.906-34.313-60.375m-133.178 0c0-34.187-27.997-62.217-62.893-62.223-34.902 0-62.92 28.032-62.92 62.223s28.018 62.223 62.92 62.223c34.919-.006 62.893-28.031 62.893-62.223m49.366 0c0 61.811-50.426 111.583-112.259 111.589-61.805 0-112.286-49.769-112.286-111.589s50.481-111.589 112.286-111.589c61.799.006 112.259 49.773 112.259 111.589m133.178 0c0 6.005 2.896 12.178 8.491 16.661l2.545 1.821.053.027c9.907 6.196 19.071 12.744 26.143 21.911a82.7 82.7 0 0 1 14.357 28.928 82.7 82.7 0 0 1 2.17 32.197v.107c-1.274 9.482-4.608 18.001-8.759 26.411-4.052 8.21-9.671 17.819-16.312 29.223l-.027-.027c-6.621 11.393-12.169 21.048-17.304 28.634-5.26 7.771-11.043 14.873-18.669 20.678-17.465 13.304-39.516 19.221-61.34 16.34-11.431-1.512-21.659-6.037-32.169-11.572l-.268-.134a22.86 22.86 0 0 0-11.009-2.759c-3.78.02-7.505.951-10.821 2.759-6.089 3.543-10.259 10.372-10.554 18.616v.081c-.459 11.618-1.605 22.797-6.08 33.482l.026.027a82.75 82.75 0 0 1-45.053 44.759l-.027-.027c-8.828 3.615-17.857 5.019-27.214 5.652-9.167.619-20.354.616-33.616.616s-24.449.003-33.616-.616c-9.385-.635-18.469-2.015-27.322-5.652-20.326-8.353-36.498-24.414-44.946-44.652v.027c-4.519-10.722-5.647-21.954-6.107-33.616v-.054c-.316-8.281-4.492-15.077-10.581-18.643a22.8 22.8 0 0 0-10.768-2.785 22.85 22.85 0 0 0-11.009 2.785l-.294.134c-10.51 5.535-20.739 10.06-32.17 11.572h-.053c-21.759 2.829-43.824-2.99-61.313-16.313l-.027-.027c-7.606-5.813-13.334-12.94-18.589-20.705-5.126-7.575-10.724-17.19-17.357-28.58-6.646-11.411-12.26-21.035-16.313-29.25-4.146-8.407-7.485-16.92-8.758-26.384v-.107a82.7 82.7 0 0 1 2.142-32.197 82.7 82.7 0 0 1 14.331-28.902l.053-.08c7.082-9.124 16.227-15.654 26.17-21.884l.053-.053c7.218-4.489 11.009-11.557 11.009-18.429 0-6.86-3.768-13.956-11.035-18.482l-.054-.027c-9.913-6.2-19.096-12.761-26.17-21.937l.027-.027c-13.432-17.379-19.426-39.367-16.526-61.152v-.027c1.273-9.482 4.635-18 8.785-26.41 4.052-8.209 9.647-17.824 16.286-29.224 6.619-11.389 12.196-21.022 17.33-28.607 5.263-7.773 11.039-14.898 18.67-20.705l.027-.027a83.53 83.53 0 0 1 61.285-16.286h.027c8.573 1.134 16.476 3.961 24.322 7.634l7.848 3.938.268.134a22.86 22.86 0 0 0 11.009 2.759c3.735-.019 7.4-.965 10.687-2.733 3.125-1.905 5.749-4.53 7.607-7.687a22.3 22.3 0 0 0 3.054-10.714l.027-.322c.402-10.173 1.326-20.07 4.58-29.571l1.527-4.045a82.6 82.6 0 0 1 18-26.759 82.7 82.7 0 0 1 27-17.893v.027c8.846-3.62 17.887-5.017 27.268-5.652 9.166-.62 20.35-.616 33.616-.616 13.262 0 24.449-.003 33.616.616 9.357.633 18.386 2.037 27.214 5.652l.027-.027a82.8 82.8 0 0 1 27 17.893 82.6 82.6 0 0 1 18 26.759l1.527 4.045c2.322 6.778 3.465 13.745 4.071 20.893l.509 8.678.027.348a22.24 22.24 0 0 0 3.053 10.688 22.25 22.25 0 0 0 7.554 7.687 22.8 22.8 0 0 0 10.714 2.759c3.843.02 7.632-.952 11.009-2.785l.295-.134c10.51-5.535 20.738-10.06 32.169-11.572h.027a83.53 83.53 0 0 1 61.286 16.286l.08.054c7.607 5.813 13.335 12.94 18.59 20.705 5.126 7.575 10.723 17.191 17.357 28.58 6.646 11.412 12.26 21.035 16.312 29.25 3.109 6.303 5.749 12.669 7.42 19.447l1.339 6.937v.107a82.6 82.6 0 0 1-2.143 32.197 82.6 82.6 0 0 1-14.33 28.902l-.054.08c-7.081 9.123-16.227 15.655-26.169 21.884l-.054.053c-7.217 4.489-11.009 11.557-11.009 18.429"/></svg>