<svg xmlns="http://www.w3.org/2000/svg" width="768" height="768" fill="none"><path fill="#000" d="M296 208c0-48.601-39.399-88-88-88s-88 39.399-88 88 39.399 88 88 88 88-39.399 88-88m48 0c0 75.111-60.889 136-136 136S72 283.111 72 208 132.889 72 208 72s136 60.889 136 136m-48 352c0-48.601-39.399-88-88-88s-88 39.399-88 88 39.399 88 88 88 88-39.399 88-88m48 0c0 75.111-60.889 136-136 136S72 635.111 72 560s60.889-136 136-136 136 60.889 136 136m304-352c0-48.601-39.399-88-88-88s-88 39.399-88 88 39.399 88 88 88 88-39.399 88-88m48 0c0 75.111-60.889 136-136 136s-136-60.889-136-136S484.889 72 560 72s136 60.889 136 136m-48 352c0-48.601-39.399-88-88-88s-88 39.399-88 88 39.399 88 88 88 88-39.399 88-88m48 0c0 75.111-60.889 136-136 136s-136-60.889-136-136 60.889-136 136-136 136 60.889 136 136"/></svg>