<svg xmlns="http://www.w3.org/2000/svg" width="768" height="768" fill="none"><path fill="#000" d="M307.2 526.619v-285.25c.001-42.35 34.928-76.25 76.8-76.25h51.2c10.604 0 19.2 8.596 19.2 19.2s-8.596 19.2-19.2 19.2H384c-21.144 0-38.399 17.184-38.4 37.85v285.25c0 20.666 17.256 37.85 38.4 37.85h172.8c21.144 0 38.4-17.184 38.4-37.85v-163.1c.001-10.604 8.597-19.2 19.2-19.2s19.199 8.596 19.2 19.2v163.1c0 42.35-34.927 76.25-76.8 76.25H384c-41.873 0-76.8-33.9-76.8-76.25m-86.4 25.35v-335.95c.004-10.601 8.599-19.2 19.2-19.2s19.196 8.599 19.2 19.2v335.95c0 10.604-8.596 19.2-19.2 19.2s-19.2-8.596-19.2-19.2m-86.4-28.525v-278.9c.004-10.6 8.599-19.2 19.2-19.2s19.196 8.6 19.2 19.2v278.9c0 10.604-8.596 19.2-19.2 19.2s-19.2-8.596-19.2-19.2m460.8-249.525v-70.4h-70.4c-10.604 0-19.2-8.596-19.2-19.2s8.596-19.2 19.2-19.2h70.4v-70.4c0-10.604 8.596-19.2 19.2-19.2s19.2 8.596 19.2 19.2v70.4H704c10.604 0 19.2 8.596 19.2 19.2s-8.596 19.2-19.2 19.2h-70.4v70.4c0 10.604-8.596 19.2-19.2 19.2s-19.2-8.596-19.2-19.2"/></svg>