<svg xmlns="http://www.w3.org/2000/svg" width="768" height="768" fill="none"><path fill="#000" d="M134.4 419.85V332.8c0-34.136-.273-56.102 6.1-74.325a108.85 108.85 0 0 1 66.775-66.775c18.223-6.373 40.189-6.1 74.325-6.1h140.8c10.604 0 19.2 8.596 19.2 19.2s-8.596 19.2-19.2 19.2H281.6c-37.354 0-51.136.272-61.65 3.95a70.4 70.4 0 0 0-43.2 43.2c-2.966 8.477-3.695 19.08-3.875 42.45H448c10.604 0 19.2 8.596 19.2 19.2S458.604 352 448 352H172.8v67.85c0 25.401.008 43.299 1.15 57.275 1.123 13.748 3.253 22.001 6.525 28.425a70.43 70.43 0 0 0 30.775 30.775c6.424 3.272 14.677 5.402 28.425 6.525 13.976 1.142 31.874 1.15 57.275 1.15H512c12.403 0 17.017-.038 20.675-.45 32.639-3.678 58.397-29.436 62.075-62.075.412-3.658.45-8.272.45-20.675 0-10.604 8.596-19.2 19.2-19.2s19.2 8.596 19.2 19.2c0 11.361.039 18.635-.675 24.975-5.683 50.442-45.508 90.267-95.95 95.95-6.34.714-13.614.675-24.975.675H296.95c-24.767 0-44.499.024-60.4-1.275-16.128-1.318-30.009-4.083-42.75-10.575A108.82 108.82 0 0 1 146.25 523c-6.492-12.741-9.257-26.622-10.575-42.75-1.299-15.901-1.275-35.633-1.275-60.4m517.625-151.825c7.498-7.498 19.652-7.498 27.15 0l51.2 51.2c7.498 7.498 7.498 19.652 0 27.15l-51.2 51.2c-7.498 7.498-19.652 7.498-27.15 0s-7.498-19.652 0-27.15L670.45 352H537.6c-10.604 0-19.2-8.596-19.2-19.2s8.596-19.2 19.2-19.2h132.85l-18.425-18.425c-7.498-7.498-7.498-19.652 0-27.15m-89.6-128c7.498-7.498 19.652-7.498 27.15 0s7.498 19.652 0 27.15L571.15 185.6H704c10.604 0 19.2 8.596 19.2 19.2S714.604 224 704 224H571.15l18.425 18.425c7.498 7.498 7.498 19.652 0 27.15s-19.652 7.498-27.15 0l-51.2-51.2c-7.498-7.498-7.498-19.652 0-27.15z"/></svg>