<svg xmlns="http://www.w3.org/2000/svg" width="768" height="768" fill="none"><path fill="#000" d="M513.36 23.791c-6.901-3.793-14.89-4.415-22.209-1.73s-13.367 8.459-16.816 16.05l-27.928 61.392a272 272 0 0 0-62.4-7.088c-21.672 0-42.574 2.4-62.429 7.088l-27.913-61.392c-3.527-7.442-9.572-13.062-16.831-15.648s-15.152-1.932-21.976 1.823c-6.825 3.755-12.035 10.308-14.508 18.249s-2.011 16.631 1.286 24.2l24.189 53.216c-22.668 11.586-43.503 27.089-61.716 45.92-23.888 24.893-42.638 55.137-54.982 88.688 64.058 29.232 144.088 45.84 234.88 45.84 90.793 0 170.822-16.608 234.88-45.84-12.344-33.551-31.094-63.795-54.982-88.688-18.212-18.831-39.048-34.334-61.716-45.92l24.189-53.216c3.45-7.59 4.018-16.375 1.579-24.425s-7.684-14.706-14.582-18.503M165.447 312.48c57.92 21.312 124.48 33.568 196.728 35.616v399.488c-62.415-4.8-117.222-30.208-158.08-72.64-27.331-28.352-47.928-63.84-60.393-104.704l-54.357 23.904c-7.119 2.926-14.996 2.671-21.947-.71-6.95-3.382-12.422-9.621-15.244-17.383s-2.771-16.431.143-24.152 8.459-13.881 15.448-17.163l63.68-28.032a340 340 0 0 1-1.396-25.392l-.233-12.896H71.28c-7.715 0-15.115-3.371-20.57-9.372-5.456-6.001-8.52-14.141-8.52-22.628s3.064-16.626 8.52-22.627 12.855-9.373 20.57-9.373h58.225q.088-20.367.422-38.928l-62.167-27.36c-3.631-1.492-6.955-3.767-9.775-6.693s-5.081-6.44-6.65-10.34a34.7 34.7 0 0 1-2.48-12.368 34.9 34.9 0 0 1 2.075-12.458c1.44-3.959 3.584-7.562 6.307-10.597s5.97-5.44 9.55-7.075a26.8 26.8 0 0 1 11.298-2.445c3.876.022 7.71.895 11.275 2.568l72.727 32a29 29 0 0 1 3.375 1.76m240.349 35.616v399.488c62.414-4.8 117.222-30.208 158.08-72.64 27.331-28.352 47.927-63.84 60.393-104.704l54.356 23.904c7.119 2.926 14.997 2.671 21.947-.71 6.951-3.382 12.422-9.621 15.245-17.383s2.771-16.431-.143-24.152-8.459-13.881-15.449-17.163l-63.68-28.032a339 339 0 0 0 1.396-25.392l.233-12.896h58.531c7.715 0 15.115-3.371 20.57-9.372 5.456-6.001 8.521-14.141 8.521-22.628s-3.065-16.626-8.521-22.627c-5.455-6.001-12.855-9.373-20.57-9.373h-58.225a2852 2852 0 0 0-.422-38.928l62.167-27.36c3.631-1.492 6.955-3.767 9.775-6.693s5.081-6.44 6.649-10.34a34.7 34.7 0 0 0 2.481-12.368 34.9 34.9 0 0 0-2.075-12.458c-1.44-3.959-3.584-7.562-6.307-10.597s-5.97-5.44-9.55-7.075a26.8 26.8 0 0 0-11.298-2.445c-3.876.022-7.71.895-11.275 2.568l-72.727 32a27 27 0 0 0-3.389 1.76c-57.906 21.312-124.466 33.568-196.713 35.616"/></svg>