<svg xmlns="http://www.w3.org/2000/svg" width="768" height="768" fill="none"><path fill="#000" d="M383.982 651.213q-8.448 0-14.08-5.632-5.068-5.632-5.068-13.517v-56.32l10.137 9.574q-39.423-.563-72.089-10.7-32.666-10.7-55.194-27.034-6.195-4.506-9.011-10.701-2.252-6.758-1.127-12.953 1.69-6.196 5.632-10.701 4.506-4.506 10.701-5.069 6.195-1.127 14.08 3.942 18.586 12.954 45.056 22.528 26.47 9.575 65.895 9.575 32.665 0 53.504-8.448t30.976-23.655q10.137-15.205 10.137-35.481 0-15.77-7.321-27.597t-23.092-20.275q-15.77-8.449-42.24-14.08l-56.32-11.827q-51.25-11.264-76.032-36.608-24.78-25.908-24.78-67.584 0-32.666 15.769-58.01 16.333-25.907 45.056-40.55 28.723-15.207 67.021-16.896l-6.758 7.884v-55.193q0-7.885 5.068-13.517 5.632-5.632 14.08-5.632 7.886 0 13.517 5.632 5.632 5.632 5.632 13.517v55.193l-7.321-7.884q26.47.563 55.756 11.264 29.85 10.7 50.688 30.412 5.632 5.07 6.759 11.264 1.69 5.633-.563 11.264-1.69 5.07-6.196 9.012-3.942 3.379-10.7 3.942-6.195 0-13.517-5.069-18.586-15.205-41.677-23.091-22.529-8.448-54.63-8.448-42.24 0-67.584 20.275-24.781 20.276-24.781 53.504 0 25.908 15.769 41.677 15.77 15.207 51.252 22.528l56.883 12.39q55.193 11.827 81.101 36.045 25.907 23.654 25.907 64.205 0 32.103-16.333 56.32-16.332 23.655-44.493 37.734-28.16 13.518-65.331 16.333l9.011-9.574v56.883q0 7.885-5.632 13.517-5.069 5.631-13.517 5.632"/></svg>