<svg xmlns="http://www.w3.org/2000/svg" width="768" height="768" fill="none"><path fill="#000" d="M383.919 95.721H384c55.41-.138 110.831 3.045 165.938 9.615l-.032.029 13.017 1.5.694.068c32.21 3.954 61.121 18.581 83.066 40.217l.016.015c21.951 21.649 36.956 50.325 41.448 83.127l-.68-6.054q.819 5.97 1.578 11.961c16.556 13.932 27.913 33.865 30.563 56.54l1.716 16.097c.516 5.382.963 10.769 1.366 16.153l.134 1.82.109 113.092-.134 1.875c-1.074 14.34-2.206 25.774-3.571 37.14l.383-3.927-.053.482c-2.64 20.333-11.893 38.129-25.491 51.527l-.009.01a88 88 0 0 1-5.115 4.65 872 872 0 0 1-.795 5.813l-.084.747c-4.41 32.055-19.414 60.73-41.379 82.395l.016-.015c-21.951 21.656-50.853 36.282-83.748 40.302l-11.544 1.372 5.088-.508c-55.366 6.789-111.752 10.284-168.953 10.284-1.246 0-2.493-.002-3.546-.005l-.079.028h.183q-1.783.004-3.566.004c-57.261 0-113.702-3.507-162.475-9.648l-13.045-1.527-.695-.069c-32.211-3.951-61.121-18.578-83.066-40.215l-.016-.015c-21.95-21.649-36.955-50.325-41.448-83.127l.683 6.054c-7.176-52.19-10.883-105.483-10.883-159.644 0-54.16 3.707-107.453 10.2-153.589l.084-.749c4.41-32.054 19.414-60.73 41.38-82.396l-.016.015c21.951-21.656 50.854-36.282 83.748-40.302l13.045-1.5-6.644.666c55.42-6.807 111.862-10.313 169.122-10.313 1.198 0 2.397.002 3.409.005m.107 49.335h-.107l.185.001q-1.791-.004-3.583-.004c-55.205 0-109.621 3.38-156.646 9.3l-13.068 1.527c-20.721 2.469-40.029 11.788-54.885 26.439l-.011.011c-14.392 14.193-24.231 32.991-27.177 54.498l.653-5.796c-6.867 49.966-10.417 100.993-10.417 152.848s3.549 102.882 9.765 147.054l.056.49c2.889 21.026 12.727 39.835 27.132 54.047l-.01-.011c14.397 14.196 33.35 23.786 54.921 26.421l13.017 1.528-6.41-.643c53.453 6.563 107.889 9.941 163.115 9.941 1.168 0 2.336-.001 3.327-.004q1.74.004 3.484.004c55.226 0 109.662-3.38 156.705-9.3l13.072-1.527 7.687-1.258.611-.109c17.948-3.765 34.011-12.649 46.584-25.044l.011-.011a93.7 93.7 0 0 0 21.586-32.845c-56.517 5.702-114.5 5.4-170.863-.908-40.359-4.619-72.156-36.023-77.337-75.789l-.046-.443-.025-.242-.028-.213c-3.382-27.357-5.312-59.021-5.312-91.138 0-32.116 1.928-63.783 5.679-94.887l-.367 3.75.054-.429c2.637-20.34 11.888-38.148 25.49-51.552l.01-.011 5.466-4.928a87.26 87.26 0 0 1 46.068-19.732l.403-.037 22.368-2.172c20.152-1.776 43.6-2.789 67.285-2.789 27.394 0 54.472 1.356 81.17 4.001a94.1 94.1 0 0 0-20.938-32.109l-.661-.658c-12.58-12.414-28.646-21.308-47.207-25.19l-7.687-1.233-13.045-1.553 6.404.641c-53.433-6.563-107.848-9.941-163.053-9.941-1.206 0-2.409.002-3.425.005m168.442 115.408c-29.67 0-58.945 1.692-87.733 4.985l3.52-.327c-8.928 1.009-16.788 4.941-22.746 10.8l.005-.006c-6.147 6.053-10.063 14.022-11.143 22.581l-2.169 21.294c-1.785 19.216-2.804 41.559-2.804 64.137 0 30.078 1.806 59.734 5.318 88.865l-.345-3.51c1.151 8.896 5.193 16.684 11.139 22.549l.005.004c5.953 5.855 13.813 9.787 22.564 10.78l.177.016c55.558 6.219 112.873 6.221 168.43 0a38 38 0 0 0 6.061-1.161l.001-.009.01-.003c5.23-1.475 9.804-3.872 13.73-7.023q.266-.212.527-.429l2.383-2.171.004-.004q.366-.36.721-.73a39 39 0 0 0 2.345-2.671c3.614-4.524 6.237-9.912 7.557-15.959l.006-.029.537-3.162c.123-.72.304-2.153.514-3.989.35-3.267.72-6.973 1.148-11.626l1.338-15.617-.107-109.365-.001-.006a765 765 0 0 0-1.9-21.716c-.336-3.159-.67-6.032-.992-8.465v-.001l-.09-.717a42 42 0 0 0-.131-.88c-2.356-14.613-13.313-26.627-27.6-30.607l-.001-.002a31 31 0 0 0-2.515-.616l-.252-.044-3.296-.508c-25.269-2.966-54.545-4.658-84.215-4.658"/><path fill="#000" d="M520.512 351.851c8.198-8.196 19.521-13.265 32.028-13.265s23.831 5.069 32.028 13.265 13.266 19.519 13.266 32.028c0 12.508-5.07 23.832-13.266 32.028-8.181 8.101-19.438 13.107-31.867 13.107-25.016 0-45.296-20.279-45.296-45.296 0-12.429 5.006-23.686 13.11-31.872l-.003.003z"/></svg>