<svg width="128" height="128" viewBox="0 0 128 128" fill="none" xmlns="http://www.w3.org/2000/svg">
<circle cx="64" cy="64" r="64" fill="#213147"/>
<path d="M29.6841 46.8399V80.1599C29.6841 82.3019 30.8061 84.2399 32.6761 85.3279L61.5421 101.988C63.3781 103.042 65.6561 103.042 67.4921 101.988L96.3581 85.3279C98.1941 84.2739 99.3501 82.3019 99.3501 80.1599V46.8399C99.3501 44.6979 98.2281 42.7599 96.3581 41.6719L67.4921 25.0119C65.6561 23.9579 63.3781 23.9579 61.5421 25.0119L32.6761 41.6719C30.8401 42.7259 29.7181 44.6979 29.7181 46.8399H29.6841Z" fill="#213147"/>
<path d="M70.79 69.9599L66.676 81.2479C66.574 81.5539 66.574 81.8939 66.676 82.2339L73.748 101.648L81.942 96.9219L72.116 69.9599C71.878 69.3479 71.028 69.3479 70.79 69.9599Z" fill="#12AAFF"/>
<path d="M79.052 50.9881C78.814 50.3761 77.964 50.3761 77.726 50.9881L73.612 62.2761C73.51 62.5821 73.51 62.9221 73.612 63.2621L85.206 95.0521L93.4 90.3261L79.052 51.0221V50.9881Z" fill="#12AAFF"/>
<path d="M64.5001 26.27C64.7041 26.27 64.9081 26.338 65.0781 26.44L96.2901 44.46C96.6641 44.664 96.8681 45.072 96.8681 45.48V81.52C96.8681 81.928 96.6301 82.336 96.2901 82.54L65.0781 100.56C64.9081 100.662 64.7041 100.73 64.5001 100.73C64.2961 100.73 64.0921 100.662 63.9221 100.56L32.7101 82.54C32.3361 82.336 32.1321 81.928 32.1321 81.52V45.446C32.1321 45.038 32.3701 44.63 32.7101 44.426L63.9221 26.406C64.0921 26.304 64.2961 26.236 64.5001 26.236V26.27ZM64.5001 21C63.3781 21 62.2901 21.272 61.2701 21.85L30.0581 39.87C28.0521 41.026 26.8281 43.134 26.8281 45.446V81.486C26.8281 83.798 28.0521 85.906 30.0581 87.062L61.2701 105.082C62.2561 105.66 63.3781 105.932 64.5001 105.932C65.6221 105.932 66.7101 105.66 67.7301 105.082L98.9421 87.062C100.948 85.906 102.172 83.798 102.172 81.486V45.446C102.172 43.134 100.948 41.026 98.9421 39.87L67.6961 21.85C66.7101 21.272 65.5881 21 64.4661 21H64.5001Z" fill="#9DCCED"/>
<path d="M43.828 95.0861L46.718 87.1981L52.498 91.9921L47.092 96.9561L43.828 95.0861Z" fill="#213147"/>
<path d="M61.848 42.8961H53.926C53.348 42.8961 52.804 43.2701 52.6 43.8141L35.634 90.3261L43.828 95.0521L62.528 43.8141C62.698 43.3381 62.358 42.8621 61.882 42.8621L61.848 42.8961Z" fill="white"/>
<path d="M75.72 42.8961H67.798C67.22 42.8961 66.676 43.2701 66.472 43.8141L47.092 96.9221L55.286 101.648L76.366 43.8141C76.536 43.3381 76.196 42.8621 75.72 42.8621V42.8961Z" fill="white"/>
</svg>
