<?xml version="1.0" encoding="UTF-8"?>
<svg width="1074px" height="1074px" viewBox="0 0 1074 1074" version="1.1" xmlns="http://www.w3.org/2000/svg" xmlns:xlink="http://www.w3.org/1999/xlink">
    <title>NoNftImage2Dark</title>
    <defs>
        <path d="M0,0 L1074,0 L1074,1074 L0,1074 L0,0 Z" id="path-1"></path>
    </defs>
    <g id="NoNftImage2Dark" stroke="none" fill="none" xlink:href="#path-1" fill-rule="evenodd">
        <use fill="#000000" xlink:href="#path-1"></use>
        <path d="M312.515556,312.515541 C274,351.030857 274,413.02048 274,537 C274,660.978193 274,722.969919 312.515556,761.483632 C351.030857,800 413.020494,800 537,800 C660.978193,800 722.969919,800 761.483632,761.483632 C800,722.969919 800,660.978193 800,537 C800,413.02048 800,351.030857 761.483632,312.515541 C722.969919,274 660.978193,274 537,274 C413.020494,274 351.030857,274 312.515556,312.515541 Z M442.25347,680.245565 C448.740624,688.99822 461.094268,690.833989 469.845856,684.345783 C489.002515,670.149035 512.122841,661.925 537,661.925 C561.877159,661.925 584.997485,670.149035 604.154435,684.345783 C612.90706,690.833989 625.260174,688.99822 631.745754,680.245565 C638.23396,671.49294 636.39822,659.139797 627.645565,652.654217 C602.07146,633.697177 570.795485,622.475 537,622.475 C503.2045,622.475 471.928525,633.697177 446.354144,652.654217 C437.602295,659.139797 435.766577,671.49294 442.25347,680.245565 Z M642.2,497.55 C642.2,519.336913 630.425486,537 615.9,537 C601.374514,537 589.6,519.336913 589.6,497.55 C589.6,475.762289 601.374514,458.1 615.9,458.1 C630.425486,458.1 642.2,475.762289 642.2,497.55 Z M458.1,537 C472.624957,537 484.4,519.336913 484.4,497.55 C484.4,475.762289 472.624957,458.1 458.1,458.1 C443.575043,458.1 431.8,475.762289 431.8,497.55 C431.8,519.336913 443.575043,537 458.1,537 Z" id="NoNftImage" fill="#8E8E93"></path>
    </g>
</svg>