<svg xmlns="http://www.w3.org/2000/svg" width="24" height="24" fill="none"><g clip-path="url(#coin_ton_svg__a)"><path fill="#08C" d="M12 24c6.627 0 12-5.373 12-12S18.627 0 12 0 0 5.373 0 12s5.373 12 12 12"/><path fill="#fff" fill-rule="evenodd" d="M8.085 7.105h7.891c.28 0 .558.041.85.177.35.163.534.42.664.61l.029.045q.23.408.231.88c0 .3-.071.627-.231.912l-.005.008-4.985 8.564a.612.612 0 0 1-1.06-.004L6.575 9.752l-.004-.007c-.112-.185-.285-.47-.315-.839a1.67 1.67 0 0 1 .953-1.645c.33-.155.665-.156.876-.156m3.303 1.223H8.085c-.217 0-.3.014-.358.041a.44.44 0 0 0-.252.437c.004.052.025.112.15.318l.008.013 3.755 6.557zm1.224 0v7.399l3.842-6.6a.7.7 0 0 0 .073-.31.54.54 0 0 0-.064-.26 1 1 0 0 0-.097-.125.2.2 0 0 0-.057-.041.7.7 0 0 0-.333-.063z" clip-rule="evenodd"/></g><defs><clipPath id="coin_ton_svg__a"><path fill="#fff" d="M0 0h24v24H0z"/></clipPath></defs></svg>