<svg width="30" height="30" viewBox="0 0 30 30" fill="none" xmlns="http://www.w3.org/2000/svg">
<rect width="30" height="30" fill="url(#bg)"/>
<path d="M23 12.5806C23 12.8116 23.1044 13.0182 23.2687 13.1558H24.2313C24.3956 13.0182 24.5 12.8116 24.5 12.5806V11.2715H23V12.5806Z" fill="white"/>
<path fill-rule="evenodd" clip-rule="evenodd" d="M24.2313 13.1558C24.1011 13.2649 23.9332 13.3306 23.75 13.3306C23.5668 13.3306 23.3989 13.2649 23.2687 13.1558H24.2313ZM24.5 11.2715H23V10.3306H20.75C20.3358 10.3306 20 9.99478 20 9.58057C20 9.16635 20.3358 8.83057 20.75 8.83057H23V8.01011C23.4555 8.10955 23.8213 8.29742 24.0977 8.57373C24.5055 8.97637 24.7231 9.56198 24.7505 10.3306H24.5V11.2715ZM23.75 14.8306C24.1106 14.8306 24.4513 14.7458 24.7534 14.595V19.5391C24.7534 20.3913 24.5348 21.0304 24.0977 21.4565C23.666 21.8882 23.0158 22.104 22.147 22.104H7.85303C6.98421 22.104 6.33122 21.8882 5.89404 21.4565C5.4624 21.0304 5.24658 20.3913 5.24658 19.5391V13.1558H21.5742C21.8284 14.1198 22.7062 14.8306 23.75 14.8306ZM7.85303 7.92627H19.2249C18.7792 8.33739 18.5 8.92637 18.5 9.58057C18.5 10.2544 18.7962 10.8591 19.2656 11.2715H5.24658V10.4995C5.24658 9.64176 5.4624 8.99984 5.89404 8.57373C6.33122 8.14209 6.98421 7.92627 7.85303 7.92627Z" fill="white"/>
<path d="M26.75 10.3306C27.1642 10.3306 27.5 9.99478 27.5 9.58057C27.5 9.16635 27.1642 8.83057 26.75 8.83057H24.5V6.58057C24.5 6.16635 24.1642 5.83057 23.75 5.83057C23.3358 5.83057 23 6.16635 23 6.58057V8.01011C23.4555 8.10955 23.8213 8.29742 24.0977 8.57373C24.5055 8.97637 24.7231 9.56198 24.7505 10.3306H26.75Z" fill="white"/>
<defs>
<linearGradient id="bg" x1="15" y1="0" x2="15" y2="30" gradientUnits="userSpaceOnUse">
<stop stop-color="#30DF77"/>
<stop offset="1" stop-color="#00CB47"/>
</linearGradient>
</defs>
</svg>
