<svg width="20" height="20" viewBox="0 0 20 20" fill="none" xmlns="http://www.w3.org/2000/svg">
<defs>
<mask id="cutouts" maskUnits="userSpaceOnUse" x="0" y="0" width="20" height="20" style="mask-type:luminance">
<rect width="20" height="20" fill="white"/>
<path d="M10.7686 9.99951C10.7684 9.02166 9.97497 8.229 8.99707 8.229C8.01932 8.22918 7.22674 9.02177 7.22656 9.99951C7.22656 10.9774 8.01922 11.7708 8.99707 11.771V12.771L8.71387 12.7563C7.31677 12.6143 6.22656 11.4341 6.22656 9.99951C6.22674 8.46948 7.46704 7.22918 8.99707 7.229C10.5273 7.229 11.7684 8.46937 11.7686 9.99951L11.7539 10.2827C11.6122 11.6801 10.4319 12.771 8.99707 12.771V11.771C9.97507 11.771 10.7686 10.9775 10.7686 9.99951Z" fill="black"/>
<path d="M14.1641 16C14.1641 16.4612 14.5379 16.835 14.999 16.835C15.4602 16.835 15.834 16.4612 15.834 16V13.835H17.999C18.4602 13.835 18.834 13.4612 18.834 13C18.834 12.5388 18.4602 12.165 17.999 12.165V11.165C18.9492 11.165 19.7303 11.8872 19.8242 12.8125L19.834 13C19.834 14.0134 19.0125 14.835 17.999 14.835H16.834V16C16.834 17.0134 16.0125 17.835 14.999 17.835C13.9856 17.835 13.1641 17.0134 13.1641 16V14.835H11.999C10.9856 14.835 10.1641 14.0134 10.1641 13C10.1641 11.9866 10.9856 11.165 11.999 11.165V12.165C11.5379 12.165 11.1641 12.5388 11.1641 13C11.1641 13.4612 11.5379 13.835 11.999 13.835H14.1641V16ZM15.834 10C15.834 9.53884 15.4602 9.16504 14.999 9.16504C14.5379 9.16504 14.1641 9.53884 14.1641 10V12.165H11.999V11.165H13.1641V10C13.1641 8.98656 13.9856 8.16504 14.999 8.16504C16.0125 8.16504 16.834 8.98656 16.834 10V11.165H17.999V12.165H15.834V10Z" fill="black"/>
</mask>
</defs>
<g mask="url(#cutouts)">
<path d="M3.00488 8.27976C6.11618 4.65767 11.8854 4.65713 14.9951 8.27976C15.1094 8.41291 15.2267 8.54842 15.3262 8.70945C15.431 8.87939 15.5079 9.0628 15.5771 9.30027C15.6343 9.49647 15.6514 9.77389 15.6514 10.0005C15.6513 10.2271 15.6344 10.5045 15.5771 10.7007C15.5079 10.938 15.431 11.1207 15.3262 11.2905C15.2266 11.4517 15.1096 11.5879 14.9951 11.7212C11.8849 15.3436 6.1161 15.343 3.00488 11.7212C2.89042 11.5879 2.7724 11.4526 2.67285 11.2915C2.56791 11.1215 2.49217 10.9382 2.42285 10.7007C2.36561 10.5045 2.34767 10.2272 2.34766 10.0005C2.34766 9.7738 2.36565 9.49654 2.42285 9.30027C2.49216 9.06274 2.56794 8.87942 2.67285 8.70945C2.77239 8.54826 2.89041 8.41302 3.00488 8.27976Z" fill="white"/>
<path d="M14.999 9.16504C15.4602 9.16504 15.834 9.53884 15.834 10V12.165H17.999C18.4602 12.165 18.834 12.5388 18.834 13C18.834 13.4612 18.4602 13.835 17.999 13.835H15.834V16C15.834 16.4612 15.4602 16.835 14.999 16.835C14.5379 16.835 14.1641 16.4612 14.1641 16V13.835H11.999C11.5379 13.835 11.1641 13.4612 11.1641 13C11.1641 12.5388 11.5379 12.165 11.999 12.165H14.1641V10C14.1641 9.53884 14.5379 9.16504 14.999 9.16504Z" fill="white"/>
</g>
</svg>
