<?xml version="1.0" encoding="UTF-8"?>
<svg width="26px" height="26px" viewBox="0 0 26 26" version="1.1" xmlns="http://www.w3.org/2000/svg" xmlns:xlink="http://www.w3.org/1999/xlink">
    <title>MenuSell26</title>
    <g id="MenuSell26" stroke="none" fill="none" fill-rule="nonzero">
        <path d="M4.0897921,11.36475 L7.8998461,11.36475 C8.0935361,11.36475 8.2401861,11.40625 8.3397961,11.48926 C8.4394061,11.56673 8.4864361,11.67188 8.4809061,11.80469 C8.4809061,11.93197 8.4255661,12.07308 8.3148861,12.22803 L6.4638161,14.876 C6.3310061,15.0641 6.1760561,15.161 5.9989761,15.1665 C5.8218861,15.1665 5.6641761,15.0697 5.5258261,14.876 L3.6664521,12.23633 C3.5557754,12.08138 3.50043688,11.9375 3.50043688,11.80469 C3.49490303,11.67188 3.5419408,11.56673 3.6415501,11.48926 C3.7411591,11.40625 3.8905741,11.36475 4.0897921,11.36475 Z M22.0443361,12.9668 C22.0443361,14.13444 21.8230361,15.2301 21.3803361,16.2539 C20.9431361,17.2777 20.3372361,18.1769 19.5624361,18.9517 C18.7877361,19.7264 17.8884361,20.3324 16.8647361,20.7695 C15.8409361,21.2122 14.7452361,21.4336 13.5775361,21.4336 C12.6257661,21.4336 11.7237461,21.2869 10.8715261,20.9937 C10.0248461,20.7059 9.2501161,20.2964 8.5473161,19.7651 C7.8445161,19.2394 7.2357861,18.6196 6.7211361,17.9058 C6.5772561,17.7231 6.5246861,17.5295 6.5634261,17.3247 C6.6021661,17.12 6.7045361,16.965 6.8705561,16.8599 C7.0476361,16.7547 7.2247161,16.7271 7.4018061,16.7769 C7.5844261,16.8211 7.7393661,16.929 7.8666461,17.1006 C8.2872161,17.6872 8.7908061,18.1991 9.3773861,18.6362 C9.9695161,19.0734 10.6197361,19.4137 11.3280761,19.6572 C12.0364061,19.9007 12.7862461,20.0225 13.5775361,20.0225 C14.5515361,20.0225 15.4646361,19.8398 16.3168361,19.4746 C17.1690361,19.1094 17.9189361,18.603 18.5663361,17.9556 C19.2138361,17.3081 19.7201361,16.5583 20.0854361,15.7061 C20.4506361,14.8538 20.6332361,13.94076 20.6332361,12.9668 C20.6332361,11.99284 20.4506361,11.07975 20.0854361,10.22754 C19.7201361,9.36979 19.2138361,8.61995 18.5663361,7.97803 C17.9189361,7.33057 17.1690361,6.82422 16.3168361,6.45898 C15.4646361,6.09375 14.5515361,5.91113 13.5775361,5.91113 C12.5980961,5.91113 11.6822361,6.09375 10.8300261,6.45898 C9.9778161,6.82422 9.2279761,7.33057 8.5805161,7.97803 C7.9385861,8.61995 7.4350061,9.36979 7.0697761,10.22754 C6.7045361,11.07975 6.5219261,11.99284 6.5219261,12.9668 C6.5219261,13.16048 6.4499861,13.3265 6.3060961,13.46484 C6.1677561,13.60319 6.0017361,13.67236 5.8080561,13.67236 C5.6199061,13.67236 5.4566561,13.60596 5.3183061,13.47314 C5.1799661,13.3348 5.1107861,13.16878 5.1107861,12.9751 C5.1107861,11.80192 5.3293761,10.70345 5.7665461,9.67969 C6.2092561,8.65592 6.8179861,7.75667 7.5927261,6.98193 C8.3674661,6.20166 9.2667161,5.59294 10.2904761,5.155762 C11.3142361,4.718587 12.4099461,4.5 13.5775361,4.5 C14.7452361,4.5 15.8409361,4.718587 16.8647361,5.155762 C17.8884361,5.59294 18.7877361,6.20166 19.5624361,6.98193 C20.3372361,7.75667 20.9431361,8.65592 21.3803361,9.67969 C21.8230361,10.70345 22.0443361,11.79915 22.0443361,12.9668 Z M13.5859361,16.5942 C13.2261861,16.5942 12.8637161,16.5417 12.4984861,16.4365 C12.1332461,16.3258 11.8122861,16.1571 11.5355961,15.9302 C11.2588961,15.6978 11.0679861,15.3989 10.9628361,15.0337 C10.9296361,14.923 10.9130361,14.8345 10.9130361,14.7681 C10.9130361,14.6353 10.9573061,14.5301 11.0458461,14.45264 C11.1343861,14.37516 11.2395361,14.33643 11.3612761,14.33643 C11.4719561,14.33643 11.5632661,14.3641 11.6352061,14.41943 C11.7071461,14.47477 11.7680161,14.5661 11.8178161,14.6934 C11.9672361,15.0918 12.1913561,15.374 12.4901861,15.54 C12.7945461,15.7005 13.1680761,15.7808 13.6108361,15.7808 C13.8874361,15.7808 14.1558361,15.7448 14.4159361,15.6729 C14.6816361,15.6009 14.8974361,15.4792 15.0634361,15.3076 C15.2349361,15.1305 15.3207361,14.8898 15.3207361,14.5854 C15.3207361,14.20915 15.1768361,13.93799 14.8891361,13.77197 C14.6013361,13.60596 14.2720361,13.47868 13.9013361,13.39014 L13.1044361,13.19922 C12.7668761,13.12174 12.4403761,13.01107 12.1249461,12.86719 C11.8095161,12.71777 11.5494261,12.51579 11.3446761,12.26123 C11.1454561,12.00114 11.0458461,11.66357 11.0458461,11.24854 C11.0458461,10.82243 11.1648261,10.45996 11.4027761,10.16113 C11.6407361,9.85677 11.9533961,9.62435 12.3407661,9.46387 C12.7281361,9.30339 13.1431761,9.22314 13.5859361,9.22314 C13.9788361,9.22314 14.3689361,9.30062 14.7563361,9.45557 C15.1436361,9.61051 15.4674361,9.82633 15.7275361,10.10303 C15.9875361,10.37419 16.1176361,10.68685 16.1176361,11.04102 C16.1176361,11.1849 16.0678361,11.29281 15.9682361,11.36475 C15.8741361,11.43115 15.7745361,11.46436 15.6693361,11.46436 C15.5587361,11.46436 15.4646361,11.43392 15.3871361,11.37305 C15.3096361,11.31217 15.2488361,11.2181 15.2045361,11.09082 C15.0938361,10.74219 14.9001361,10.47933 14.6234361,10.30225 C14.3468361,10.12516 14.0009361,10.03662 13.5859361,10.03662 C13.3313261,10.03662 13.0795361,10.07812 12.8305161,10.16113 C12.5814961,10.24414 12.3767361,10.36865 12.2162561,10.53467 C12.0557761,10.70068 11.9755361,10.9165 11.9755361,11.18213 C11.9755361,11.40902 12.0364061,11.59717 12.1581561,11.74658 C12.2798961,11.896 12.4403761,12.01774 12.6395961,12.11182 C12.8443461,12.20036 13.0684661,12.2723 13.3119561,12.32764 L14.1088361,12.51855 C14.4851361,12.6071 14.8337361,12.72884 15.1547361,12.88379 C15.4812361,13.0332 15.7441361,13.23796 15.9433361,13.49805 C16.1425361,13.75814 16.2421361,14.0957 16.2421361,14.5107 C16.2421361,14.9867 16.1176361,15.3796 15.8686361,15.6895 C15.6251361,15.9938 15.3013361,16.2207 14.8974361,16.3701 C14.4934361,16.5195 14.0562361,16.5942 13.5859361,16.5942 Z M13.5775361,17.582 C13.5001361,17.582 13.4337061,17.5544 13.3783661,17.499 C13.3285661,17.4437 13.3036561,17.38 13.3036561,17.3081 L13.3036561,8.52588 C13.3036561,8.45394 13.3285661,8.3903 13.3783661,8.33496 C13.4337061,8.27962 13.5001361,8.25195 13.5775361,8.25195 C13.6550361,8.25195 13.7187361,8.27962 13.7685361,8.33496 C13.8238361,8.3903 13.8515361,8.45394 13.8515361,8.52588 L13.8515361,17.3081 C13.8515361,17.38 13.8238361,17.4437 13.7685361,17.499 C13.7187361,17.5544 13.6550361,17.582 13.5775361,17.582 Z" id="Shape" fill="#333333"></path>
    </g>
</svg>