<svg width="26" height="26" viewBox="0 0 26 26" fill="none" xmlns="http://www.w3.org/2000/svg">
<mask id="mask0_683_5986" style="mask-type:luminance" maskUnits="userSpaceOnUse" x="0" y="0" width="26" height="26">
<path d="M0 0H25.7426V26H0V0Z" fill="white"/>
</mask>
<g mask="url(#mask0_683_5986)">
<path d="M12.6436 3.94312C13.1694 3.92987 13.6955 3.96151 14.2158 4.03882C14.5922 4.09483 14.8556 4.45051 14.7998 4.8269C14.7438 5.20345 14.3883 5.46692 14.0117 5.41089C13.5687 5.34502 13.1206 5.31825 12.6729 5.32983C10.7895 5.37586 8.98779 6.1165 7.61621 7.40796C7.51298 7.50507 7.41232 7.60529 7.31445 7.70776C5.95191 9.13331 5.19149 11.0317 5.19434 13.0037C5.19148 14.8758 5.87648 16.6856 7.11816 18.0867H7.11914C7.30512 18.297 7.50221 18.4974 7.70996 18.6863C9.02012 19.8797 10.7056 20.5817 12.4756 20.6707C12.9888 20.697 13.5034 20.6721 14.0117 20.5964C14.3883 20.5404 14.7438 20.8039 14.7998 21.1804C14.8558 21.5569 14.5923 21.9125 14.2158 21.9685C13.7768 22.0337 13.3276 22.0671 12.8711 22.0671C10.6625 22.0706 8.52783 21.2634 6.87402 19.7996C6.62418 19.5789 6.3863 19.345 6.16211 19.0984C4.69744 17.4905 3.86211 15.4056 3.81055 13.2312C3.80762 13.1163 3.80704 13.0014 3.80859 12.8865C3.83838 10.5312 4.76615 8.39188 6.26562 6.79663C6.37971 6.67557 6.49751 6.55781 6.61816 6.44312C8.19349 4.94108 10.3087 4.00058 12.6436 3.94312ZM19.0459 17.5652C19.2756 17.264 19.7252 17.1878 20.0293 17.4197C20.332 17.6505 20.391 18.0897 20.1602 18.3923L20.1592 18.3914C19.623 19.1155 18.983 19.7566 18.2588 20.2927L18.2578 20.2937C17.9502 20.5144 17.4985 20.4566 17.2754 20.1462C17.0533 19.8371 17.1245 19.3996 17.4336 19.1775C18.0476 18.7228 18.5913 18.1802 19.0459 17.5662V17.5652ZM21.0479 11.075C21.4243 11.019 21.7798 11.2825 21.8359 11.6589C21.9684 12.5505 21.9684 13.4569 21.8359 14.3484C21.7799 14.7249 21.4243 14.9883 21.0479 14.9324C20.6713 14.8763 20.4078 14.5208 20.4639 14.1443L20.5 13.864C20.5315 13.5818 20.5479 13.2948 20.5479 13.0037C20.5478 12.6157 20.5194 12.2346 20.4639 11.863C20.408 11.4866 20.6714 11.131 21.0479 11.075ZM17.2871 5.84546C17.518 5.54291 17.9571 5.4838 18.2598 5.7146H18.2588C18.9831 6.25086 19.6239 6.89165 20.1602 7.61597L20.1611 7.61694C20.3779 7.92301 20.3091 8.3517 20.0078 8.57495C19.7063 8.7981 19.2764 8.73877 19.0469 8.44214L19.0459 8.44116C18.5912 7.82703 18.0478 7.2835 17.4336 6.82886H17.4326C17.1315 6.59911 17.0552 6.14955 17.2871 5.84546Z" fill="black" stroke="black" stroke-width="0.1"/>
<path d="M12.8713 7.88135C13.2074 7.88141 13.4836 8.15757 13.4836 8.49365V12.6099C13.4837 12.676 13.5117 12.7395 13.5608 12.7837L16.0823 14.9146H16.0833C16.3345 15.1379 16.3573 15.5285 16.134 15.7798C15.911 16.0305 15.522 16.0538 15.2708 15.8315L12.7493 13.7007L12.7483 13.6997C12.4372 13.423 12.259 13.0263 12.259 12.6099V8.49365C12.259 8.15753 12.5352 7.88135 12.8713 7.88135Z" fill="black" stroke="black" stroke-width="0.1"/>
</g>
</svg>
