<svg width="13" height="16" viewBox="0 0 13 16" fill="none" xmlns="http://www.w3.org/2000/svg">
<path d="M6.1 0C8.20559 0 9.9125 1.70558 9.9125 3.80952V5.45536C10.1463 5.50375 10.3491 5.57051 10.535 5.66518C11.1088 5.95735 11.5755 6.42369 11.8679 6.99702C12.2003 7.64895 12.2 8.50299 12.2 10.2098V11.1235C12.2 12.8303 12.2003 13.6844 11.8679 14.3363C11.5755 14.9096 11.1088 15.376 10.535 15.6682C9.88258 16.0003 9.02786 16 7.3197 16H4.8803C3.17214 16 2.31742 16.0003 1.66499 15.6682C1.0912 15.376 0.624499 14.9096 0.332104 14.3363C-0.000325639 13.6844 1.245e-09 12.8303 1.245e-09 11.1235V10.2098C1.245e-09 8.50299 -0.000325639 7.64895 0.332104 6.99702C0.624499 6.42369 1.0912 5.95735 1.66499 5.66518C1.85093 5.57051 2.05371 5.50375 2.2875 5.45536V3.80952C2.2875 1.70558 3.99441 0 6.1 0ZM6.1 1.14286C4.62609 1.14286 3.43125 2.33676 3.43125 3.80952V5.34673C3.83525 5.33439 4.31037 5.33333 4.8803 5.33333H7.3197C7.88963 5.33333 8.36475 5.33439 8.76875 5.34673V3.80952C8.76875 2.33676 7.57391 1.14286 6.1 1.14286Z" fill="white"/>
</svg>
