<svg xmlns="http://www.w3.org/2000/svg" width="20" height="20" fill="none"><g clip-path="url(#logoCircle_svg__a)"><path fill="#fff" fill-rule="evenodd" d="M10 20c5.523 0 10-4.477 10-10S15.523 0 10 0 0 4.477 0 10s4.477 10 10 10M.82 10a9.18 9.18 0 1 1 18.36 0A9.18 9.18 0 0 1 .82 10m5.895-6.457.43-1.39 1.221.79-.417 1.422zm-2.082.06 1.418.324.095 1.48-1.441-.35zM2.769 5.826l1.443-.181.595 1.358-1.474.163zM1.777 8.55l1.294-.664L4.095 8.96l-1.33.657zm0 2.9.989-1.066 1.329.657-1.024 1.073zm.992 2.725.564-1.34 1.474.163-.595 1.358zm1.864 2.221.072-1.452 1.44-.35-.094 1.48zm2.511 1.45-.429-1.39 1.234-.821.417 1.423zM10 18.35l-.878-1.16.878-1.194.879 1.195zm2.856-.504-1.222-.788.417-1.423 1.234.822zm2.511-1.45-1.418-.323-.095-1.48 1.441.35zm1.864-2.221-1.443.181-.595-1.358 1.474-.163zm.992-2.725-1.294.664-1.024-1.073 1.33-.657zm0-2.9-.989 1.066-1.329-.657 1.024-1.073zm-.992-2.725-.564 1.34-1.474-.163.595-1.358zm-1.864-2.221-.072 1.452-1.44.35.094-1.48zm-2.511-1.45.429 1.39-1.234.821-.417-1.423zM10 1.65l.879 1.16L10 4.003l-.878-1.195zM4.844 10a5.156 5.156 0 1 1 10.312 0 5.156 5.156 0 0 1-10.312 0m-.766 4.97-.057 1.148a8.6 8.6 0 0 1-1.086-1.292zm.934 1.98 1.123-.255.34 1.102a8.5 8.5 0 0 1-1.463-.846m-2.277-4.306-.447 1.063a8.5 8.5 0 0 1-.579-1.59zM7.69 18.24l.969-.626.695.918a8.5 8.5 0 0 1-1.664-.292m2.958.292.695-.918.97.626a8.5 8.5 0 0 1-1.665.292m2.878-.734.34-1.102 1.123.256a8.5 8.5 0 0 1-1.463.846m-12.04-6.954a8.7 8.7 0 0 1 0-1.688L2.27 10zm1.25-3.488-1.027.526q.213-.831.579-1.589zM4.077 5.03l-1.143.143A8.6 8.6 0 0 1 4.02 3.881zm2.057-1.726-1.123-.256a8.6 8.6 0 0 1 1.463-.846zm2.523-.918-.97-.626a8.5 8.5 0 0 1 1.665-.292zm2.685 0-.696-.918a8.5 8.5 0 0 1 1.664.292zm2.522.918-.34-1.102a8.6 8.6 0 0 1 1.463.846zm2.057 1.726.057-1.15q.606.592 1.086 1.293zm1.343 2.325.447-1.063q.366.758.579 1.59zm1.249 1.8a8.7 8.7 0 0 1 0 1.688L17.73 10zm-1.25 3.488 1.027-.526a8.5 8.5 0 0 1-.579 1.589zm-1.342 2.325 1.143-.143a8.6 8.6 0 0 1-1.086 1.292zm-10.074-.946-.904.22.373-.852q.244.335.53.632m.852 1.693.06-.928q.34.231.713.413zm2.154.784-.261-.891q.396.1.812.142zm2.292 0-.55-.749a6 6 0 0 0 .811-.142zm2.154-.784-.773-.515q.373-.181.714-.413zm1.756-1.473-.904-.22q.288-.297.53-.632zm1.146-1.986-.923.103a6 6 0 0 0 .282-.774zm-.435-1.845a6 6 0 0 0 0-.824L16.6 10zm.435-2.67-.641.672a6 6 0 0 0-.282-.774zm-1.146-1.984-.373.85a6 6 0 0 0-.53-.63zM13.3 4.284l-.06.928a6 6 0 0 0-.713-.413zM11.146 3.5l.261.891a6 6 0 0 0-.812-.142zm-2.292 0 .55.749a6 6 0 0 0-.811.142zM6.7 4.284l.773.515q-.373.181-.714.413zM4.944 5.758l.904.22a6 6 0 0 0-.53.63zM3.798 7.743l.923-.103a6 6 0 0 0-.282.774zm.435 1.845a6 6 0 0 0 0 .824L3.4 10zm-.435 2.67.641-.672q.114.4.282.774z" clip-rule="evenodd"/></g><defs><clipPath id="logoCircle_svg__a"><rect width="20" height="20" fill="#fff" rx="10"/></clipPath></defs></svg>