<svg xmlns="http://www.w3.org/2000/svg" width="87" height="87" fill="none"><path fill="#515252" fill-rule="evenodd" d="M12.559 12.559C7.25 17.867 7.25 26.412 7.25 43.5s0 25.633 5.309 30.941C17.867 79.75 26.412 79.75 43.5 79.75s25.633 0 30.941-5.309C79.75 69.133 79.75 60.588 79.75 43.5s0-25.633-5.309-30.941C69.133 7.25 60.588 7.25 43.5 7.25s-25.633 0-30.941 5.309M30.44 63.244a2.72 2.72 0 0 0 3.803.565c2.64-1.957 5.827-3.09 9.256-3.09s6.616 1.133 9.256 3.09a2.718 2.718 0 1 0 3.238-4.368c-3.525-2.613-7.836-4.16-12.494-4.16s-8.969 1.547-12.494 4.16a2.72 2.72 0 0 0-.565 3.803M58 38.063c0 3.002-1.623 5.437-3.625 5.437s-3.625-2.435-3.625-5.437c0-3.004 1.623-5.438 3.625-5.438S58 35.059 58 38.063M32.625 43.5c2.002 0 3.625-2.435 3.625-5.437 0-3.004-1.623-5.438-3.625-5.438S29 35.059 29 38.063c0 3.002 1.623 5.437 3.625 5.437" clip-rule="evenodd"/></svg>