<svg width="1024" height="1024" viewBox="0 0 1024 1024" fill="none" xmlns="http://www.w3.org/2000/svg">
<path fill-rule="evenodd" clip-rule="evenodd" d="M612.424 250.197C650.544 250.197 669.617 250.201 686.857 255.531C702.116 260.249 716.271 267.98 728.491 278.264C742.296 289.883 752.615 305.905 773.224 337.964L826.057 420.197C841.865 444.788 849.778 457.092 851.924 470.031C853.812 481.438 852.562 493.152 848.291 503.897C843.444 516.083 833.092 526.429 812.424 547.097L569.924 789.597C549.653 809.869 539.511 820.03 527.824 823.831C517.541 827.172 506.44 827.172 496.157 823.831C484.469 820.031 474.331 809.871 454.057 789.597L211.557 547.097C190.89 526.43 180.537 516.082 175.691 503.897C171.419 493.152 170.168 481.438 172.057 470.031C174.203 457.091 182.116 444.788 197.924 420.197L250.757 337.964C271.366 305.906 281.686 289.883 295.491 278.264C307.71 267.98 321.865 260.248 337.124 255.531C354.364 250.201 373.438 250.197 411.557 250.197H612.424Z" fill="white"/>
</svg>
