<svg width="512" height="512" viewBox="0 0 512 512" fill="none" xmlns="http://www.w3.org/2000/svg">
<path d="M151.218 180.762C144.118 184.044 140.568 185.685 138.038 187.74C130.152 194.148 126.722 204.563 129.256 214.403C130.069 217.559 131.949 220.989 135.709 227.848L177.75 304.533L212.199 367.371C215.067 372.602 216.595 375.388 218.282 377.406L218.321 377.452C218.426 377.577 218.532 377.699 218.639 377.818C224.345 384.194 233.015 387.05 241.393 385.313C244.091 384.754 246.987 383.415 252.781 380.737C259.882 377.456 263.432 375.815 265.961 373.759C273.847 367.352 277.277 356.937 274.743 347.097C273.93 343.941 272.05 340.511 268.29 333.652L226.25 256.968L191.8 194.129C188.935 188.902 187.407 186.124 185.721 184.106L185.692 184.071C185.582 183.939 185.472 183.806 185.361 183.681C179.654 177.306 170.985 174.45 162.607 176.187C159.909 176.746 157.012 178.085 151.218 180.762Z" fill="white" fill-opacity="0.01"/>
<path d="M259.214 131.266C252.114 134.547 248.564 136.188 246.034 138.244C238.149 144.652 234.718 155.066 237.252 164.906C238.065 168.063 239.945 171.492 243.705 178.351L285.746 255.036L320.195 317.874C323.063 323.105 324.591 325.891 326.278 327.909L326.317 327.956C326.422 328.081 326.528 328.203 326.635 328.322C332.341 334.698 341.011 337.553 349.389 335.817C352.087 335.258 354.984 333.919 360.777 331.241C367.878 327.959 371.428 326.318 373.957 324.263C381.843 317.855 385.274 307.441 382.739 297.601C381.927 294.444 380.046 291.015 376.286 284.156L334.246 207.471L299.796 144.633C296.931 139.405 295.403 136.627 293.717 134.609L293.688 134.574C293.578 134.443 293.468 134.309 293.357 134.185C287.65 127.809 278.981 124.953 270.603 126.69C267.905 127.249 265.008 128.588 259.214 131.266Z" fill="white" fill-opacity="0.01"/>
</svg>
