<?xml version="1.0" encoding="UTF-8"?>
<svg width="26px" height="26px" viewBox="0 0 26 26" version="1.1" xmlns="http://www.w3.org/2000/svg" xmlns:xlink="http://www.w3.org/1999/xlink">
    <title>MenuMultisend26</title>
    <g id="MenuMultisend26" stroke="none" fill="none" fill-rule="nonzero">
        <path d="M10.93457,22.2451 C10.80176,22.4222 10.65234,22.5301 10.48633,22.5688 C10.32585,22.6076 10.1792,22.591 10.04639,22.519 C9.91357,22.4526 9.8195,22.342 9.76416,22.187 C9.71436,22.0321 9.73096,21.8467 9.81396,21.6309 L12.2876,15.1812 L7.597656,15.1812 C7.420573,15.1812 7.276693,15.1286 7.166016,15.0234 C7.0553385,14.9128 7,14.7772 7,14.6167 C7,14.4451 7.0719401,14.2681 7.21582,14.0854 L14.76123,4.390137 C14.89404,4.213053 15.04069,4.105143 15.20117,4.0664062 C15.36719,4.0221354 15.5166,4.0359701 15.64941,4.10791 C15.78223,4.174316 15.87354,4.28776 15.92334,4.448242 C15.97868,4.60319 15.96484,4.785807 15.88184,4.996094 L13.4082,11.4541 L18.0981,11.4541 C18.2752,11.4541 18.4191,11.50667 18.5298,11.61182 C18.6405,11.71696 18.6958,11.84977 18.6958,12.01025 C18.6958,12.1818 18.6239,12.35889 18.48,12.5415 L10.93457,22.2451 Z M11.42432,20.0122 L11.19189,19.8877 L16.6123,12.69092 L11.49072,12.69092 L14.26318,6.62305 L14.49561,6.74756 L9.0752,13.94434 L14.20508,13.94434 L11.42432,20.0122 Z" id="Shape" fill="#333333"></path>
    </g>
</svg>