<svg xmlns="http://www.w3.org/2000/svg" width="28" height="28" fill="none"><rect width="28" height="28" fill="url(#settings_tips_svg__a)" rx="8"/><path fill="#fff" d="M14 5a6.3 6.3 0 0 0-6.3 6.3 6.3 6.3 0 0 0 2.7 5.166V18.5a.9.9 0 0 0 .9.9h5.4a.9.9 0 0 0 .9-.9v-2.034A6.297 6.297 0 0 0 14 5m-2.7 17.1a.9.9 0 0 0 .9.9h3.6a.9.9 0 0 0 .9-.9v-.9h-5.4z"/><defs><linearGradient id="settings_tips_svg__a" x1="14" x2="14" y1="0" y2="28" gradientUnits="userSpaceOnUse"><stop stop-color="#DB75EA"/><stop offset="1" stop-color="#B157CE"/></linearGradient></defs></svg>