<svg xmlns="http://www.w3.org/2000/svg" width="28" height="28" fill="none"><rect width="28" height="28" fill="url(#settings_exit_svg__a)" rx="8"/><path fill="#fff" d="M7.584 14c0 .217.084.425.234.578s.355.239.568.239h6.087l-1.844 1.87a.82.82 0 0 0-.238.58.83.83 0 0 0 .499.758.79.79 0 0 0 .878-.178l3.208-3.267a.8.8 0 0 0 .168-.27.83.83 0 0 0 0-.62.8.8 0 0 0-.168-.27l-3.208-3.266a.8.8 0 0 0-.57-.24.8.8 0 0 0-.57.24.82.82 0 0 0-.235.58.83.83 0 0 0 .236.58l1.844 1.87H8.386a.8.8 0 0 0-.568.239.82.82 0 0 0-.234.577M18.01 5.834H9.99c-.638 0-1.25.258-1.702.717a2.47 2.47 0 0 0-.705 1.733v2.45c0 .216.085.424.235.577a.795.795 0 0 0 1.135 0 .82.82 0 0 0 .235-.577v-2.45c0-.217.084-.425.235-.578a.8.8 0 0 1 .567-.239h8.02c.213 0 .417.086.568.24.15.152.235.36.235.577v11.433a.82.82 0 0 1-.235.577.8.8 0 0 1-.567.24H9.99a.8.8 0 0 1-.567-.24.82.82 0 0 1-.235-.577v-2.45a.82.82 0 0 0-.235-.578.795.795 0 0 0-1.135 0 .82.82 0 0 0-.234.578v2.45c0 .65.253 1.273.704 1.732.452.46 1.064.718 1.702.718h8.02c.639 0 1.25-.258 1.702-.718s.705-1.083.705-1.732V8.284c0-.65-.254-1.273-.705-1.733a2.38 2.38 0 0 0-1.701-.717"/><defs><linearGradient id="settings_exit_svg__a" x1="14" x2="14" y1="0" y2="28" gradientUnits="userSpaceOnUse"><stop stop-color="#F35B5B"/><stop offset="1" stop-color="#DF3955"/></linearGradient></defs></svg>