<svg xmlns="http://www.w3.org/2000/svg" width="28" height="28" fill="none"><rect width="28" height="28" fill="url(#settings_appearance_svg__a)" rx="8"/><path fill="#fff" fill-rule="evenodd" d="M18.583 6.506c.66-.66 1.762-.63 2.459.067.659.658.722 1.677.17 2.345l-.103.114-5.8 5.8c-.661.66-1.309 1.084-2.46-.067-1.106-1.106-.757-1.748-.142-2.383zm-8.56 8.699a2.77 2.77 0 0 1 2.77 2.77c0 1.53-.813 2.82-2.77 3.414q-1.957.595-4.471-1.292 1.607-.375 1.696-1.934l.006-.188a2.77 2.77 0 0 1 2.77-2.77" clip-rule="evenodd"/><defs><linearGradient id="settings_appearance_svg__a" x1="14" x2="14" y1="0" y2="28" gradientUnits="userSpaceOnUse"><stop stop-color="#1BA7ED"/><stop offset="1" stop-color="#08C"/></linearGradient></defs></svg>