<svg xmlns="http://www.w3.org/2000/svg" width="28" height="28" fill="none"><rect width="28" height="28" fill="url(#settings_wallet-version_svg__a)" rx="8"/><path fill="#fff" fill-rule="evenodd" d="M14 8.321c-.281 0-.55.11-.746.305a1.02 1.02 0 0 0-.305.728v9.292c0 .271.109.533.305.727.197.195.465.306.746.306h5.628c.282 0 .55-.11.746-.305s.305-.457.305-.728V9.354c0-.271-.109-.533-.305-.728a1.06 1.06 0 0 0-.746-.305zm-1.908-.868A2.7 2.7 0 0 1 14 6.67h5.628c.714 0 1.4.28 1.908.783.507.503.794 1.186.794 1.9v9.293c0 .714-.287 1.398-.794 1.9a2.7 2.7 0 0 1-1.908.784H14c-.714 0-1.4-.281-1.908-.783a2.68 2.68 0 0 1-.794-1.901V9.354c0-.714.287-1.398.794-1.9M9.31 8.528c.456 0 .825.37.825.826v9.292a.826.826 0 1 1-1.65 0V9.354c0-.456.369-.826.825-.826m-2.815.93c.456 0 .826.37.826.825v7.434a.826.826 0 1 1-1.651 0v-7.434c0-.456.37-.825.825-.825" clip-rule="evenodd"/><defs><linearGradient id="settings_wallet-version_svg__a" x1="14" x2="14" y1="0" y2="28" gradientUnits="userSpaceOnUse"><stop stop-color="#F0AD1C"/><stop offset="1" stop-color="#E19511"/></linearGradient></defs></svg>