<svg xmlns="http://www.w3.org/2000/svg" width="28" height="28" fill="none"><rect width="28" height="28" fill="url(#settings_portfolio_svg__a)" rx="8"/><path fill="#fff" d="M10.464 19.401a2.26 2.26 0 1 1-4.52 0v-2.945a2.26 2.26 0 1 1 4.52 0zm11.588.002a2.258 2.258 0 0 1-4.516 0V8.597a2.258 2.258 0 1 1 4.516 0zm-5.793-.001a2.259 2.259 0 0 1-4.518 0v-6.875a2.259 2.259 0 1 1 4.518 0z"/><defs><linearGradient id="settings_portfolio_svg__a" x1="14" x2="14" y1="0" y2="28" gradientUnits="userSpaceOnUse"><stop stop-color="#c6e720"/><stop offset="1" stop-color="#10b189"/></linearGradient></defs></svg>