<svg xmlns="http://www.w3.org/2000/svg" width="28" height="28" fill="none"><rect width="28" height="28" fill="url(#settings_connected-dapps_svg__a)" rx="8"/><path fill="#fff" fill-rule="evenodd" d="M22.233 9.655c0-1.6-1.297-2.897-2.896-2.897H8.717a2.897 2.897 0 0 0-2.898 2.897v7.724c0 .533.433.965.966.965h14.483a.966.966 0 0 0 .965-.965zM8.716 8.689h10.62c.534 0 .966.433.966.966v6.759H7.751V9.655c0-.533.432-.966.965-.966" clip-rule="evenodd"/><path fill="#fff" d="M4.895 19.364h18.198a.965.965 0 0 1 .112 1.924l-.112.007H4.895a.966.966 0 0 1-.112-1.925z"/><defs><linearGradient id="settings_connected-dapps_svg__a" x1="14" x2="14" y1="0" y2="28" gradientUnits="userSpaceOnUse"><stop stop-color="#30BFCE"/><stop offset="1" stop-color="#209DC6"/></linearGradient></defs></svg>