<svg xmlns="http://www.w3.org/2000/svg" width="28" height="28" fill="none"><rect width="28" height="28" fill="url(#settings_language_svg__a)" rx="8"/><path fill="#fff" d="M14 22.167a7.9 7.9 0 0 1-3.164-.644 8.3 8.3 0 0 1-2.603-1.755 8.3 8.3 0 0 1-1.756-2.603A7.9 7.9 0 0 1 5.833 14q0-1.694.644-3.174a8.3 8.3 0 0 1 1.756-2.593 8.3 8.3 0 0 1 2.603-1.757A7.9 7.9 0 0 1 14 5.834a7.9 7.9 0 0 1 3.174.642 8.3 8.3 0 0 1 2.593 1.757 8.3 8.3 0 0 1 1.756 2.593q.645 1.48.644 3.174a7.9 7.9 0 0 1-.644 3.165 8.3 8.3 0 0 1-1.756 2.603 8.3 8.3 0 0 1-2.593 1.755 7.9 7.9 0 0 1-3.174.644m0-1.674q.53-.735.919-1.531.388-.797.633-1.695h-3.104q.246.898.633 1.695.388.795.92 1.53m-2.123-.327a11 11 0 0 1-.643-1.399 12 12 0 0 1-.46-1.5h-2.41q.592 1.02 1.48 1.776a5.9 5.9 0 0 0 2.032 1.123m4.246 0a5.9 5.9 0 0 0 2.031-1.123 6.8 6.8 0 0 0 1.481-1.776h-2.409a12 12 0 0 1-.459 1.5q-.276.726-.643 1.4m-8.452-4.532h2.777q-.062-.409-.093-.807a11 11 0 0 1 0-1.653q.032-.399.093-.807H7.67q-.103.408-.154.807-.05.397-.05.826a6.6 6.6 0 0 0 .204 1.634m4.41 0h3.838q.061-.409.093-.807a11 11 0 0 0 0-1.653q-.032-.399-.093-.807H12.08A11 11 0 0 0 11.959 14a10.6 10.6 0 0 0 .122 1.634m5.472 0h2.776q.103-.409.154-.807.05-.397.05-.827a6.6 6.6 0 0 0-.204-1.633h-2.776A11 11 0 0 1 17.675 14a10.6 10.6 0 0 1-.122 1.634m-.327-4.9h2.41a6.8 6.8 0 0 0-1.482-1.777 5.9 5.9 0 0 0-2.03-1.122q.367.673.643 1.398t.459 1.5m-4.777 0h3.103a9.7 9.7 0 0 0-.633-1.695A10.4 10.4 0 0 0 14 7.508q-.53.735-.919 1.531a9.7 9.7 0 0 0-.633 1.695m-4.084 0h2.41q.183-.777.46-1.501.274-.725.642-1.398a5.9 5.9 0 0 0-2.032 1.122 6.8 6.8 0 0 0-1.48 1.777"/><defs><linearGradient id="settings_language_svg__a" x1="14" x2="14" y1="0" y2="28" gradientUnits="userSpaceOnUse"><stop stop-color="#DB75EA"/><stop offset="1" stop-color="#B157CE"/></linearGradient></defs></svg>