<svg xmlns="http://www.w3.org/2000/svg" width="28" height="28" fill="none"><rect width="28" height="28" fill="url(#settings_support_svg__a)" rx="8"/><path fill="#fff" d="M5.83 13.993a8.165 8.165 0 1 1 4.23 7.156l-3.175.967a.816.816 0 0 1-1.019-1.02l.967-3.179a8.16 8.16 0 0 1-1.003-3.924m5.15-1.316a.817.817 0 0 0 .816.816h4.899a.816.816 0 1 0 0-1.633h-4.9a.816.816 0 0 0-.816.817m.816 2.45a.816.816 0 1 0 0 1.632h3.266a.816.816 0 1 0 0-1.633z"/><defs><linearGradient id="settings_support_svg__a" x1="14" x2="14" y1="0" y2="28" gradientUnits="userSpaceOnUse"><stop stop-color="#F0AD1C"/><stop offset="1" stop-color="#E19511"/></linearGradient></defs></svg>