<svg xmlns="http://www.w3.org/2000/svg" width="28" height="28" fill="none"><rect width="28" height="28" fill="url(#settings_assets-activity_svg__a)" rx="8"/><path fill="#fff" fill-rule="evenodd" d="M14.003 7.24c4 0 7.242 1.298 7.242 2.897 0 1.6-3.242 2.897-7.242 2.897s-7.241-1.297-7.241-2.897 3.242-2.896 7.241-2.896" clip-rule="evenodd"/><path fill="#fff" fill-rule="evenodd" d="M6.76 12.685c1.567 1.164 4.249 1.797 7.242 1.797 2.991 0 5.673-.633 7.24-1.797v2.677c-1.381.913-4.105 1.533-7.24 1.533-3.01 0-5.641-.572-7.07-1.425l-.171-.108zm14.482 4.332-.002 2.207c-1.381.913-4.105 1.533-7.24 1.533-3.009 0-5.64-.572-7.067-1.425l-.172-.108-.002-2.207c1.76.845 4.392 1.326 7.241 1.326 2.85 0 5.482-.482 7.241-1.326" clip-rule="evenodd"/><defs><linearGradient id="settings_assets-activity_svg__a" x1="14" x2="14" y1="0" y2="28" gradientUnits="userSpaceOnUse"><stop stop-color="#7784FF"/><stop offset="1" stop-color="#4C66F9"/></linearGradient></defs></svg>