<svg xmlns="http://www.w3.org/2000/svg" width="28" height="28" fill="none"><rect width="28" height="28" fill="url(#settings_helpcenter_svg__a)" rx="8"/><path fill="#fff" d="M14.5 20.602V8.352c0-.11.028-.217.09-.307 1.547-2.283 6.129-2.313 7.757-.09a.85.85 0 0 1 .153.507v12.14c0 .304-.472.463-.706.268-1.7-1.413-4.888-1.413-6.588 0-.234.195-.706.036-.706-.268m-9 0V8.462c0-.181.046-.361.153-.508 1.628-2.222 6.21-2.192 7.758.09.06.09.089.198.089.307v12.251c0 .304-.472.463-.706.268-1.7-1.413-4.888-1.413-6.588 0-.234.195-.706.036-.706-.268"/><defs><linearGradient id="settings_helpcenter_svg__a" x1="14" x2="14" y1="0" y2="28" gradientUnits="userSpaceOnUse"><stop stop-color="#7784FF"/><stop offset="1" stop-color="#4C66F9"/></linearGradient></defs></svg>