<svg xmlns="http://www.w3.org/2000/svg" width="28" height="28" fill="none"><g clip-path="url(#settings_mytonwallet_svg__a)"><path fill="url(#settings_mytonwallet_svg__b)" d="M0 12.8c0-4.48 0-6.72.872-8.432A8 8 0 0 1 4.368.872C6.08 0 8.32 0 12.8 0h2.4c4.48 0 6.72 0 8.432.872a8 8 0 0 1 3.496 3.496C28 6.08 28 8.32 28 12.8v2.4c0 4.48 0 6.72-.872 8.432a8 8 0 0 1-3.496 3.496C21.92 28 19.68 28 15.2 28h-2.4c-4.48 0-6.72 0-8.432-.872a8 8 0 0 1-3.496-3.496C0 21.92 0 19.68 0 15.2z"/><circle cx="14" cy="14" r="12" fill="url(#settings_mytonwallet_svg__c)"/><path fill="url(#settings_mytonwallet_svg__d)" fill-rule="evenodd" d="M14 3C7.925 3 3 7.925 3 14s4.925 11 11 11 11-4.925 11-11S20.075 3 14 3M9.368 22.023l-1.345.306q.822.591 1.753 1.014zm1.21 1.38-.514-1.666 1.479-.985.5 1.705zm-.461-3.665-.071 1.111.926-.617a7 7 0 0 1-.855-.494m-2.548 1.927.086-1.74 1.726-.42-.113 1.773zm-.734-.334.068-1.376-1.368-.172c.382.558.818 1.077 1.3 1.548m2.19-2.51-1.084.263.448-1.02q.291.401.635.756M6.01 17.396l-.676 1.606 1.729.217.713-1.627zm-.716-.229-.536 1.274a10 10 0 0 1-.694-1.904zM7.336 15.9l-.768.805 1.106.123a7 7 0 0 1-.338-.928m-3.19-.162 1.185-1.278 1.593.788-1.227 1.285zM3.75 14q0 .512.05 1.011L4.735 14l-.938-1.011q-.049.499-.05 1.011m3.34-.494a7 7 0 0 0 0 .988L6.092 14zm-1.392-2.039-1.55.795L5.33 13.54l1.593-.788zm.871-.172 1.106-.123a7 7 0 0 0-.338.928zm-2.503.167 1.23-.63-.536-1.274a10.2 10.2 0 0 0-.694 1.904m1.27-2.465 1.729-.217.713 1.627-1.766.196zm3.69.183L7.94 8.916l.448 1.02q.291-.401.635-.756M7.568 6.335l1.699.387.113 1.774-1.726-.42zM5.535 8.217l1.368-.172-.068-1.376c-.482.471-.918.99-1.3 1.548m4.51-1.066.927.617q-.447.217-.855.494zm.533-2.553-.514 1.665 1.479.985.5-1.705zm-1.21 1.38L8.023 5.67a10.2 10.2 0 0 1 1.753-1.014zm3.919 1.13-.66-.897-.313 1.068q.474-.12.973-.17M14 3.995l1.053 1.39L14 6.813l-1.053-1.43zm-2.77.133 1.161.75.833-1.1a10.2 10.2 0 0 0-1.994.35m4.143 2.084.313 1.068a7 7 0 0 0-.973-.17zm2.563.052-.514-1.665-1.464.945.5 1.705zM15.61 4.877l-.833-1.1q1.03.079 1.994.35zm2.274 3.385.071-1.111-.926.617q.447.217.855.494m2.549-1.927-.087 1.74-1.726.42.113-1.773zm-2.208-1.678.408 1.32 1.345-.306a10.2 10.2 0 0 0-1.753-1.014m1.835 4.26-.448 1.02a7 7 0 0 0-.635-.757zm1.93 1.686.676-1.606-1.729-.217-.713 1.627zm-.893-2.558.069-1.376c.482.471.918.99 1.3 1.548zm-.432 4.055.768-.805-1.106-.123q.201.449.338.928m3.19.162L22.67 13.54l-1.593-.788 1.227-1.285zm-.613-2.704-.536 1.274 1.23.63c-.17-.662-.403-1.3-.694-1.904m-2.33 4.936a7 7 0 0 0 0-.988l.998.494zm1.392 2.039 1.55-.796-1.184-1.277-1.593.788zm1.899-3.545a10.4 10.4 0 0 1 0 2.024L23.264 14zm-.268 3.55-1.229.63.536 1.274q.438-.908.694-1.904m-1.269 2.465-1.729.217-.713-1.627 1.766-.196zm-3.933 2.274 1.7.388-.087-1.74-1.726-.42zm-1.31 2.125-1.464-.945.5-1.705 1.478.985zm-4.475-.785L14 24.006l1.053-1.39L14 21.187zm-.32-.828-.313-1.068q.474.12.973.17zm2.086-.898.66.898.313-1.068a7 7 0 0 1-.973.17m3.241-.042-.926-.617a7 7 0 0 0 .855-.494zm1.022-2.029 1.083.264-.448-1.02q-.291.401-.635.756m2.456-2.115-1.106.123q.201-.449.338-.928zm1.034 3.078-1.37.172.069 1.376a10.3 10.3 0 0 0 1.3-1.548m-4.242 3.56.408-1.32 1.345.306q-.822.591-1.753 1.014m-2.615-.22-.833 1.1a10.2 10.2 0 0 0 1.994-.35zm-4.379.75 1.161-.75.833 1.1a10.2 10.2 0 0 1-1.994-.35M14 7.82a6.179 6.179 0 1 0 0 12.358A6.179 6.179 0 0 0 14 7.82" clip-rule="evenodd"/><path fill="url(#settings_mytonwallet_svg__e)" fill-rule="evenodd" d="M15.2.6h-2.4c-2.25 0-3.902 0-5.206.107-1.296.106-2.197.314-2.954.7A7.4 7.4 0 0 0 1.407 4.64c-.386.757-.594 1.658-.7 2.954C.6 8.898.6 10.55.6 12.8v2.4c0 2.25 0 3.902.107 5.206.106 1.296.314 2.197.7 2.954a7.4 7.4 0 0 0 3.233 3.233c.757.386 1.658.594 2.954.7 1.304.107 2.956.107 5.206.107h2.4c2.25 0 3.902 0 5.206-.107 1.296-.106 2.197-.314 2.954-.7a7.4 7.4 0 0 0 3.233-3.233c.386-.757.594-1.658.7-2.954.107-1.304.107-2.956.107-5.206v-2.4c0-2.25 0-3.902-.107-5.206-.106-1.296-.314-2.197-.7-2.954a7.4 7.4 0 0 0-3.233-3.233c-.757-.386-1.658-.594-2.954-.7C19.102.6 17.45.6 15.2.6M.872 4.368C0 6.08 0 8.32 0 12.8v2.4c0 4.48 0 6.72.872 8.432a8 8 0 0 0 3.496 3.496C6.08 28 8.32 28 12.8 28h2.4c4.48 0 6.72 0 8.432-.872a8 8 0 0 0 3.496-3.496C28 21.92 28 19.68 28 15.2v-2.4c0-4.48 0-6.72-.872-8.432A8 8 0 0 0 23.632.872C21.92 0 19.68 0 15.2 0h-2.4C8.32 0 6.08 0 4.368.872A8 8 0 0 0 .872 4.368" clip-rule="evenodd"/></g><defs><linearGradient id="settings_mytonwallet_svg__b" x1="14" x2="14" y1="0" y2="28" gradientUnits="userSpaceOnUse"><stop stop-color="#fff"/><stop offset="1" stop-color="#EAEFF3"/></linearGradient><linearGradient id="settings_mytonwallet_svg__c" x1="14" x2="14" y1="2" y2="26" gradientUnits="userSpaceOnUse"><stop stop-color="#629CE6"/><stop offset=".5" stop-color="#3F79CF"/><stop offset="1" stop-color="#2E74B5"/></linearGradient><linearGradient id="settings_mytonwallet_svg__d" x1="14" x2="14" y1="0" y2="28" gradientUnits="userSpaceOnUse"><stop stop-color="#fff"/><stop offset="1" stop-color="#E6EFF6"/></linearGradient><linearGradient id="settings_mytonwallet_svg__e" x1="14" x2="14" y1="0" y2="28" gradientUnits="userSpaceOnUse"><stop stop-color="#E5E9ED"/><stop offset="1" stop-color="#CFD3D9"/></linearGradient><clipPath id="settings_mytonwallet_svg__a"><path fill="#fff" d="M0 0h28v28H0z"/></clipPath></defs></svg>