<svg xmlns="http://www.w3.org/2000/svg" width="28" height="28" fill="none"><rect width="28" height="28" fill="url(#settings_ton-wallets_svg__a)" rx="8"/><path fill="#fff" fill-rule="evenodd" d="M8.106 7.313h9.864c.35 0 .698.05 1.062.22.437.204.669.525.831.763l.035.057q.288.51.29 1.1c0 .375-.09.784-.29 1.14l-.005.01-6.232 10.705a.765.765 0 0 1-1.325-.005L6.22 10.62l-.005-.009c-.14-.23-.357-.587-.394-1.048a2.09 2.09 0 0 1 1.19-2.057c.414-.193.832-.194 1.096-.194m4.13 1.529h-4.13c-.27 0-.375.016-.448.05a.55.55 0 0 0-.314.547c.005.065.031.14.188.397l.01.017 4.693 8.196zm1.529 0v9.248l4.802-8.25a.84.84 0 0 0 .091-.387.7.7 0 0 0-.079-.325 1 1 0 0 0-.121-.156.2.2 0 0 0-.072-.052.9.9 0 0 0-.416-.078z" clip-rule="evenodd"/><path fill="#fff" stroke="#0d97dc" stroke-linecap="round" stroke-linejoin="round" d="M19.187 13.687a1.15 1.15 0 0 1 1.627 0l1.5 1.5a1.15 1.15 0 0 1 0 1.627l-1.5 1.5a1.15 1.15 0 0 1-1.909-1.164H15.5a1.15 1.15 0 0 1 0-2.3h3.405a1.15 1.15 0 0 1 .281-1.163"/><path fill="#fff" stroke="#0790d4" stroke-linecap="round" stroke-linejoin="round" d="M17.314 18.187a1.15 1.15 0 0 0-1.627 0l-1.5 1.5a1.15 1.15 0 0 0 0 1.627l1.5 1.5a1.15 1.15 0 0 0 1.908-1.164H21a1.15 1.15 0 0 0 0-2.3h-3.405a1.15 1.15 0 0 0-.281-1.163"/><defs><linearGradient id="settings_ton-wallets_svg__a" x1="14" x2="14" y1="0" y2="28" gradientUnits="userSpaceOnUse"><stop stop-color="#1ba7ed"/><stop offset="1" stop-color="#08c"/></linearGradient></defs></svg>