<svg width="28" height="28" viewBox="0 0 28 28" fill="none" xmlns="http://www.w3.org/2000/svg">
<rect width="28" height="28" rx="8" fill="#1EC160"/>
<path opacity="0.5" d="M6.8088 14.5338L11.7062 11.1057L11.7062 11.1057C12.5326 10.5272 12.9458 10.2379 13.3953 10.1259C13.7924 10.0269 14.2076 10.0269 14.6047 10.1259C15.0542 10.2379 15.4674 10.5272 16.2939 11.1057L21.1912 14.5338C22.1361 15.1953 22.6086 15.526 22.7751 15.938C22.9207 16.2985 22.9207 16.7015 22.7751 17.062C22.6086 17.474 22.1361 17.8047 21.1912 18.4661L21.1912 18.4662L16.2938 21.8943C15.4674 22.4728 15.0542 22.7621 14.6047 22.8741C14.2076 22.9731 13.7924 22.9731 13.3953 22.8741C12.9458 22.7621 12.5326 22.4728 11.7061 21.8943L6.8088 18.4662L6.80879 18.4662C5.86389 17.8047 5.39144 17.474 5.22495 17.062C5.07927 16.7015 5.07927 16.2985 5.22495 15.938C5.39144 15.526 5.86389 15.1953 6.80879 14.5338L6.8088 14.5338Z" fill="white"/>
<path d="M13.25 4.54395C13.7423 4.42122 14.2577 4.42122 14.75 4.54395C15.3333 4.68941 15.8521 5.06432 16.6377 5.61426L21.5352 9.04199C21.9983 9.36618 22.3795 9.63264 22.6621 9.87109C22.9464 10.111 23.1935 10.3728 23.3311 10.7129C23.535 11.2176 23.535 11.7824 23.3311 12.2871C23.1935 12.6272 22.9464 12.889 22.6621 13.1289C22.3795 13.3674 21.9983 13.6338 21.5352 13.958L16.6377 17.3857C15.8521 17.9357 15.3333 18.3106 14.75 18.4561C14.2577 18.5788 13.7423 18.5788 13.25 18.4561C12.6667 18.3106 12.1479 17.9357 11.3623 17.3857L6.46484 13.958C6.00172 13.6338 5.62052 13.3674 5.33789 13.1289C5.05361 12.889 4.80647 12.6272 4.66895 12.2871C4.465 11.7824 4.465 11.2176 4.66895 10.7129C4.80647 10.3728 5.05361 10.111 5.33789 9.87109C5.62052 9.63264 6.00172 9.36618 6.46484 9.04199L6.47559 9.03418L11.3623 5.61426C12.1479 5.06432 12.6667 4.68941 13.25 4.54395Z" fill="white" stroke="#1EC160" stroke-width="1.2"/>
</svg>
